<svg width="596" height="674" viewBox="0 0 596 674" fill="none" xmlns="http://www.w3.org/2000/svg">
<rect width="596" height="674" rx="20" fill="white"/>
<path d="M40.01 37.32C39.97 36.82 39.83 36.41 39.59 36.09C39.35 35.75 39.04 35.49 38.66 35.31C38.3 35.11 37.9 34.97 37.46 34.89C37.02 34.81 36.59 34.76 36.17 34.74C35.89 34.74 35.47 34.75 34.91 34.77C34.37 34.79 33.74 34.84 33.02 34.92C32.32 35 31.56 35.12 30.74 35.28C29.92 35.42 29.1 35.62 28.28 35.88V32.88C29.12 32.6 29.96 32.39 30.8 32.25C31.64 32.09 32.41 31.98 33.11 31.92C33.83 31.84 34.45 31.8 34.97 31.8C35.51 31.78 35.9 31.77 36.14 31.77C37.12 31.79 38.04 31.9 38.9 32.1C39.78 32.28 40.55 32.58 41.21 33C41.87 33.4 42.4 33.93 42.8 34.59C43.2 35.25 43.42 36.05 43.46 36.99V37.74C43.46 38.38 43.35 39.02 43.13 39.66C42.91 40.3 42.62 40.91 42.26 41.49C41.9 42.07 41.49 42.62 41.03 43.14C40.59 43.64 40.15 44.08 39.71 44.46L32 50.94C31.9 51.02 31.81 51.1 31.73 51.18C31.65 51.26 31.57 51.35 31.49 51.45C31.35 51.61 31.23 51.79 31.13 51.99C31.03 52.17 30.98 52.37 30.98 52.59V53.37C30.98 53.49 31.06 53.55 31.22 53.55H43.85V55.77C43.85 55.93 43.79 56.07 43.67 56.19C43.57 56.33 43.45 56.4 43.31 56.4H28.58C28.3 56.4 28.03 56.28 27.77 56.04C27.53 55.8 27.41 55.51 27.41 55.17V52.56C27.41 52.08 27.5 51.64 27.68 51.24C27.88 50.82 28.1 50.46 28.34 50.16C28.6 49.82 28.92 49.49 29.3 49.17L37.01 42.66C37.39 42.34 37.76 42 38.12 41.64C38.48 41.26 38.8 40.87 39.08 40.47C39.36 40.05 39.58 39.62 39.74 39.18C39.92 38.72 40.01 38.26 40.01 37.8V37.32ZM54.6102 31.89C56.1102 31.89 57.4102 32.15 58.5102 32.67C59.6102 33.17 60.5102 33.89 61.2102 34.83C61.9302 35.75 62.4602 36.87 62.8002 38.19C63.1602 39.49 63.3402 40.94 63.3402 42.54V46.95C63.3202 48.49 63.1502 49.89 62.8302 51.15C62.5102 52.39 62.0002 53.45 61.3002 54.33C60.6202 55.21 59.7402 55.89 58.6602 56.37C57.5802 56.85 56.2702 57.09 54.7302 57.09C53.3102 57.09 52.0602 56.86 50.9802 56.4C49.9202 55.94 49.0302 55.28 48.3102 54.42C47.5902 53.56 47.0502 52.52 46.6902 51.3C46.3302 50.06 46.1502 48.67 46.1502 47.13V41.7C46.1502 40.38 46.3002 39.13 46.6002 37.95C46.9002 36.75 47.3802 35.71 48.0402 34.83C48.7202 33.93 49.5902 33.22 50.6502 32.7C51.7302 32.16 53.0502 31.89 54.6102 31.89ZM54.9402 54.18C55.8602 54.18 56.6302 54.01 57.2502 53.67C57.8702 53.33 58.3702 52.85 58.7502 52.23C59.1302 51.59 59.4002 50.82 59.5602 49.92C59.7402 49.02 59.8502 48 59.8902 46.86V42.21C59.8902 41.05 59.8002 40.01 59.6202 39.09C59.4402 38.17 59.1402 37.4 58.7202 36.78C58.3202 36.14 57.7802 35.66 57.1002 35.34C56.4402 35 55.6202 34.83 54.6402 34.83C53.7402 34.83 52.9702 35 52.3302 35.34C51.7102 35.68 51.2002 36.17 50.8002 36.81C50.4002 37.45 50.1102 38.23 49.9302 39.15C49.7502 40.05 49.6602 41.07 49.6602 42.21V46.86C49.6602 48 49.7602 49.02 49.9602 49.92C50.1602 50.82 50.4702 51.59 50.8902 52.23C51.3102 52.85 51.8502 53.33 52.5102 53.67C53.1902 54.01 54.0002 54.18 54.9402 54.18ZM78.3303 37.32C78.2903 36.82 78.1503 36.41 77.9103 36.09C77.6703 35.75 77.3603 35.49 76.9803 35.31C76.6203 35.11 76.2203 34.97 75.7803 34.89C75.3403 34.81 74.9103 34.76 74.4903 34.74C74.2103 34.74 73.7903 34.75 73.2303 34.77C72.6903 34.79 72.0603 34.84 71.3403 34.92C70.6403 35 69.8803 35.12 69.0603 35.28C68.2403 35.42 67.4203 35.62 66.6003 35.88V32.88C67.4403 32.6 68.2803 32.39 69.1203 32.25C69.9603 32.09 70.7303 31.98 71.4303 31.92C72.1503 31.84 72.7703 31.8 73.2903 31.8C73.8303 31.78 74.2203 31.77 74.4603 31.77C75.4403 31.79 76.3603 31.9 77.2203 32.1C78.1003 32.28 78.8703 32.58 79.5303 33C80.1903 33.4 80.7203 33.93 81.1203 34.59C81.5203 35.25 81.7403 36.05 81.7803 36.99V37.74C81.7803 38.38 81.6703 39.02 81.4503 39.66C81.2303 40.3 80.9403 40.91 80.5803 41.49C80.2203 42.07 79.8103 42.62 79.3503 43.14C78.9103 43.64 78.4703 44.08 78.0303 44.46L70.3203 50.94C70.2203 51.02 70.1303 51.1 70.0503 51.18C69.9703 51.26 69.8903 51.35 69.8103 51.45C69.6703 51.61 69.5503 51.79 69.4503 51.99C69.3503 52.17 69.3003 52.37 69.3003 52.59V53.37C69.3003 53.49 69.3803 53.55 69.5403 53.55H82.1703V55.77C82.1703 55.93 82.1103 56.07 81.9903 56.19C81.8903 56.33 81.7703 56.4 81.6303 56.4H66.9003C66.6203 56.4 66.3503 56.28 66.0903 56.04C65.8503 55.8 65.7303 55.51 65.7303 55.17V52.56C65.7303 52.08 65.8203 51.64 66.0003 51.24C66.2003 50.82 66.4203 50.46 66.6603 50.16C66.9203 49.82 67.2403 49.49 67.6203 49.17L75.3303 42.66C75.7103 42.34 76.0803 42 76.4403 41.64C76.8003 41.26 77.1203 40.87 77.4003 40.47C77.6803 40.05 77.9003 39.62 78.0603 39.18C78.2403 38.72 78.3303 38.26 78.3303 37.8V37.32ZM92.5105 56.46V35.37C92.5105 35.13 92.3605 35.01 92.0605 35.01H88.6105V32.1H94.1305C94.6705 32.1 95.0905 32.24 95.3905 32.52C95.7105 32.78 95.8705 33.17 95.8705 33.69V55.74C95.8705 55.92 95.8205 56.08 95.7205 56.22C95.6205 56.38 95.4305 56.46 95.1505 56.46H92.5105ZM104.441 56.52V53.19H107.861V56.52H104.441ZM119.268 31.89C120.768 31.89 122.068 32.15 123.168 32.67C124.268 33.17 125.168 33.89 125.868 34.83C126.588 35.75 127.118 36.87 127.458 38.19C127.818 39.49 127.998 40.94 127.998 42.54V46.95C127.978 48.49 127.808 49.89 127.488 51.15C127.168 52.39 126.658 53.45 125.958 54.33C125.278 55.21 124.398 55.89 123.318 56.37C122.238 56.85 120.928 57.09 119.388 57.09C117.968 57.09 116.718 56.86 115.638 56.4C114.578 55.94 113.688 55.28 112.968 54.42C112.248 53.56 111.708 52.52 111.348 51.3C110.988 50.06 110.808 48.67 110.808 47.13V41.7C110.808 40.38 110.958 39.13 111.258 37.95C111.558 36.75 112.038 35.71 112.698 34.83C113.378 33.93 114.248 33.22 115.308 32.7C116.388 32.16 117.708 31.89 119.268 31.89ZM119.598 54.18C120.518 54.18 121.288 54.01 121.908 53.67C122.528 53.33 123.028 52.85 123.408 52.23C123.788 51.59 124.058 50.82 124.218 49.92C124.398 49.02 124.508 48 124.548 46.86V42.21C124.548 41.05 124.458 40.01 124.278 39.09C124.098 38.17 123.798 37.4 123.378 36.78C122.978 36.14 122.438 35.66 121.758 35.34C121.098 35 120.278 34.83 119.298 34.83C118.398 34.83 117.628 35 116.988 35.34C116.368 35.68 115.858 36.17 115.458 36.81C115.058 37.45 114.768 38.23 114.588 39.15C114.408 40.05 114.318 41.07 114.318 42.21V46.86C114.318 48 114.418 49.02 114.618 49.92C114.818 50.82 115.128 51.59 115.548 52.23C115.968 52.85 116.508 53.33 117.168 53.67C117.848 54.01 118.658 54.18 119.598 54.18ZM142.989 37.32C142.949 36.82 142.809 36.41 142.569 36.09C142.329 35.75 142.019 35.49 141.639 35.31C141.279 35.11 140.879 34.97 140.439 34.89C139.999 34.81 139.569 34.76 139.149 34.74C138.869 34.74 138.449 34.75 137.889 34.77C137.349 34.79 136.719 34.84 135.999 34.92C135.299 35 134.539 35.12 133.719 35.28C132.899 35.42 132.079 35.62 131.259 35.88V32.88C132.099 32.6 132.939 32.39 133.779 32.25C134.619 32.09 135.389 31.98 136.089 31.92C136.809 31.84 137.429 31.8 137.949 31.8C138.489 31.78 138.879 31.77 139.119 31.77C140.099 31.79 141.019 31.9 141.879 32.1C142.759 32.28 143.529 32.58 144.189 33C144.849 33.4 145.379 33.93 145.779 34.59C146.179 35.25 146.399 36.05 146.439 36.99V37.74C146.439 38.38 146.329 39.02 146.109 39.66C145.889 40.3 145.599 40.91 145.239 41.49C144.879 42.07 144.469 42.62 144.009 43.14C143.569 43.64 143.129 44.08 142.689 44.46L134.979 50.94C134.879 51.02 134.789 51.1 134.709 51.18C134.629 51.26 134.549 51.35 134.469 51.45C134.329 51.61 134.209 51.79 134.109 51.99C134.009 52.17 133.959 52.37 133.959 52.59V53.37C133.959 53.49 134.039 53.55 134.199 53.55H146.829V55.77C146.829 55.93 146.769 56.07 146.649 56.19C146.549 56.33 146.429 56.4 146.289 56.4H131.559C131.279 56.4 131.009 56.28 130.749 56.04C130.509 55.8 130.389 55.51 130.389 55.17V52.56C130.389 52.08 130.479 51.64 130.659 51.24C130.859 50.82 131.079 50.46 131.319 50.16C131.579 49.82 131.899 49.49 132.279 49.17L139.989 42.66C140.369 42.34 140.739 42 141.099 41.64C141.459 41.26 141.779 40.87 142.059 40.47C142.339 40.05 142.559 39.62 142.719 39.18C142.899 38.72 142.989 38.26 142.989 37.8V37.32Z" fill="#252C44"/>
<line x1="85.5" y1="96" x2="85.5" y2="674" stroke="#F2F2F2"/>
<line x1="170.5" y1="96" x2="170.5" y2="674" stroke="#F2F2F2"/>
<line x1="255.5" y1="96" x2="255.5" y2="674" stroke="#F2F2F2"/>
<line x1="340.5" y1="96" x2="340.5" y2="674" stroke="#F2F2F2"/>
<line x1="425.5" y1="96" x2="425.5" y2="674" stroke="#F2F2F2"/>
<line x1="510.5" y1="96" x2="510.5" y2="674" stroke="#F2F2F2"/>
<path d="M39.296 95.384C39.296 95.6827 39.3473 95.958 39.45 96.21C39.5527 96.4527 39.688 96.6627 39.856 96.84C40.0333 97.008 40.2387 97.1387 40.472 97.232C40.7147 97.3253 40.976 97.372 41.256 97.372C41.564 97.372 41.8393 97.316 42.082 97.204C42.3247 97.092 42.5253 96.9473 42.684 96.77C42.852 96.5833 42.978 96.3733 43.062 96.14C43.146 95.8973 43.188 95.6453 43.188 95.384C43.188 95.132 43.1413 94.894 43.048 94.67C42.9547 94.4367 42.824 94.236 42.656 94.068C42.488 93.9 42.2827 93.7647 42.04 93.662C41.8067 93.5593 41.5453 93.508 41.256 93.508C40.948 93.508 40.6727 93.564 40.43 93.676C40.1873 93.7787 39.982 93.9187 39.814 94.096C39.646 94.2733 39.5153 94.474 39.422 94.698C39.338 94.922 39.296 95.1507 39.296 95.384ZM37.714 95.398C37.714 94.9033 37.8027 94.46 37.98 94.068C38.1667 93.6667 38.4187 93.326 38.736 93.046C39.0627 92.766 39.4407 92.5513 39.87 92.402C40.2993 92.2527 40.7613 92.178 41.256 92.178C41.7507 92.178 42.208 92.2527 42.628 92.402C43.0573 92.5513 43.426 92.766 43.734 93.046C44.0513 93.326 44.2987 93.6667 44.476 94.068C44.6627 94.46 44.7607 94.9033 44.77 95.398C44.7793 95.8647 44.6953 96.3033 44.518 96.714C44.3407 97.1153 44.0887 97.4653 43.762 97.764C43.4447 98.0533 43.0713 98.282 42.642 98.45C42.2127 98.618 41.7507 98.702 41.256 98.702C40.78 98.702 40.3273 98.6273 39.898 98.478C39.4687 98.3193 39.0907 98.0953 38.764 97.806C38.4467 97.5167 38.19 97.1713 37.994 96.77C37.8073 96.3593 37.714 95.902 37.714 95.398ZM46.87 98.926V92.08H48.438V98.646C48.438 98.7207 48.41 98.786 48.354 98.842C48.298 98.898 48.2327 98.926 48.158 98.926H46.87ZM48.606 105.24C48.606 105.315 48.578 105.38 48.522 105.436C48.466 105.492 48.4007 105.52 48.326 105.52H40.318C39.7487 105.52 39.464 105.24 39.464 104.68V101.922H46.59C46.6833 101.922 46.73 101.875 46.73 101.782V100.9H39.464V99.612H48.312V102.328C48.312 102.589 48.228 102.795 48.06 102.944C47.9013 103.093 47.7007 103.168 47.458 103.168H41.088V104.092C41.088 104.185 41.1347 104.232 41.228 104.232H48.606V105.24Z" fill="#FF2C2C"/>
<path d="M129.794 94.208C129.794 94.6 129.696 94.936 129.5 95.216C129.314 95.4867 129.057 95.7153 128.73 95.902C128.413 96.0793 128.04 96.21 127.61 96.294C127.181 96.378 126.728 96.42 126.252 96.42C125.776 96.42 125.324 96.378 124.894 96.294C124.465 96.21 124.087 96.0793 123.76 95.902C123.443 95.7153 123.186 95.4867 122.99 95.216C122.804 94.936 122.71 94.6 122.71 94.208C122.71 93.8253 122.804 93.494 122.99 93.214C123.186 92.934 123.443 92.7053 123.76 92.528C124.087 92.3507 124.465 92.22 124.894 92.136C125.324 92.052 125.776 92.01 126.252 92.01C126.728 92.01 127.181 92.052 127.61 92.136C128.04 92.22 128.413 92.3507 128.73 92.528C129.057 92.7053 129.314 92.934 129.5 93.214C129.696 93.494 129.794 93.8253 129.794 94.208ZM124.222 94.208C124.222 94.544 124.395 94.8007 124.74 94.978C125.086 95.1553 125.594 95.244 126.266 95.244C126.91 95.244 127.405 95.1553 127.75 94.978C128.105 94.8007 128.282 94.544 128.282 94.208C128.282 93.8813 128.105 93.6293 127.75 93.452C127.405 93.2747 126.91 93.186 126.266 93.186C125.594 93.186 125.086 93.2747 124.74 93.452C124.395 93.6293 124.222 93.8813 124.222 94.208ZM131.698 92.08H133.28V99.836C133.28 99.9107 133.252 99.976 133.196 100.032C133.14 100.088 133.075 100.116 133 100.116H131.698V99.64H127.834V98.464H131.698V92.08ZM122.122 96.882H126.616C127.494 96.882 128.315 96.84 129.08 96.756C129.855 96.6627 130.522 96.5507 131.082 96.42V97.4C131.082 97.5213 131.017 97.6053 130.886 97.652C130.634 97.7453 130.331 97.82 129.976 97.876C129.622 97.932 129.244 97.9787 128.842 98.016C128.441 98.044 128.035 98.0627 127.624 98.072C127.214 98.0813 126.822 98.086 126.448 98.086V99.766C126.448 99.8407 126.42 99.906 126.364 99.962C126.308 100.018 126.243 100.046 126.168 100.046H124.852V98.086H122.122V96.882ZM133.602 105.24C133.602 105.315 133.574 105.38 133.518 105.436C133.462 105.492 133.397 105.52 133.322 105.52H125.188C124.619 105.52 124.334 105.24 124.334 104.68V102.468H131.572C131.666 102.468 131.712 102.421 131.712 102.328V101.796H124.348V100.578H133.28V102.804C133.28 103.065 133.196 103.271 133.028 103.42C132.87 103.569 132.669 103.644 132.426 103.644H125.93V104.162C125.93 104.255 125.977 104.302 126.07 104.302H133.602V105.24Z" fill="#252C44"/>
<path d="M0 124H596" stroke="#A4A4A4"/>
<path d="M0 234H596" stroke="#A4A4A4"/>
<path d="M0 344H596" stroke="#A4A4A4"/>
<line y1="453.5" x2="596" y2="453.5" stroke="#A4A4A4"/>
<line y1="563.5" x2="596" y2="563.5" stroke="#A4A4A4"/>
<path d="M206.464 101.74H210.034V100.326C209.652 100.261 209.297 100.153 208.97 100.004C208.644 99.8547 208.359 99.668 208.116 99.444C207.883 99.22 207.701 98.9633 207.57 98.674C207.44 98.3753 207.374 98.0487 207.374 97.694C207.374 97.2833 207.463 96.91 207.64 96.574C207.827 96.238 208.074 95.9533 208.382 95.72C208.7 95.4867 209.068 95.3093 209.488 95.188C209.918 95.0573 210.38 94.992 210.874 94.992C211.378 94.992 211.845 95.0573 212.274 95.188C212.704 95.3093 213.072 95.4867 213.38 95.72C213.698 95.9533 213.945 96.238 214.122 96.574C214.3 96.91 214.388 97.2833 214.388 97.694C214.388 98.058 214.318 98.3893 214.178 98.688C214.048 98.9867 213.861 99.248 213.618 99.472C213.376 99.696 213.082 99.8827 212.736 100.032C212.4 100.181 212.032 100.284 211.63 100.34V101.726C212.097 101.707 212.517 101.684 212.89 101.656C213.264 101.619 213.604 101.581 213.912 101.544C214.22 101.507 214.5 101.465 214.752 101.418C215.004 101.371 215.242 101.325 215.466 101.278V102.384C215.466 102.459 215.438 102.519 215.382 102.566C215.326 102.613 215.261 102.645 215.186 102.664C214.888 102.757 214.514 102.832 214.066 102.888C213.628 102.935 213.152 102.972 212.638 103C212.134 103.028 211.612 103.042 211.07 103.042C210.529 103.051 210.006 103.056 209.502 103.056H206.464V101.74ZM219.442 98.478H217.65V105.128C217.65 105.203 217.622 105.268 217.566 105.324C217.51 105.38 217.445 105.408 217.37 105.408H216.04V92.08H217.65V97.148H219.442V98.478ZM214.892 94.74H206.772V93.382H210.034V91.912H211.644V93.382H214.892V94.74ZM208.9 97.694C208.9 98.142 209.082 98.492 209.446 98.744C209.81 98.996 210.286 99.122 210.874 99.122C211.49 99.122 211.98 98.996 212.344 98.744C212.708 98.492 212.89 98.142 212.89 97.694C212.89 97.246 212.708 96.896 212.344 96.644C211.98 96.392 211.49 96.266 210.874 96.266C210.286 96.266 209.81 96.392 209.446 96.644C209.082 96.896 208.9 97.246 208.9 97.694Z" fill="#252C44"/>
<path d="M298.828 93.69C298.828 93.942 298.912 94.1987 299.08 94.46C299.258 94.712 299.482 94.9593 299.752 95.202C300.032 95.4447 300.345 95.678 300.69 95.902C301.045 96.1167 301.4 96.3127 301.754 96.49C302.118 96.6673 302.468 96.8213 302.804 96.952C303.14 97.0827 303.43 97.1807 303.672 97.246L302.678 98.324C302.324 98.2307 301.927 98.0907 301.488 97.904C301.05 97.708 300.616 97.484 300.186 97.232C299.757 96.98 299.351 96.714 298.968 96.434C298.586 96.1447 298.268 95.8553 298.016 95.566C297.755 95.846 297.438 96.126 297.064 96.406C296.691 96.6767 296.29 96.938 295.86 97.19C295.44 97.4327 295.011 97.6567 294.572 97.862C294.143 98.058 293.742 98.2167 293.368 98.338L292.318 97.246C292.598 97.162 292.916 97.05 293.27 96.91C293.625 96.77 293.984 96.6113 294.348 96.434C294.712 96.2567 295.067 96.0607 295.412 95.846C295.758 95.6313 296.066 95.4073 296.336 95.174C296.607 94.9407 296.822 94.698 296.98 94.446C297.148 94.194 297.232 93.942 297.232 93.69V92.29H298.828V93.69ZM304.302 99.402V100.466C304.302 100.541 304.274 100.606 304.218 100.662C304.162 100.718 304.097 100.746 304.022 100.746H298.828V105.128C298.828 105.203 298.8 105.268 298.744 105.324C298.688 105.38 298.623 105.408 298.548 105.408H297.218V100.746H291.702V99.402H304.302Z" fill="#252C44"/>
<path d="M387.594 96.35C387.594 96.5927 387.506 96.798 387.328 96.966C387.16 97.1247 386.96 97.204 386.726 97.204H383.828V98.464H389.302V99.5C389.302 99.5747 389.274 99.64 389.218 99.696C389.162 99.752 389.097 99.78 389.022 99.78H376.688V98.464H382.232V97.204H379.362C379.138 97.204 378.938 97.1247 378.76 96.966C378.592 96.798 378.508 96.5927 378.508 96.35V92.192H387.594V96.35ZM387.594 105.128C387.594 105.203 387.566 105.268 387.51 105.324C387.454 105.38 387.389 105.408 387.314 105.408H386.012V102.132C386.012 102.039 385.966 101.992 385.872 101.992H378.382V100.69H386.74C386.974 100.69 387.174 100.769 387.342 100.928C387.51 101.087 387.594 101.287 387.594 101.53V105.128ZM385.872 95.958C385.966 95.958 386.012 95.9113 386.012 95.818V93.452H380.062V95.818C380.062 95.9113 380.109 95.958 380.202 95.958H385.872Z" fill="#252C44"/>
<path d="M463.48 100.158H472.58V104.61C472.58 104.853 472.496 105.053 472.328 105.212C472.17 105.371 471.969 105.45 471.726 105.45H464.334C464.12 105.45 463.924 105.375 463.746 105.226C463.569 105.077 463.48 104.871 463.48 104.61V100.158ZM461.688 98.856V97.554H470.494C470.56 97.3673 470.625 97.1573 470.69 96.924C470.756 96.6907 470.812 96.448 470.858 96.196C470.905 95.944 470.942 95.692 470.97 95.44C471.008 95.1787 471.026 94.936 471.026 94.712V93.76C471.026 93.6667 470.98 93.62 470.886 93.62H463.368V92.332H471.754C471.988 92.332 472.188 92.4113 472.356 92.57C472.524 92.7287 472.608 92.9293 472.608 93.172V94.642C472.608 95.09 472.557 95.5847 472.454 96.126C472.352 96.658 472.207 97.134 472.02 97.554H474.302V98.576C474.302 98.6507 474.274 98.716 474.218 98.772C474.162 98.828 474.097 98.856 474.022 98.856H461.688ZM470.886 104.148C470.98 104.148 471.026 104.101 471.026 104.008V101.446H465.02V104.008C465.02 104.101 465.067 104.148 465.16 104.148H470.886Z" fill="#252C44"/>
<path d="M548.298 93.592C548.298 93.3493 548.378 93.1487 548.536 92.99C548.704 92.8313 548.91 92.752 549.152 92.752H557.608V94.096H550.09C549.997 94.096 549.95 94.1427 549.95 94.236V95.706H557.398V97.008H549.95V98.562C549.95 98.6553 549.997 98.702 550.09 98.702H557.734V100.06H553.87V102.37H559.302V103.434C559.293 103.555 559.251 103.63 559.176 103.658C559.111 103.695 559.06 103.714 559.022 103.714H546.702V102.37H552.26V100.06H549.152C548.91 100.06 548.704 99.9807 548.536 99.822C548.378 99.654 548.298 99.4533 548.298 99.22V93.592Z" fill="#5D3FE8"/>
<path d="M94.01 138.82V131.79C94.01 131.71 93.96 131.67 93.86 131.67H92.71V130.7H94.55C94.73 130.7 94.87 130.747 94.97 130.84C95.0767 130.927 95.13 131.057 95.13 131.23V138.58C95.13 138.64 95.1133 138.693 95.08 138.74C95.0467 138.793 94.9833 138.82 94.89 138.82H94.01Z" fill="#252C44"/>
<path d="M180.67 132.44C180.657 132.273 180.61 132.137 180.53 132.03C180.45 131.917 180.347 131.83 180.22 131.77C180.1 131.703 179.967 131.657 179.82 131.63C179.673 131.603 179.53 131.587 179.39 131.58C179.297 131.58 179.157 131.583 178.97 131.59C178.79 131.597 178.58 131.613 178.34 131.64C178.107 131.667 177.853 131.707 177.58 131.76C177.307 131.807 177.033 131.873 176.76 131.96V130.96C177.04 130.867 177.32 130.797 177.6 130.75C177.88 130.697 178.137 130.66 178.37 130.64C178.61 130.613 178.817 130.6 178.99 130.6C179.17 130.593 179.3 130.59 179.38 130.59C179.707 130.597 180.013 130.633 180.3 130.7C180.593 130.76 180.85 130.86 181.07 131C181.29 131.133 181.467 131.31 181.6 131.53C181.733 131.75 181.807 132.017 181.82 132.33V132.58C181.82 132.793 181.783 133.007 181.71 133.22C181.637 133.433 181.54 133.637 181.42 133.83C181.3 134.023 181.163 134.207 181.01 134.38C180.863 134.547 180.717 134.693 180.57 134.82L178 136.98C177.967 137.007 177.937 137.033 177.91 137.06C177.883 137.087 177.857 137.117 177.83 137.15C177.783 137.203 177.743 137.263 177.71 137.33C177.677 137.39 177.66 137.457 177.66 137.53V137.79C177.66 137.83 177.687 137.85 177.74 137.85H181.95V138.59C181.95 138.643 181.93 138.69 181.89 138.73C181.857 138.777 181.817 138.8 181.77 138.8H176.86C176.767 138.8 176.677 138.76 176.59 138.68C176.51 138.6 176.47 138.503 176.47 138.39V137.52C176.47 137.36 176.5 137.213 176.56 137.08C176.627 136.94 176.7 136.82 176.78 136.72C176.867 136.607 176.973 136.497 177.1 136.39L179.67 134.22C179.797 134.113 179.92 134 180.04 133.88C180.16 133.753 180.267 133.623 180.36 133.49C180.453 133.35 180.527 133.207 180.58 133.06C180.64 132.907 180.67 132.753 180.67 132.6V132.44Z" fill="#252C44"/>
<path d="M265.75 136.22C265.75 136.013 265.7 135.83 265.6 135.67C265.5 135.51 265.363 135.377 265.19 135.27C265.017 135.163 264.81 135.083 264.57 135.03C264.337 134.977 264.087 134.95 263.82 134.95H262.11V133.98H263.88C264.087 133.98 264.287 133.957 264.48 133.91C264.68 133.863 264.857 133.793 265.01 133.7C265.163 133.6 265.287 133.477 265.38 133.33C265.473 133.177 265.52 132.993 265.52 132.78V132.59C265.52 132.403 265.463 132.243 265.35 132.11C265.243 131.977 265.103 131.867 264.93 131.78C264.763 131.693 264.573 131.633 264.36 131.6C264.153 131.56 263.953 131.54 263.76 131.54C263.527 131.54 263.29 131.557 263.05 131.59C262.81 131.623 262.59 131.66 262.39 131.7C262.277 131.727 262.163 131.753 262.05 131.78C261.937 131.8 261.823 131.827 261.71 131.86V130.9C262.143 130.793 262.537 130.717 262.89 130.67C263.25 130.623 263.647 130.607 264.08 130.62C264.427 130.64 264.757 130.687 265.07 130.76C265.383 130.833 265.657 130.943 265.89 131.09C266.13 131.23 266.317 131.417 266.45 131.65C266.59 131.883 266.66 132.17 266.66 132.51V132.88C266.66 133.033 266.63 133.187 266.57 133.34C266.51 133.493 266.43 133.637 266.33 133.77C266.23 133.897 266.117 134.013 265.99 134.12C265.87 134.22 265.747 134.3 265.62 134.36C265.767 134.427 265.913 134.513 266.06 134.62C266.213 134.72 266.347 134.847 266.46 135C266.58 135.147 266.677 135.317 266.75 135.51C266.823 135.703 266.86 135.923 266.86 136.17V136.55C266.86 137.003 266.77 137.383 266.59 137.69C266.417 137.99 266.183 138.233 265.89 138.42C265.603 138.607 265.277 138.737 264.91 138.81C264.543 138.89 264.173 138.93 263.8 138.93C263.513 138.93 263.237 138.913 262.97 138.88C262.71 138.847 262.477 138.807 262.27 138.76C262.15 138.733 262.033 138.707 261.92 138.68C261.807 138.653 261.697 138.623 261.59 138.59V137.59C261.683 137.623 261.777 137.653 261.87 137.68C261.97 137.707 262.077 137.733 262.19 137.76C262.383 137.807 262.61 137.847 262.87 137.88C263.13 137.913 263.42 137.93 263.74 137.93C263.98 137.93 264.217 137.903 264.45 137.85C264.69 137.79 264.907 137.703 265.1 137.59C265.293 137.47 265.45 137.323 265.57 137.15C265.69 136.97 265.75 136.76 265.75 136.52V136.22Z" fill="#252C44"/>
<path d="M351.19 136.59H352.18V137.56H351.19V138.85H350.11V137.57H346.67C346.557 137.57 346.463 137.533 346.39 137.46C346.317 137.38 346.28 137.283 346.28 137.17V136.26C346.28 136.12 346.293 136.01 346.32 135.93C346.347 135.843 346.4 135.74 346.48 135.62L349.91 130.65H351.19V136.59ZM347.37 136.53C347.37 136.577 347.407 136.6 347.48 136.6H350.11V132.1L347.44 135.88C347.393 135.947 347.37 136.02 347.37 136.1V136.53Z" fill="#252C44"/>
<path d="M435.78 136.23C435.793 135.73 435.653 135.38 435.36 135.18C435.067 134.973 434.65 134.863 434.11 134.85H432.13C432.023 134.85 431.93 134.813 431.85 134.74C431.777 134.667 431.74 134.573 431.74 134.46V130.7H436.57V131.67H432.84V133.8C432.84 133.887 432.883 133.93 432.97 133.93H434.12C434.527 133.93 434.9 133.97 435.24 134.05C435.58 134.13 435.873 134.26 436.12 134.44C436.367 134.613 436.557 134.84 436.69 135.12C436.823 135.4 436.89 135.74 436.89 136.14V136.55C436.89 136.963 436.807 137.317 436.64 137.61C436.473 137.897 436.247 138.13 435.96 138.31C435.68 138.497 435.353 138.63 434.98 138.71C434.607 138.797 434.213 138.84 433.8 138.84C433.473 138.84 433.143 138.817 432.81 138.77C432.483 138.73 432.14 138.673 431.78 138.6V137.58C432.1 137.653 432.423 137.723 432.75 137.79C433.077 137.85 433.423 137.877 433.79 137.87C434.05 137.87 434.297 137.85 434.53 137.81C434.763 137.763 434.97 137.687 435.15 137.58C435.33 137.473 435.473 137.333 435.58 137.16C435.693 136.987 435.757 136.773 435.77 136.52L435.78 136.23Z" fill="#252C44"/>
<path d="M521.88 136.48C521.88 136.907 521.83 137.27 521.73 137.57C521.637 137.87 521.483 138.113 521.27 138.3C521.063 138.487 520.793 138.623 520.46 138.71C520.127 138.797 519.723 138.84 519.25 138.84C518.797 138.84 518.4 138.807 518.06 138.74C517.727 138.68 517.45 138.567 517.23 138.4C517.01 138.24 516.847 138.02 516.74 137.74C516.633 137.453 516.58 137.093 516.58 136.66V133.02C516.58 132.573 516.64 132.2 516.76 131.9C516.887 131.593 517.07 131.347 517.31 131.16C517.55 130.973 517.843 130.84 518.19 130.76C518.537 130.68 518.93 130.64 519.37 130.64C519.75 130.64 520.117 130.667 520.47 130.72C520.83 130.773 521.18 130.84 521.52 130.92V131.91C521.2 131.83 520.873 131.767 520.54 131.72C520.213 131.667 519.87 131.633 519.51 131.62C519.19 131.627 518.917 131.647 518.69 131.68C518.463 131.713 518.277 131.78 518.13 131.88C517.99 131.973 517.883 132.11 517.81 132.29C517.743 132.463 517.71 132.697 517.71 132.99L517.74 133.88C518.04 133.76 518.343 133.687 518.65 133.66C518.957 133.633 519.26 133.62 519.56 133.62C520.367 133.62 520.953 133.817 521.32 134.21C521.693 134.603 521.88 135.193 521.88 135.98V136.48ZM520.78 135.97C520.78 135.703 520.753 135.48 520.7 135.3C520.647 135.12 520.557 134.977 520.43 134.87C520.31 134.763 520.153 134.69 519.96 134.65C519.767 134.603 519.53 134.58 519.25 134.58C518.95 134.58 518.7 134.6 518.5 134.64C518.3 134.673 518.14 134.737 518.02 134.83C517.907 134.923 517.827 135.053 517.78 135.22C517.733 135.387 517.71 135.6 517.71 135.86V136.56C517.717 136.84 517.747 137.07 517.8 137.25C517.853 137.423 517.94 137.56 518.06 137.66C518.18 137.753 518.34 137.817 518.54 137.85C518.74 137.883 518.99 137.9 519.29 137.9C519.55 137.9 519.773 137.88 519.96 137.84C520.147 137.8 520.3 137.727 520.42 137.62C520.547 137.513 520.637 137.37 520.69 137.19C520.75 137.003 520.78 136.767 520.78 136.48V135.97Z" fill="#252C44"/>
<path d="M94.01 578.82V571.79C94.01 571.71 93.96 571.67 93.86 571.67H92.71V570.7H94.55C94.73 570.7 94.87 570.747 94.97 570.84C95.0767 570.927 95.13 571.057 95.13 571.23V578.58C95.13 578.64 95.1133 578.693 95.08 578.74C95.0467 578.793 94.9833 578.82 94.89 578.82H94.01Z" fill="#9AA1BC"/>
<path d="M180.67 572.44C180.657 572.273 180.61 572.137 180.53 572.03C180.45 571.917 180.347 571.83 180.22 571.77C180.1 571.703 179.967 571.657 179.82 571.63C179.673 571.603 179.53 571.587 179.39 571.58C179.297 571.58 179.157 571.583 178.97 571.59C178.79 571.597 178.58 571.613 178.34 571.64C178.107 571.667 177.853 571.707 177.58 571.76C177.307 571.807 177.033 571.873 176.76 571.96V570.96C177.04 570.867 177.32 570.797 177.6 570.75C177.88 570.697 178.137 570.66 178.37 570.64C178.61 570.613 178.817 570.6 178.99 570.6C179.17 570.593 179.3 570.59 179.38 570.59C179.707 570.597 180.013 570.633 180.3 570.7C180.593 570.76 180.85 570.86 181.07 571C181.29 571.133 181.467 571.31 181.6 571.53C181.733 571.75 181.807 572.017 181.82 572.33V572.58C181.82 572.793 181.783 573.007 181.71 573.22C181.637 573.433 181.54 573.637 181.42 573.83C181.3 574.023 181.163 574.207 181.01 574.38C180.863 574.547 180.717 574.693 180.57 574.82L178 576.98C177.967 577.007 177.937 577.033 177.91 577.06C177.883 577.087 177.857 577.117 177.83 577.15C177.783 577.203 177.743 577.263 177.71 577.33C177.677 577.39 177.66 577.457 177.66 577.53V577.79C177.66 577.83 177.687 577.85 177.74 577.85H181.95V578.59C181.95 578.643 181.93 578.69 181.89 578.73C181.857 578.777 181.817 578.8 181.77 578.8H176.86C176.767 578.8 176.677 578.76 176.59 578.68C176.51 578.6 176.47 578.503 176.47 578.39V577.52C176.47 577.36 176.5 577.213 176.56 577.08C176.627 576.94 176.7 576.82 176.78 576.72C176.867 576.607 176.973 576.497 177.1 576.39L179.67 574.22C179.797 574.113 179.92 574 180.04 573.88C180.16 573.753 180.267 573.623 180.36 573.49C180.453 573.35 180.527 573.207 180.58 573.06C180.64 572.907 180.67 572.753 180.67 572.6V572.44Z" fill="#9AA1BC"/>
<path d="M265.75 576.22C265.75 576.013 265.7 575.83 265.6 575.67C265.5 575.51 265.363 575.377 265.19 575.27C265.017 575.163 264.81 575.083 264.57 575.03C264.337 574.977 264.087 574.95 263.82 574.95H262.11V573.98H263.88C264.087 573.98 264.287 573.957 264.48 573.91C264.68 573.863 264.857 573.793 265.01 573.7C265.163 573.6 265.287 573.477 265.38 573.33C265.473 573.177 265.52 572.993 265.52 572.78V572.59C265.52 572.403 265.463 572.243 265.35 572.11C265.243 571.977 265.103 571.867 264.93 571.78C264.763 571.693 264.573 571.633 264.36 571.6C264.153 571.56 263.953 571.54 263.76 571.54C263.527 571.54 263.29 571.557 263.05 571.59C262.81 571.623 262.59 571.66 262.39 571.7C262.277 571.727 262.163 571.753 262.05 571.78C261.937 571.8 261.823 571.827 261.71 571.86V570.9C262.143 570.793 262.537 570.717 262.89 570.67C263.25 570.623 263.647 570.607 264.08 570.62C264.427 570.64 264.757 570.687 265.07 570.76C265.383 570.833 265.657 570.943 265.89 571.09C266.13 571.23 266.317 571.417 266.45 571.65C266.59 571.883 266.66 572.17 266.66 572.51V572.88C266.66 573.033 266.63 573.187 266.57 573.34C266.51 573.493 266.43 573.637 266.33 573.77C266.23 573.897 266.117 574.013 265.99 574.12C265.87 574.22 265.747 574.3 265.62 574.36C265.767 574.427 265.913 574.513 266.06 574.62C266.213 574.72 266.347 574.847 266.46 575C266.58 575.147 266.677 575.317 266.75 575.51C266.823 575.703 266.86 575.923 266.86 576.17V576.55C266.86 577.003 266.77 577.383 266.59 577.69C266.417 577.99 266.183 578.233 265.89 578.42C265.603 578.607 265.277 578.737 264.91 578.81C264.543 578.89 264.173 578.93 263.8 578.93C263.513 578.93 263.237 578.913 262.97 578.88C262.71 578.847 262.477 578.807 262.27 578.76C262.15 578.733 262.033 578.707 261.92 578.68C261.807 578.653 261.697 578.623 261.59 578.59V577.59C261.683 577.623 261.777 577.653 261.87 577.68C261.97 577.707 262.077 577.733 262.19 577.76C262.383 577.807 262.61 577.847 262.87 577.88C263.13 577.913 263.42 577.93 263.74 577.93C263.98 577.93 264.217 577.903 264.45 577.85C264.69 577.79 264.907 577.703 265.1 577.59C265.293 577.47 265.45 577.323 265.57 577.15C265.69 576.97 265.75 576.76 265.75 576.52V576.22Z" fill="#9AA1BC"/>
<path d="M351.19 576.59H352.18V577.56H351.19V578.85H350.11V577.57H346.67C346.557 577.57 346.463 577.533 346.39 577.46C346.317 577.38 346.28 577.283 346.28 577.17V576.26C346.28 576.12 346.293 576.01 346.32 575.93C346.347 575.843 346.4 575.74 346.48 575.62L349.91 570.65H351.19V576.59ZM347.37 576.53C347.37 576.577 347.407 576.6 347.48 576.6H350.11V572.1L347.44 575.88C347.393 575.947 347.37 576.02 347.37 576.1V576.53Z" fill="#9AA1BC"/>
<path d="M435.78 576.23C435.793 575.73 435.653 575.38 435.36 575.18C435.067 574.973 434.65 574.863 434.11 574.85H432.13C432.023 574.85 431.93 574.813 431.85 574.74C431.777 574.667 431.74 574.573 431.74 574.46V570.7H436.57V571.67H432.84V573.8C432.84 573.887 432.883 573.93 432.97 573.93H434.12C434.527 573.93 434.9 573.97 435.24 574.05C435.58 574.13 435.873 574.26 436.12 574.44C436.367 574.613 436.557 574.84 436.69 575.12C436.823 575.4 436.89 575.74 436.89 576.14V576.55C436.89 576.963 436.807 577.317 436.64 577.61C436.473 577.897 436.247 578.13 435.96 578.31C435.68 578.497 435.353 578.63 434.98 578.71C434.607 578.797 434.213 578.84 433.8 578.84C433.473 578.84 433.143 578.817 432.81 578.77C432.483 578.73 432.14 578.673 431.78 578.6V577.58C432.1 577.653 432.423 577.723 432.75 577.79C433.077 577.85 433.423 577.877 433.79 577.87C434.05 577.87 434.297 577.85 434.53 577.81C434.763 577.763 434.97 577.687 435.15 577.58C435.33 577.473 435.473 577.333 435.58 577.16C435.693 576.987 435.757 576.773 435.77 576.52L435.78 576.23Z" fill="#9AA1BC"/>
<path d="M521.88 576.48C521.88 576.907 521.83 577.27 521.73 577.57C521.637 577.87 521.483 578.113 521.27 578.3C521.063 578.487 520.793 578.623 520.46 578.71C520.127 578.797 519.723 578.84 519.25 578.84C518.797 578.84 518.4 578.807 518.06 578.74C517.727 578.68 517.45 578.567 517.23 578.4C517.01 578.24 516.847 578.02 516.74 577.74C516.633 577.453 516.58 577.093 516.58 576.66V573.02C516.58 572.573 516.64 572.2 516.76 571.9C516.887 571.593 517.07 571.347 517.31 571.16C517.55 570.973 517.843 570.84 518.19 570.76C518.537 570.68 518.93 570.64 519.37 570.64C519.75 570.64 520.117 570.667 520.47 570.72C520.83 570.773 521.18 570.84 521.52 570.92V571.91C521.2 571.83 520.873 571.767 520.54 571.72C520.213 571.667 519.87 571.633 519.51 571.62C519.19 571.627 518.917 571.647 518.69 571.68C518.463 571.713 518.277 571.78 518.13 571.88C517.99 571.973 517.883 572.11 517.81 572.29C517.743 572.463 517.71 572.697 517.71 572.99L517.74 573.88C518.04 573.76 518.343 573.687 518.65 573.66C518.957 573.633 519.26 573.62 519.56 573.62C520.367 573.62 520.953 573.817 521.32 574.21C521.693 574.603 521.88 575.193 521.88 575.98V576.48ZM520.78 575.97C520.78 575.703 520.753 575.48 520.7 575.3C520.647 575.12 520.557 574.977 520.43 574.87C520.31 574.763 520.153 574.69 519.96 574.65C519.767 574.603 519.53 574.58 519.25 574.58C518.95 574.58 518.7 574.6 518.5 574.64C518.3 574.673 518.14 574.737 518.02 574.83C517.907 574.923 517.827 575.053 517.78 575.22C517.733 575.387 517.71 575.6 517.71 575.86V576.56C517.717 576.84 517.747 577.07 517.8 577.25C517.853 577.423 517.94 577.56 518.06 577.66C518.18 577.753 518.34 577.817 518.54 577.85C518.74 577.883 518.99 577.9 519.29 577.9C519.55 577.9 519.773 577.88 519.96 577.84C520.147 577.8 520.3 577.727 520.42 577.62C520.547 577.513 520.637 577.37 520.69 577.19C520.75 577.003 520.78 576.767 520.78 576.48V575.97Z" fill="#9AA1BC"/>
<path d="M7.29 248.8L10.53 241.76C10.5633 241.68 10.5367 241.64 10.45 241.64H6.59V240.68H11.77V241.36C11.77 241.433 11.7533 241.523 11.72 241.63C11.6867 241.73 11.6533 241.817 11.62 241.89L8.54 248.66C8.48667 248.753 8.40667 248.8 8.3 248.8H7.29Z" fill="#252C44"/>
<path d="M94.21 248.96C93.77 248.96 93.3733 248.92 93.02 248.84C92.6667 248.767 92.3633 248.643 92.11 248.47C91.8633 248.297 91.67 248.067 91.53 247.78C91.3967 247.487 91.33 247.127 91.33 246.7V246.43C91.33 246.23 91.35 246.03 91.39 245.83C91.43 245.623 91.4933 245.43 91.58 245.25C91.6667 245.063 91.7733 244.893 91.9 244.74C92.0267 244.587 92.18 244.457 92.36 244.35C92.06 244.143 91.85 243.92 91.73 243.68C91.6167 243.433 91.56 243.117 91.56 242.73V242.51C91.56 242.117 91.63 241.79 91.77 241.53C91.9167 241.27 92.11 241.063 92.35 240.91C92.59 240.75 92.8667 240.64 93.18 240.58C93.5 240.513 93.8333 240.48 94.18 240.48C94.54 240.48 94.8767 240.513 95.19 240.58C95.51 240.647 95.79 240.757 96.03 240.91C96.27 241.063 96.46 241.267 96.6 241.52C96.74 241.767 96.81 242.073 96.81 242.44V242.76C96.81 243.107 96.75 243.42 96.63 243.7C96.5167 243.98 96.3167 244.207 96.03 244.38H96.04C96.2067 244.48 96.3533 244.603 96.48 244.75C96.6067 244.89 96.7133 245.047 96.8 245.22C96.8867 245.387 96.9533 245.563 97 245.75C97.0467 245.937 97.07 246.12 97.07 246.3V246.71C97.07 247.157 96.9933 247.527 96.84 247.82C96.6933 248.107 96.49 248.333 96.23 248.5C95.97 248.673 95.6667 248.793 95.32 248.86C94.9733 248.927 94.6033 248.96 94.21 248.96ZM94.18 244.88C93.5533 244.88 93.1133 245.007 92.86 245.26C92.6133 245.513 92.49 245.903 92.49 246.43V246.67C92.49 246.943 92.5367 247.163 92.63 247.33C92.7233 247.497 92.8467 247.63 93 247.73C93.16 247.823 93.3433 247.887 93.55 247.92C93.7567 247.953 93.9733 247.97 94.2 247.97C94.4467 247.97 94.6767 247.95 94.89 247.91C95.1033 247.87 95.2867 247.803 95.44 247.71C95.5933 247.61 95.7133 247.48 95.8 247.32C95.8867 247.153 95.93 246.947 95.93 246.7V246.43C95.93 245.863 95.7867 245.463 95.5 245.23C95.22 244.997 94.78 244.88 94.18 244.88ZM94.16 243.99C94.4467 243.99 94.6867 243.97 94.88 243.93C95.0733 243.89 95.23 243.823 95.35 243.73C95.47 243.63 95.5567 243.503 95.61 243.35C95.6633 243.197 95.69 243.007 95.69 242.78V242.52C95.69 242.293 95.6467 242.113 95.56 241.98C95.4733 241.84 95.3567 241.737 95.21 241.67C95.07 241.597 94.91 241.55 94.73 241.53C94.55 241.503 94.37 241.49 94.19 241.49C93.9833 241.49 93.79 241.503 93.61 241.53C93.43 241.557 93.27 241.61 93.13 241.69C92.9967 241.763 92.89 241.87 92.81 242.01C92.7367 242.143 92.7 242.32 92.7 242.54V242.78C92.7 243.027 92.73 243.23 92.79 243.39C92.8567 243.543 92.95 243.667 93.07 243.76C93.19 243.847 93.34 243.907 93.52 243.94C93.7067 243.973 93.92 243.99 94.16 243.99Z" fill="#252C44"/>
<path d="M176.42 242.99C176.44 242.53 176.503 242.143 176.61 241.83C176.723 241.51 176.887 241.257 177.1 241.07C177.313 240.877 177.583 240.74 177.91 240.66C178.237 240.573 178.627 240.53 179.08 240.53C179.573 240.53 179.993 240.56 180.34 240.62C180.687 240.68 180.97 240.793 181.19 240.96C181.41 241.12 181.57 241.347 181.67 241.64C181.77 241.933 181.82 242.31 181.82 242.77V246.46C181.82 246.92 181.753 247.303 181.62 247.61C181.487 247.917 181.297 248.16 181.05 248.34C180.803 248.527 180.503 248.657 180.15 248.73C179.803 248.803 179.417 248.84 178.99 248.84C178.61 248.84 178.25 248.81 177.91 248.75C177.57 248.69 177.23 248.61 176.89 248.51V247.45C177.23 247.55 177.567 247.64 177.9 247.72C178.233 247.8 178.563 247.84 178.89 247.84C179.183 247.84 179.443 247.823 179.67 247.79C179.903 247.75 180.097 247.68 180.25 247.58C180.403 247.48 180.517 247.343 180.59 247.17C180.67 246.99 180.707 246.763 180.7 246.49L180.67 245.71C180.037 245.91 179.407 245.99 178.78 245.95C178.46 245.93 178.157 245.887 177.87 245.82C177.59 245.747 177.34 245.623 177.12 245.45C176.907 245.277 176.737 245.04 176.61 244.74C176.483 244.433 176.42 244.037 176.42 243.55V242.99ZM177.56 243.53C177.56 243.83 177.593 244.077 177.66 244.27C177.727 244.463 177.823 244.613 177.95 244.72C178.083 244.827 178.243 244.9 178.43 244.94C178.623 244.98 178.84 245 179.08 245C179.4 245 179.663 244.98 179.87 244.94C180.083 244.9 180.25 244.83 180.37 244.73C180.497 244.623 180.583 244.483 180.63 244.31C180.677 244.13 180.7 243.903 180.7 243.63V242.9C180.7 242.613 180.67 242.38 180.61 242.2C180.55 242.02 180.453 241.88 180.32 241.78C180.187 241.673 180.013 241.6 179.8 241.56C179.593 241.52 179.337 241.5 179.03 241.5C178.723 241.5 178.473 241.533 178.28 241.6C178.093 241.66 177.947 241.753 177.84 241.88C177.733 242 177.66 242.153 177.62 242.34C177.58 242.52 177.56 242.733 177.56 242.98V243.53Z" fill="#252C44"/>
<path d="M264.01 248.82V241.79C264.01 241.71 263.96 241.67 263.86 241.67H262.71V240.7H264.55C264.73 240.7 264.87 240.747 264.97 240.84C265.077 240.927 265.13 241.057 265.13 241.23V248.58C265.13 248.64 265.113 248.693 265.08 248.74C265.047 248.793 264.983 248.82 264.89 248.82H264.01ZM270.537 240.63C271.037 240.63 271.47 240.717 271.837 240.89C272.203 241.057 272.503 241.297 272.737 241.61C272.977 241.917 273.153 242.29 273.267 242.73C273.387 243.163 273.447 243.647 273.447 244.18V245.65C273.44 246.163 273.383 246.63 273.277 247.05C273.17 247.463 273 247.817 272.767 248.11C272.54 248.403 272.247 248.63 271.887 248.79C271.527 248.95 271.09 249.03 270.577 249.03C270.103 249.03 269.687 248.953 269.327 248.8C268.973 248.647 268.677 248.427 268.437 248.14C268.197 247.853 268.017 247.507 267.897 247.1C267.777 246.687 267.717 246.223 267.717 245.71V243.9C267.717 243.46 267.767 243.043 267.867 242.65C267.967 242.25 268.127 241.903 268.347 241.61C268.573 241.31 268.863 241.073 269.217 240.9C269.577 240.72 270.017 240.63 270.537 240.63ZM270.647 248.06C270.953 248.06 271.21 248.003 271.417 247.89C271.623 247.777 271.79 247.617 271.917 247.41C272.043 247.197 272.133 246.94 272.187 246.64C272.247 246.34 272.283 246 272.297 245.62V244.07C272.297 243.683 272.267 243.337 272.207 243.03C272.147 242.723 272.047 242.467 271.907 242.26C271.773 242.047 271.593 241.887 271.367 241.78C271.147 241.667 270.873 241.61 270.547 241.61C270.247 241.61 269.99 241.667 269.777 241.78C269.57 241.893 269.4 242.057 269.267 242.27C269.133 242.483 269.037 242.743 268.977 243.05C268.917 243.35 268.887 243.69 268.887 244.07V245.62C268.887 246 268.92 246.34 268.987 246.64C269.053 246.94 269.157 247.197 269.297 247.41C269.437 247.617 269.617 247.777 269.837 247.89C270.063 248.003 270.333 248.06 270.647 248.06Z" fill="#252C44"/>
<path d="M349.01 248.82V241.79C349.01 241.71 348.96 241.67 348.86 241.67H347.71V240.7H349.55C349.73 240.7 349.87 240.747 349.97 240.84C350.077 240.927 350.13 241.057 350.13 241.23V248.58C350.13 248.64 350.113 248.693 350.08 248.74C350.047 248.793 349.983 248.82 349.89 248.82H349.01ZM355.397 248.82V241.79C355.397 241.71 355.347 241.67 355.247 241.67H354.097V240.7H355.937C356.117 240.7 356.257 240.747 356.357 240.84C356.463 240.927 356.517 241.057 356.517 241.23V248.58C356.517 248.64 356.5 248.693 356.467 248.74C356.433 248.793 356.37 248.82 356.277 248.82H355.397Z" fill="#252C44"/>
<path d="M434.01 248.82V241.79C434.01 241.71 433.96 241.67 433.86 241.67H432.71V240.7H434.55C434.73 240.7 434.87 240.747 434.97 240.84C435.077 240.927 435.13 241.057 435.13 241.23V248.58C435.13 248.64 435.113 248.693 435.08 248.74C435.047 248.793 434.983 248.82 434.89 248.82H434.01ZM442.057 242.44C442.043 242.273 441.997 242.137 441.917 242.03C441.837 241.917 441.733 241.83 441.607 241.77C441.487 241.703 441.353 241.657 441.207 241.63C441.06 241.603 440.917 241.587 440.777 241.58C440.683 241.58 440.543 241.583 440.357 241.59C440.177 241.597 439.967 241.613 439.727 241.64C439.493 241.667 439.24 241.707 438.967 241.76C438.693 241.807 438.42 241.873 438.147 241.96V240.96C438.427 240.867 438.707 240.797 438.987 240.75C439.267 240.697 439.523 240.66 439.757 240.64C439.997 240.613 440.203 240.6 440.377 240.6C440.557 240.593 440.687 240.59 440.767 240.59C441.093 240.597 441.4 240.633 441.687 240.7C441.98 240.76 442.237 240.86 442.457 241C442.677 241.133 442.853 241.31 442.987 241.53C443.12 241.75 443.193 242.017 443.207 242.33V242.58C443.207 242.793 443.17 243.007 443.097 243.22C443.023 243.433 442.927 243.637 442.807 243.83C442.687 244.023 442.55 244.207 442.397 244.38C442.25 244.547 442.103 244.693 441.957 244.82L439.387 246.98C439.353 247.007 439.323 247.033 439.297 247.06C439.27 247.087 439.243 247.117 439.217 247.15C439.17 247.203 439.13 247.263 439.097 247.33C439.063 247.39 439.047 247.457 439.047 247.53V247.79C439.047 247.83 439.073 247.85 439.127 247.85H443.337V248.59C443.337 248.643 443.317 248.69 443.277 248.73C443.243 248.777 443.203 248.8 443.157 248.8H438.247C438.153 248.8 438.063 248.76 437.977 248.68C437.897 248.6 437.857 248.503 437.857 248.39V247.52C437.857 247.36 437.887 247.213 437.947 247.08C438.013 246.94 438.087 246.82 438.167 246.72C438.253 246.607 438.36 246.497 438.487 246.39L441.057 244.22C441.183 244.113 441.307 244 441.427 243.88C441.547 243.753 441.653 243.623 441.747 243.49C441.84 243.35 441.913 243.207 441.967 243.06C442.027 242.907 442.057 242.753 442.057 242.6V242.44Z" fill="#252C44"/>
<path d="M519.01 248.82V241.79C519.01 241.71 518.96 241.67 518.86 241.67H517.71V240.7H519.55C519.73 240.7 519.87 240.747 519.97 240.84C520.077 240.927 520.13 241.057 520.13 241.23V248.58C520.13 248.64 520.113 248.693 520.08 248.74C520.047 248.793 519.983 248.82 519.89 248.82H519.01ZM527.137 246.22C527.137 246.013 527.087 245.83 526.987 245.67C526.887 245.51 526.75 245.377 526.577 245.27C526.403 245.163 526.197 245.083 525.957 245.03C525.723 244.977 525.473 244.95 525.207 244.95H523.497V243.98H525.267C525.473 243.98 525.673 243.957 525.867 243.91C526.067 243.863 526.243 243.793 526.397 243.7C526.55 243.6 526.673 243.477 526.767 243.33C526.86 243.177 526.907 242.993 526.907 242.78V242.59C526.907 242.403 526.85 242.243 526.737 242.11C526.63 241.977 526.49 241.867 526.317 241.78C526.15 241.693 525.96 241.633 525.747 241.6C525.54 241.56 525.34 241.54 525.147 241.54C524.913 241.54 524.677 241.557 524.437 241.59C524.197 241.623 523.977 241.66 523.777 241.7C523.663 241.727 523.55 241.753 523.437 241.78C523.323 241.8 523.21 241.827 523.097 241.86V240.9C523.53 240.793 523.923 240.717 524.277 240.67C524.637 240.623 525.033 240.607 525.467 240.62C525.813 240.64 526.143 240.687 526.457 240.76C526.77 240.833 527.043 240.943 527.277 241.09C527.517 241.23 527.703 241.417 527.837 241.65C527.977 241.883 528.047 242.17 528.047 242.51V242.88C528.047 243.033 528.017 243.187 527.957 243.34C527.897 243.493 527.817 243.637 527.717 243.77C527.617 243.897 527.503 244.013 527.377 244.12C527.257 244.22 527.133 244.3 527.007 244.36C527.153 244.427 527.3 244.513 527.447 244.62C527.6 244.72 527.733 244.847 527.847 245C527.967 245.147 528.063 245.317 528.137 245.51C528.21 245.703 528.247 245.923 528.247 246.17V246.55C528.247 247.003 528.157 247.383 527.977 247.69C527.803 247.99 527.57 248.233 527.277 248.42C526.99 248.607 526.663 248.737 526.297 248.81C525.93 248.89 525.56 248.93 525.187 248.93C524.9 248.93 524.623 248.913 524.357 248.88C524.097 248.847 523.863 248.807 523.657 248.76C523.537 248.733 523.42 248.707 523.307 248.68C523.193 248.653 523.083 248.623 522.977 248.59V247.59C523.07 247.623 523.163 247.653 523.257 247.68C523.357 247.707 523.463 247.733 523.577 247.76C523.77 247.807 523.997 247.847 524.257 247.88C524.517 247.913 524.807 247.93 525.127 247.93C525.367 247.93 525.603 247.903 525.837 247.85C526.077 247.79 526.293 247.703 526.487 247.59C526.68 247.47 526.837 247.323 526.957 247.15C527.077 246.97 527.137 246.76 527.137 246.52V246.22Z" fill="#252C44"/>
<path d="M9.01 358.82V351.79C9.01 351.71 8.96 351.67 8.86 351.67H7.71V350.7H9.55C9.73 350.7 9.87 350.747 9.97 350.84C10.0767 350.927 10.13 351.057 10.13 351.23V358.58C10.13 358.64 10.1133 358.693 10.08 358.74C10.0467 358.793 9.98333 358.82 9.89 358.82H9.01ZM17.5767 356.59H18.5667V357.56H17.5767V358.85H16.4967V357.57H13.0567C12.9434 357.57 12.8501 357.533 12.7767 357.46C12.7034 357.38 12.6667 357.283 12.6667 357.17V356.26C12.6667 356.12 12.6801 356.01 12.7067 355.93C12.7334 355.843 12.7867 355.74 12.8667 355.62L16.2967 350.65H17.5767V356.59ZM13.7567 356.53C13.7567 356.577 13.7934 356.6 13.8667 356.6H16.4967V352.1L13.8267 355.88C13.7801 355.947 13.7567 356.02 13.7567 356.1V356.53Z" fill="#252C44"/>
<path d="M94.01 358.82V351.79C94.01 351.71 93.96 351.67 93.86 351.67H92.71V350.7H94.55C94.73 350.7 94.87 350.747 94.97 350.84C95.0767 350.927 95.13 351.057 95.13 351.23V358.58C95.13 358.64 95.1133 358.693 95.08 358.74C95.0467 358.793 94.9833 358.82 94.89 358.82H94.01ZM102.167 356.23C102.18 355.73 102.04 355.38 101.747 355.18C101.453 354.973 101.037 354.863 100.497 354.85H98.5167C98.4101 354.85 98.3167 354.813 98.2367 354.74C98.1634 354.667 98.1267 354.573 98.1267 354.46V350.7H102.957V351.67H99.2267V353.8C99.2267 353.887 99.2701 353.93 99.3567 353.93H100.507C100.913 353.93 101.287 353.97 101.627 354.05C101.967 354.13 102.26 354.26 102.507 354.44C102.753 354.613 102.943 354.84 103.077 355.12C103.21 355.4 103.277 355.74 103.277 356.14V356.55C103.277 356.963 103.193 357.317 103.027 357.61C102.86 357.897 102.633 358.13 102.347 358.31C102.067 358.497 101.74 358.63 101.367 358.71C100.993 358.797 100.6 358.84 100.187 358.84C99.8601 358.84 99.5301 358.817 99.1967 358.77C98.8701 358.73 98.5267 358.673 98.1667 358.6V357.58C98.4867 357.653 98.8101 357.723 99.1367 357.79C99.4634 357.85 99.8101 357.877 100.177 357.87C100.437 357.87 100.683 357.85 100.917 357.81C101.15 357.763 101.357 357.687 101.537 357.58C101.717 357.473 101.86 357.333 101.967 357.16C102.08 356.987 102.143 356.773 102.157 356.52L102.167 356.23Z" fill="#252C44"/>
<path d="M179.01 358.82V351.79C179.01 351.71 178.96 351.67 178.86 351.67H177.71V350.7H179.55C179.73 350.7 179.87 350.747 179.97 350.84C180.077 350.927 180.13 351.057 180.13 351.23V358.58C180.13 358.64 180.113 358.693 180.08 358.74C180.047 358.793 179.983 358.82 179.89 358.82H179.01ZM188.267 356.48C188.267 356.907 188.217 357.27 188.117 357.57C188.023 357.87 187.87 358.113 187.657 358.3C187.45 358.487 187.18 358.623 186.847 358.71C186.513 358.797 186.11 358.84 185.637 358.84C185.183 358.84 184.787 358.807 184.447 358.74C184.113 358.68 183.837 358.567 183.617 358.4C183.397 358.24 183.233 358.02 183.127 357.74C183.02 357.453 182.967 357.093 182.967 356.66V353.02C182.967 352.573 183.027 352.2 183.147 351.9C183.273 351.593 183.457 351.347 183.697 351.16C183.937 350.973 184.23 350.84 184.577 350.76C184.923 350.68 185.317 350.64 185.757 350.64C186.137 350.64 186.503 350.667 186.857 350.72C187.217 350.773 187.567 350.84 187.907 350.92V351.91C187.587 351.83 187.26 351.767 186.927 351.72C186.6 351.667 186.257 351.633 185.897 351.62C185.577 351.627 185.303 351.647 185.077 351.68C184.85 351.713 184.663 351.78 184.517 351.88C184.377 351.973 184.27 352.11 184.197 352.29C184.13 352.463 184.097 352.697 184.097 352.99L184.127 353.88C184.427 353.76 184.73 353.687 185.037 353.66C185.343 353.633 185.647 353.62 185.947 353.62C186.753 353.62 187.34 353.817 187.707 354.21C188.08 354.603 188.267 355.193 188.267 355.98V356.48ZM187.167 355.97C187.167 355.703 187.14 355.48 187.087 355.3C187.033 355.12 186.943 354.977 186.817 354.87C186.697 354.763 186.54 354.69 186.347 354.65C186.153 354.603 185.917 354.58 185.637 354.58C185.337 354.58 185.087 354.6 184.887 354.64C184.687 354.673 184.527 354.737 184.407 354.83C184.293 354.923 184.213 355.053 184.167 355.22C184.12 355.387 184.097 355.6 184.097 355.86V356.56C184.103 356.84 184.133 357.07 184.187 357.25C184.24 357.423 184.327 357.56 184.447 357.66C184.567 357.753 184.727 357.817 184.927 357.85C185.127 357.883 185.377 357.9 185.677 357.9C185.937 357.9 186.16 357.88 186.347 357.84C186.533 357.8 186.687 357.727 186.807 357.62C186.933 357.513 187.023 357.37 187.077 357.19C187.137 357.003 187.167 356.767 187.167 356.48V355.97Z" fill="#252C44"/>
<path d="M264.01 358.82V351.79C264.01 351.71 263.96 351.67 263.86 351.67H262.71V350.7H264.55C264.73 350.7 264.87 350.747 264.97 350.84C265.077 350.927 265.13 351.057 265.13 351.23V358.58C265.13 358.64 265.113 358.693 265.08 358.74C265.047 358.793 264.983 358.82 264.89 358.82H264.01ZM268.677 358.8L271.917 351.76C271.95 351.68 271.923 351.64 271.837 351.64H267.977V350.68H273.157V351.36C273.157 351.433 273.14 351.523 273.107 351.63C273.073 351.73 273.04 351.817 273.007 351.89L269.927 358.66C269.873 358.753 269.793 358.8 269.687 358.8H268.677Z" fill="#252C44"/>
<path d="M349.01 358.82V351.79C349.01 351.71 348.96 351.67 348.86 351.67H347.71V350.7H349.55C349.73 350.7 349.87 350.747 349.97 350.84C350.077 350.927 350.13 351.057 350.13 351.23V358.58C350.13 358.64 350.113 358.693 350.08 358.74C350.047 358.793 349.983 358.82 349.89 358.82H349.01ZM355.597 358.96C355.157 358.96 354.76 358.92 354.407 358.84C354.053 358.767 353.75 358.643 353.497 358.47C353.25 358.297 353.057 358.067 352.917 357.78C352.783 357.487 352.717 357.127 352.717 356.7V356.43C352.717 356.23 352.737 356.03 352.777 355.83C352.817 355.623 352.88 355.43 352.967 355.25C353.053 355.063 353.16 354.893 353.287 354.74C353.413 354.587 353.567 354.457 353.747 354.35C353.447 354.143 353.237 353.92 353.117 353.68C353.003 353.433 352.947 353.117 352.947 352.73V352.51C352.947 352.117 353.017 351.79 353.157 351.53C353.303 351.27 353.497 351.063 353.737 350.91C353.977 350.75 354.253 350.64 354.567 350.58C354.887 350.513 355.22 350.48 355.567 350.48C355.927 350.48 356.263 350.513 356.577 350.58C356.897 350.647 357.177 350.757 357.417 350.91C357.657 351.063 357.847 351.267 357.987 351.52C358.127 351.767 358.197 352.073 358.197 352.44V352.76C358.197 353.107 358.137 353.42 358.017 353.7C357.903 353.98 357.703 354.207 357.417 354.38H357.427C357.593 354.48 357.74 354.603 357.867 354.75C357.993 354.89 358.1 355.047 358.187 355.22C358.273 355.387 358.34 355.563 358.387 355.75C358.433 355.937 358.457 356.12 358.457 356.3V356.71C358.457 357.157 358.38 357.527 358.227 357.82C358.08 358.107 357.877 358.333 357.617 358.5C357.357 358.673 357.053 358.793 356.707 358.86C356.36 358.927 355.99 358.96 355.597 358.96ZM355.567 354.88C354.94 354.88 354.5 355.007 354.247 355.26C354 355.513 353.877 355.903 353.877 356.43V356.67C353.877 356.943 353.923 357.163 354.017 357.33C354.11 357.497 354.233 357.63 354.387 357.73C354.547 357.823 354.73 357.887 354.937 357.92C355.143 357.953 355.36 357.97 355.587 357.97C355.833 357.97 356.063 357.95 356.277 357.91C356.49 357.87 356.673 357.803 356.827 357.71C356.98 357.61 357.1 357.48 357.187 357.32C357.273 357.153 357.317 356.947 357.317 356.7V356.43C357.317 355.863 357.173 355.463 356.887 355.23C356.607 354.997 356.167 354.88 355.567 354.88ZM355.547 353.99C355.833 353.99 356.073 353.97 356.267 353.93C356.46 353.89 356.617 353.823 356.737 353.73C356.857 353.63 356.943 353.503 356.997 353.35C357.05 353.197 357.077 353.007 357.077 352.78V352.52C357.077 352.293 357.033 352.113 356.947 351.98C356.86 351.84 356.743 351.737 356.597 351.67C356.457 351.597 356.297 351.55 356.117 351.53C355.937 351.503 355.757 351.49 355.577 351.49C355.37 351.49 355.177 351.503 354.997 351.53C354.817 351.557 354.657 351.61 354.517 351.69C354.383 351.763 354.277 351.87 354.197 352.01C354.123 352.143 354.087 352.32 354.087 352.54V352.78C354.087 353.027 354.117 353.23 354.177 353.39C354.243 353.543 354.337 353.667 354.457 353.76C354.577 353.847 354.727 353.907 354.907 353.94C355.093 353.973 355.307 353.99 355.547 353.99Z" fill="#252C44"/>
<path d="M434.01 358.82V351.79C434.01 351.71 433.96 351.67 433.86 351.67H432.71V350.7H434.55C434.73 350.7 434.87 350.747 434.97 350.84C435.077 350.927 435.13 351.057 435.13 351.23V358.58C435.13 358.64 435.113 358.693 435.08 358.74C435.047 358.793 434.983 358.82 434.89 358.82H434.01ZM437.807 352.99C437.827 352.53 437.89 352.143 437.997 351.83C438.11 351.51 438.273 351.257 438.487 351.07C438.7 350.877 438.97 350.74 439.297 350.66C439.623 350.573 440.013 350.53 440.467 350.53C440.96 350.53 441.38 350.56 441.727 350.62C442.073 350.68 442.357 350.793 442.577 350.96C442.797 351.12 442.957 351.347 443.057 351.64C443.157 351.933 443.207 352.31 443.207 352.77V356.46C443.207 356.92 443.14 357.303 443.007 357.61C442.873 357.917 442.683 358.16 442.437 358.34C442.19 358.527 441.89 358.657 441.537 358.73C441.19 358.803 440.803 358.84 440.377 358.84C439.997 358.84 439.637 358.81 439.297 358.75C438.957 358.69 438.617 358.61 438.277 358.51V357.45C438.617 357.55 438.953 357.64 439.287 357.72C439.62 357.8 439.95 357.84 440.277 357.84C440.57 357.84 440.83 357.823 441.057 357.79C441.29 357.75 441.483 357.68 441.637 357.58C441.79 357.48 441.903 357.343 441.977 357.17C442.057 356.99 442.093 356.763 442.087 356.49L442.057 355.71C441.423 355.91 440.793 355.99 440.167 355.95C439.847 355.93 439.543 355.887 439.257 355.82C438.977 355.747 438.727 355.623 438.507 355.45C438.293 355.277 438.123 355.04 437.997 354.74C437.87 354.433 437.807 354.037 437.807 353.55V352.99ZM438.947 353.53C438.947 353.83 438.98 354.077 439.047 354.27C439.113 354.463 439.21 354.613 439.337 354.72C439.47 354.827 439.63 354.9 439.817 354.94C440.01 354.98 440.227 355 440.467 355C440.787 355 441.05 354.98 441.257 354.94C441.47 354.9 441.637 354.83 441.757 354.73C441.883 354.623 441.97 354.483 442.017 354.31C442.063 354.13 442.087 353.903 442.087 353.63V352.9C442.087 352.613 442.057 352.38 441.997 352.2C441.937 352.02 441.84 351.88 441.707 351.78C441.573 351.673 441.4 351.6 441.187 351.56C440.98 351.52 440.723 351.5 440.417 351.5C440.11 351.5 439.86 351.533 439.667 351.6C439.48 351.66 439.333 351.753 439.227 351.88C439.12 352 439.047 352.153 439.007 352.34C438.967 352.52 438.947 352.733 438.947 352.98V353.53Z" fill="#252C44"/>
<path d="M520.67 352.44C520.657 352.273 520.61 352.137 520.53 352.03C520.45 351.917 520.347 351.83 520.22 351.77C520.1 351.703 519.967 351.657 519.82 351.63C519.673 351.603 519.53 351.587 519.39 351.58C519.297 351.58 519.157 351.583 518.97 351.59C518.79 351.597 518.58 351.613 518.34 351.64C518.107 351.667 517.853 351.707 517.58 351.76C517.307 351.807 517.033 351.873 516.76 351.96V350.96C517.04 350.867 517.32 350.797 517.6 350.75C517.88 350.697 518.137 350.66 518.37 350.64C518.61 350.613 518.817 350.6 518.99 350.6C519.17 350.593 519.3 350.59 519.38 350.59C519.707 350.597 520.013 350.633 520.3 350.7C520.593 350.76 520.85 350.86 521.07 351C521.29 351.133 521.467 351.31 521.6 351.53C521.733 351.75 521.807 352.017 521.82 352.33V352.58C521.82 352.793 521.783 353.007 521.71 353.22C521.637 353.433 521.54 353.637 521.42 353.83C521.3 354.023 521.163 354.207 521.01 354.38C520.863 354.547 520.717 354.693 520.57 354.82L518 356.98C517.967 357.007 517.937 357.033 517.91 357.06C517.883 357.087 517.857 357.117 517.83 357.15C517.783 357.203 517.743 357.263 517.71 357.33C517.677 357.39 517.66 357.457 517.66 357.53V357.79C517.66 357.83 517.687 357.85 517.74 357.85H521.95V358.59C521.95 358.643 521.93 358.69 521.89 358.73C521.857 358.777 521.817 358.8 521.77 358.8H516.86C516.767 358.8 516.677 358.76 516.59 358.68C516.51 358.6 516.47 358.503 516.47 358.39V357.52C516.47 357.36 516.5 357.213 516.56 357.08C516.627 356.94 516.7 356.82 516.78 356.72C516.867 356.607 516.973 356.497 517.1 356.39L519.67 354.22C519.797 354.113 519.92 354 520.04 353.88C520.16 353.753 520.267 353.623 520.36 353.49C520.453 353.35 520.527 353.207 520.58 353.06C520.64 352.907 520.67 352.753 520.67 352.6V352.44ZM525.537 350.63C526.037 350.63 526.47 350.717 526.837 350.89C527.203 351.057 527.503 351.297 527.737 351.61C527.977 351.917 528.153 352.29 528.267 352.73C528.387 353.163 528.447 353.647 528.447 354.18V355.65C528.44 356.163 528.383 356.63 528.277 357.05C528.17 357.463 528 357.817 527.767 358.11C527.54 358.403 527.247 358.63 526.887 358.79C526.527 358.95 526.09 359.03 525.577 359.03C525.103 359.03 524.687 358.953 524.327 358.8C523.973 358.647 523.677 358.427 523.437 358.14C523.197 357.853 523.017 357.507 522.897 357.1C522.777 356.687 522.717 356.223 522.717 355.71V353.9C522.717 353.46 522.767 353.043 522.867 352.65C522.967 352.25 523.127 351.903 523.347 351.61C523.573 351.31 523.863 351.073 524.217 350.9C524.577 350.72 525.017 350.63 525.537 350.63ZM525.647 358.06C525.953 358.06 526.21 358.003 526.417 357.89C526.623 357.777 526.79 357.617 526.917 357.41C527.043 357.197 527.133 356.94 527.187 356.64C527.247 356.34 527.283 356 527.297 355.62V354.07C527.297 353.683 527.267 353.337 527.207 353.03C527.147 352.723 527.047 352.467 526.907 352.26C526.773 352.047 526.593 351.887 526.367 351.78C526.147 351.667 525.873 351.61 525.547 351.61C525.247 351.61 524.99 351.667 524.777 351.78C524.57 351.893 524.4 352.057 524.267 352.27C524.133 352.483 524.037 352.743 523.977 353.05C523.917 353.35 523.887 353.69 523.887 354.07V355.62C523.887 356 523.92 356.34 523.987 356.64C524.053 356.94 524.157 357.197 524.297 357.41C524.437 357.617 524.617 357.777 524.837 357.89C525.063 358.003 525.333 358.06 525.647 358.06Z" fill="#252C44"/>
<path d="M10.67 462.44C10.6567 462.273 10.61 462.137 10.53 462.03C10.45 461.917 10.3467 461.83 10.22 461.77C10.1 461.703 9.96667 461.657 9.82 461.63C9.67333 461.603 9.53 461.587 9.39 461.58C9.29667 461.58 9.15667 461.583 8.97 461.59C8.79 461.597 8.58 461.613 8.34 461.64C8.10667 461.667 7.85333 461.707 7.58 461.76C7.30667 461.807 7.03333 461.873 6.76 461.96V460.96C7.04 460.867 7.32 460.797 7.6 460.75C7.88 460.697 8.13667 460.66 8.37 460.64C8.61 460.613 8.81667 460.6 8.99 460.6C9.17 460.593 9.3 460.59 9.38 460.59C9.70667 460.597 10.0133 460.633 10.3 460.7C10.5933 460.76 10.85 460.86 11.07 461C11.29 461.133 11.4667 461.31 11.6 461.53C11.7333 461.75 11.8067 462.017 11.82 462.33V462.58C11.82 462.793 11.7833 463.007 11.71 463.22C11.6367 463.433 11.54 463.637 11.42 463.83C11.3 464.023 11.1633 464.207 11.01 464.38C10.8633 464.547 10.7167 464.693 10.57 464.82L8 466.98C7.96667 467.007 7.93667 467.033 7.91 467.06C7.88333 467.087 7.85667 467.117 7.83 467.15C7.78333 467.203 7.74333 467.263 7.71 467.33C7.67667 467.39 7.66 467.457 7.66 467.53V467.79C7.66 467.83 7.68667 467.85 7.74 467.85H11.95V468.59C11.95 468.643 11.93 468.69 11.89 468.73C11.8567 468.777 11.8167 468.8 11.77 468.8H6.86C6.76667 468.8 6.67667 468.76 6.59 468.68C6.51 468.6 6.47 468.503 6.47 468.39V467.52C6.47 467.36 6.5 467.213 6.56 467.08C6.62667 466.94 6.7 466.82 6.78 466.72C6.86667 466.607 6.97333 466.497 7.1 466.39L9.67 464.22C9.79667 464.113 9.92 464 10.04 463.88C10.16 463.753 10.2667 463.623 10.36 463.49C10.4533 463.35 10.5267 463.207 10.58 463.06C10.64 462.907 10.67 462.753 10.67 462.6V462.44ZM15.3967 468.82V461.79C15.3967 461.71 15.3467 461.67 15.2467 461.67H14.0967V460.7H15.9367C16.1167 460.7 16.2567 460.747 16.3567 460.84C16.4634 460.927 16.5167 461.057 16.5167 461.23V468.58C16.5167 468.64 16.5001 468.693 16.4667 468.74C16.4334 468.793 16.3701 468.82 16.2767 468.82H15.3967Z" fill="#252C44"/>
<path d="M95.67 462.44C95.6567 462.273 95.61 462.137 95.53 462.03C95.45 461.917 95.3467 461.83 95.22 461.77C95.1 461.703 94.9667 461.657 94.82 461.63C94.6733 461.603 94.53 461.587 94.39 461.58C94.2967 461.58 94.1567 461.583 93.97 461.59C93.79 461.597 93.58 461.613 93.34 461.64C93.1067 461.667 92.8533 461.707 92.58 461.76C92.3067 461.807 92.0333 461.873 91.76 461.96V460.96C92.04 460.867 92.32 460.797 92.6 460.75C92.88 460.697 93.1367 460.66 93.37 460.64C93.61 460.613 93.8167 460.6 93.99 460.6C94.17 460.593 94.3 460.59 94.38 460.59C94.7067 460.597 95.0133 460.633 95.3 460.7C95.5933 460.76 95.85 460.86 96.07 461C96.29 461.133 96.4667 461.31 96.6 461.53C96.7333 461.75 96.8067 462.017 96.82 462.33V462.58C96.82 462.793 96.7833 463.007 96.71 463.22C96.6367 463.433 96.54 463.637 96.42 463.83C96.3 464.023 96.1633 464.207 96.01 464.38C95.8633 464.547 95.7167 464.693 95.57 464.82L93 466.98C92.9667 467.007 92.9367 467.033 92.91 467.06C92.8833 467.087 92.8567 467.117 92.83 467.15C92.7833 467.203 92.7433 467.263 92.71 467.33C92.6767 467.39 92.66 467.457 92.66 467.53V467.79C92.66 467.83 92.6867 467.85 92.74 467.85H96.95V468.59C96.95 468.643 96.93 468.69 96.89 468.73C96.8567 468.777 96.8167 468.8 96.77 468.8H91.86C91.7667 468.8 91.6767 468.76 91.59 468.68C91.51 468.6 91.47 468.503 91.47 468.39V467.52C91.47 467.36 91.5 467.213 91.56 467.08C91.6267 466.94 91.7 466.82 91.78 466.72C91.8667 466.607 91.9733 466.497 92.1 466.39L94.67 464.22C94.7967 464.113 94.92 464 95.04 463.88C95.16 463.753 95.2667 463.623 95.36 463.49C95.4533 463.35 95.5267 463.207 95.58 463.06C95.64 462.907 95.67 462.753 95.67 462.6V462.44ZM102.057 462.44C102.043 462.273 101.997 462.137 101.917 462.03C101.837 461.917 101.733 461.83 101.607 461.77C101.487 461.703 101.353 461.657 101.207 461.63C101.06 461.603 100.917 461.587 100.777 461.58C100.683 461.58 100.543 461.583 100.357 461.59C100.177 461.597 99.9667 461.613 99.7267 461.64C99.4934 461.667 99.2401 461.707 98.9667 461.76C98.6934 461.807 98.4201 461.873 98.1467 461.96V460.96C98.4267 460.867 98.7067 460.797 98.9867 460.75C99.2667 460.697 99.5234 460.66 99.7567 460.64C99.9967 460.613 100.203 460.6 100.377 460.6C100.557 460.593 100.687 460.59 100.767 460.59C101.093 460.597 101.4 460.633 101.687 460.7C101.98 460.76 102.237 460.86 102.457 461C102.677 461.133 102.853 461.31 102.987 461.53C103.12 461.75 103.193 462.017 103.207 462.33V462.58C103.207 462.793 103.17 463.007 103.097 463.22C103.023 463.433 102.927 463.637 102.807 463.83C102.687 464.023 102.55 464.207 102.397 464.38C102.25 464.547 102.103 464.693 101.957 464.82L99.3867 466.98C99.3534 467.007 99.3234 467.033 99.2967 467.06C99.2701 467.087 99.2434 467.117 99.2167 467.15C99.1701 467.203 99.1301 467.263 99.0967 467.33C99.0634 467.39 99.0467 467.457 99.0467 467.53V467.79C99.0467 467.83 99.0734 467.85 99.1267 467.85H103.337V468.59C103.337 468.643 103.317 468.69 103.277 468.73C103.243 468.777 103.203 468.8 103.157 468.8H98.2467C98.1534 468.8 98.0634 468.76 97.9767 468.68C97.8967 468.6 97.8567 468.503 97.8567 468.39V467.52C97.8567 467.36 97.8867 467.213 97.9467 467.08C98.0134 466.94 98.0867 466.82 98.1667 466.72C98.2534 466.607 98.3601 466.497 98.4867 466.39L101.057 464.22C101.183 464.113 101.307 464 101.427 463.88C101.547 463.753 101.653 463.623 101.747 463.49C101.84 463.35 101.913 463.207 101.967 463.06C102.027 462.907 102.057 462.753 102.057 462.6V462.44Z" fill="#252C44"/>
<path d="M180.67 462.44C180.657 462.273 180.61 462.137 180.53 462.03C180.45 461.917 180.347 461.83 180.22 461.77C180.1 461.703 179.967 461.657 179.82 461.63C179.673 461.603 179.53 461.587 179.39 461.58C179.297 461.58 179.157 461.583 178.97 461.59C178.79 461.597 178.58 461.613 178.34 461.64C178.107 461.667 177.853 461.707 177.58 461.76C177.307 461.807 177.033 461.873 176.76 461.96V460.96C177.04 460.867 177.32 460.797 177.6 460.75C177.88 460.697 178.137 460.66 178.37 460.64C178.61 460.613 178.817 460.6 178.99 460.6C179.17 460.593 179.3 460.59 179.38 460.59C179.707 460.597 180.013 460.633 180.3 460.7C180.593 460.76 180.85 460.86 181.07 461C181.29 461.133 181.467 461.31 181.6 461.53C181.733 461.75 181.807 462.017 181.82 462.33V462.58C181.82 462.793 181.783 463.007 181.71 463.22C181.637 463.433 181.54 463.637 181.42 463.83C181.3 464.023 181.163 464.207 181.01 464.38C180.863 464.547 180.717 464.693 180.57 464.82L178 466.98C177.967 467.007 177.937 467.033 177.91 467.06C177.883 467.087 177.857 467.117 177.83 467.15C177.783 467.203 177.743 467.263 177.71 467.33C177.677 467.39 177.66 467.457 177.66 467.53V467.79C177.66 467.83 177.687 467.85 177.74 467.85H181.95V468.59C181.95 468.643 181.93 468.69 181.89 468.73C181.857 468.777 181.817 468.8 181.77 468.8H176.86C176.767 468.8 176.677 468.76 176.59 468.68C176.51 468.6 176.47 468.503 176.47 468.39V467.52C176.47 467.36 176.5 467.213 176.56 467.08C176.627 466.94 176.7 466.82 176.78 466.72C176.867 466.607 176.973 466.497 177.1 466.39L179.67 464.22C179.797 464.113 179.92 464 180.04 463.88C180.16 463.753 180.267 463.623 180.36 463.49C180.453 463.35 180.527 463.207 180.58 463.06C180.64 462.907 180.67 462.753 180.67 462.6V462.44ZM187.137 466.22C187.137 466.013 187.087 465.83 186.987 465.67C186.887 465.51 186.75 465.377 186.577 465.27C186.403 465.163 186.197 465.083 185.957 465.03C185.723 464.977 185.473 464.95 185.207 464.95H183.497V463.98H185.267C185.473 463.98 185.673 463.957 185.867 463.91C186.067 463.863 186.243 463.793 186.397 463.7C186.55 463.6 186.673 463.477 186.767 463.33C186.86 463.177 186.907 462.993 186.907 462.78V462.59C186.907 462.403 186.85 462.243 186.737 462.11C186.63 461.977 186.49 461.867 186.317 461.78C186.15 461.693 185.96 461.633 185.747 461.6C185.54 461.56 185.34 461.54 185.147 461.54C184.913 461.54 184.677 461.557 184.437 461.59C184.197 461.623 183.977 461.66 183.777 461.7C183.663 461.727 183.55 461.753 183.437 461.78C183.323 461.8 183.21 461.827 183.097 461.86V460.9C183.53 460.793 183.923 460.717 184.277 460.67C184.637 460.623 185.033 460.607 185.467 460.62C185.813 460.64 186.143 460.687 186.457 460.76C186.77 460.833 187.043 460.943 187.277 461.09C187.517 461.23 187.703 461.417 187.837 461.65C187.977 461.883 188.047 462.17 188.047 462.51V462.88C188.047 463.033 188.017 463.187 187.957 463.34C187.897 463.493 187.817 463.637 187.717 463.77C187.617 463.897 187.503 464.013 187.377 464.12C187.257 464.22 187.133 464.3 187.007 464.36C187.153 464.427 187.3 464.513 187.447 464.62C187.6 464.72 187.733 464.847 187.847 465C187.967 465.147 188.063 465.317 188.137 465.51C188.21 465.703 188.247 465.923 188.247 466.17V466.55C188.247 467.003 188.157 467.383 187.977 467.69C187.803 467.99 187.57 468.233 187.277 468.42C186.99 468.607 186.663 468.737 186.297 468.81C185.93 468.89 185.56 468.93 185.187 468.93C184.9 468.93 184.623 468.913 184.357 468.88C184.097 468.847 183.863 468.807 183.657 468.76C183.537 468.733 183.42 468.707 183.307 468.68C183.193 468.653 183.083 468.623 182.977 468.59V467.59C183.07 467.623 183.163 467.653 183.257 467.68C183.357 467.707 183.463 467.733 183.577 467.76C183.77 467.807 183.997 467.847 184.257 467.88C184.517 467.913 184.807 467.93 185.127 467.93C185.367 467.93 185.603 467.903 185.837 467.85C186.077 467.79 186.293 467.703 186.487 467.59C186.68 467.47 186.837 467.323 186.957 467.15C187.077 466.97 187.137 466.76 187.137 466.52V466.22Z" fill="#252C44"/>
<path d="M265.67 462.44C265.657 462.273 265.61 462.137 265.53 462.03C265.45 461.917 265.347 461.83 265.22 461.77C265.1 461.703 264.967 461.657 264.82 461.63C264.673 461.603 264.53 461.587 264.39 461.58C264.297 461.58 264.157 461.583 263.97 461.59C263.79 461.597 263.58 461.613 263.34 461.64C263.107 461.667 262.853 461.707 262.58 461.76C262.307 461.807 262.033 461.873 261.76 461.96V460.96C262.04 460.867 262.32 460.797 262.6 460.75C262.88 460.697 263.137 460.66 263.37 460.64C263.61 460.613 263.817 460.6 263.99 460.6C264.17 460.593 264.3 460.59 264.38 460.59C264.707 460.597 265.013 460.633 265.3 460.7C265.593 460.76 265.85 460.86 266.07 461C266.29 461.133 266.467 461.31 266.6 461.53C266.733 461.75 266.807 462.017 266.82 462.33V462.58C266.82 462.793 266.783 463.007 266.71 463.22C266.637 463.433 266.54 463.637 266.42 463.83C266.3 464.023 266.163 464.207 266.01 464.38C265.863 464.547 265.717 464.693 265.57 464.82L263 466.98C262.967 467.007 262.937 467.033 262.91 467.06C262.883 467.087 262.857 467.117 262.83 467.15C262.783 467.203 262.743 467.263 262.71 467.33C262.677 467.39 262.66 467.457 262.66 467.53V467.79C262.66 467.83 262.687 467.85 262.74 467.85H266.95V468.59C266.95 468.643 266.93 468.69 266.89 468.73C266.857 468.777 266.817 468.8 266.77 468.8H261.86C261.767 468.8 261.677 468.76 261.59 468.68C261.51 468.6 261.47 468.503 261.47 468.39V467.52C261.47 467.36 261.5 467.213 261.56 467.08C261.627 466.94 261.7 466.82 261.78 466.72C261.867 466.607 261.973 466.497 262.1 466.39L264.67 464.22C264.797 464.113 264.92 464 265.04 463.88C265.16 463.753 265.267 463.623 265.36 463.49C265.453 463.35 265.527 463.207 265.58 463.06C265.64 462.907 265.67 462.753 265.67 462.6V462.44ZM272.577 466.59H273.567V467.56H272.577V468.85H271.497V467.57H268.057C267.943 467.57 267.85 467.533 267.777 467.46C267.703 467.38 267.667 467.283 267.667 467.17V466.26C267.667 466.12 267.68 466.01 267.707 465.93C267.733 465.843 267.787 465.74 267.867 465.62L271.297 460.65H272.577V466.59ZM268.757 466.53C268.757 466.577 268.793 466.6 268.867 466.6H271.497V462.1L268.827 465.88C268.78 465.947 268.757 466.02 268.757 466.1V466.53Z" fill="white"/>
<path d="M350.67 462.44C350.657 462.273 350.61 462.137 350.53 462.03C350.45 461.917 350.347 461.83 350.22 461.77C350.1 461.703 349.967 461.657 349.82 461.63C349.673 461.603 349.53 461.587 349.39 461.58C349.297 461.58 349.157 461.583 348.97 461.59C348.79 461.597 348.58 461.613 348.34 461.64C348.107 461.667 347.853 461.707 347.58 461.76C347.307 461.807 347.033 461.873 346.76 461.96V460.96C347.04 460.867 347.32 460.797 347.6 460.75C347.88 460.697 348.137 460.66 348.37 460.64C348.61 460.613 348.817 460.6 348.99 460.6C349.17 460.593 349.3 460.59 349.38 460.59C349.707 460.597 350.013 460.633 350.3 460.7C350.593 460.76 350.85 460.86 351.07 461C351.29 461.133 351.467 461.31 351.6 461.53C351.733 461.75 351.807 462.017 351.82 462.33V462.58C351.82 462.793 351.783 463.007 351.71 463.22C351.637 463.433 351.54 463.637 351.42 463.83C351.3 464.023 351.163 464.207 351.01 464.38C350.863 464.547 350.717 464.693 350.57 464.82L348 466.98C347.967 467.007 347.937 467.033 347.91 467.06C347.883 467.087 347.857 467.117 347.83 467.15C347.783 467.203 347.743 467.263 347.71 467.33C347.677 467.39 347.66 467.457 347.66 467.53V467.79C347.66 467.83 347.687 467.85 347.74 467.85H351.95V468.59C351.95 468.643 351.93 468.69 351.89 468.73C351.857 468.777 351.817 468.8 351.77 468.8H346.86C346.767 468.8 346.677 468.76 346.59 468.68C346.51 468.6 346.47 468.503 346.47 468.39V467.52C346.47 467.36 346.5 467.213 346.56 467.08C346.627 466.94 346.7 466.82 346.78 466.72C346.867 466.607 346.973 466.497 347.1 466.39L349.67 464.22C349.797 464.113 349.92 464 350.04 463.88C350.16 463.753 350.267 463.623 350.36 463.49C350.453 463.35 350.527 463.207 350.58 463.06C350.64 462.907 350.67 462.753 350.67 462.6V462.44ZM357.167 466.23C357.18 465.73 357.04 465.38 356.747 465.18C356.453 464.973 356.037 464.863 355.497 464.85H353.517C353.41 464.85 353.317 464.813 353.237 464.74C353.163 464.667 353.127 464.573 353.127 464.46V460.7H357.957V461.67H354.227V463.8C354.227 463.887 354.27 463.93 354.357 463.93H355.507C355.913 463.93 356.287 463.97 356.627 464.05C356.967 464.13 357.26 464.26 357.507 464.44C357.753 464.613 357.943 464.84 358.077 465.12C358.21 465.4 358.277 465.74 358.277 466.14V466.55C358.277 466.963 358.193 467.317 358.027 467.61C357.86 467.897 357.633 468.13 357.347 468.31C357.067 468.497 356.74 468.63 356.367 468.71C355.993 468.797 355.6 468.84 355.187 468.84C354.86 468.84 354.53 468.817 354.197 468.77C353.87 468.73 353.527 468.673 353.167 468.6V467.58C353.487 467.653 353.81 467.723 354.137 467.79C354.463 467.85 354.81 467.877 355.177 467.87C355.437 467.87 355.683 467.85 355.917 467.81C356.15 467.763 356.357 467.687 356.537 467.58C356.717 467.473 356.86 467.333 356.967 467.16C357.08 466.987 357.143 466.773 357.157 466.52L357.167 466.23Z" fill="#252C44"/>
<path d="M435.67 462.44C435.657 462.273 435.61 462.137 435.53 462.03C435.45 461.917 435.347 461.83 435.22 461.77C435.1 461.703 434.967 461.657 434.82 461.63C434.673 461.603 434.53 461.587 434.39 461.58C434.297 461.58 434.157 461.583 433.97 461.59C433.79 461.597 433.58 461.613 433.34 461.64C433.107 461.667 432.853 461.707 432.58 461.76C432.307 461.807 432.033 461.873 431.76 461.96V460.96C432.04 460.867 432.32 460.797 432.6 460.75C432.88 460.697 433.137 460.66 433.37 460.64C433.61 460.613 433.817 460.6 433.99 460.6C434.17 460.593 434.3 460.59 434.38 460.59C434.707 460.597 435.013 460.633 435.3 460.7C435.593 460.76 435.85 460.86 436.07 461C436.29 461.133 436.467 461.31 436.6 461.53C436.733 461.75 436.807 462.017 436.82 462.33V462.58C436.82 462.793 436.783 463.007 436.71 463.22C436.637 463.433 436.54 463.637 436.42 463.83C436.3 464.023 436.163 464.207 436.01 464.38C435.863 464.547 435.717 464.693 435.57 464.82L433 466.98C432.967 467.007 432.937 467.033 432.91 467.06C432.883 467.087 432.857 467.117 432.83 467.15C432.783 467.203 432.743 467.263 432.71 467.33C432.677 467.39 432.66 467.457 432.66 467.53V467.79C432.66 467.83 432.687 467.85 432.74 467.85H436.95V468.59C436.95 468.643 436.93 468.69 436.89 468.73C436.857 468.777 436.817 468.8 436.77 468.8H431.86C431.767 468.8 431.677 468.76 431.59 468.68C431.51 468.6 431.47 468.503 431.47 468.39V467.52C431.47 467.36 431.5 467.213 431.56 467.08C431.627 466.94 431.7 466.82 431.78 466.72C431.867 466.607 431.973 466.497 432.1 466.39L434.67 464.22C434.797 464.113 434.92 464 435.04 463.88C435.16 463.753 435.267 463.623 435.36 463.49C435.453 463.35 435.527 463.207 435.58 463.06C435.64 462.907 435.67 462.753 435.67 462.6V462.44ZM443.267 466.48C443.267 466.907 443.217 467.27 443.117 467.57C443.023 467.87 442.87 468.113 442.657 468.3C442.45 468.487 442.18 468.623 441.847 468.71C441.513 468.797 441.11 468.84 440.637 468.84C440.183 468.84 439.787 468.807 439.447 468.74C439.113 468.68 438.837 468.567 438.617 468.4C438.397 468.24 438.233 468.02 438.127 467.74C438.02 467.453 437.967 467.093 437.967 466.66V463.02C437.967 462.573 438.027 462.2 438.147 461.9C438.273 461.593 438.457 461.347 438.697 461.16C438.937 460.973 439.23 460.84 439.577 460.76C439.923 460.68 440.317 460.64 440.757 460.64C441.137 460.64 441.503 460.667 441.857 460.72C442.217 460.773 442.567 460.84 442.907 460.92V461.91C442.587 461.83 442.26 461.767 441.927 461.72C441.6 461.667 441.257 461.633 440.897 461.62C440.577 461.627 440.303 461.647 440.077 461.68C439.85 461.713 439.663 461.78 439.517 461.88C439.377 461.973 439.27 462.11 439.197 462.29C439.13 462.463 439.097 462.697 439.097 462.99L439.127 463.88C439.427 463.76 439.73 463.687 440.037 463.66C440.343 463.633 440.647 463.62 440.947 463.62C441.753 463.62 442.34 463.817 442.707 464.21C443.08 464.603 443.267 465.193 443.267 465.98V466.48ZM442.167 465.97C442.167 465.703 442.14 465.48 442.087 465.3C442.033 465.12 441.943 464.977 441.817 464.87C441.697 464.763 441.54 464.69 441.347 464.65C441.153 464.603 440.917 464.58 440.637 464.58C440.337 464.58 440.087 464.6 439.887 464.64C439.687 464.673 439.527 464.737 439.407 464.83C439.293 464.923 439.213 465.053 439.167 465.22C439.12 465.387 439.097 465.6 439.097 465.86V466.56C439.103 466.84 439.133 467.07 439.187 467.25C439.24 467.423 439.327 467.56 439.447 467.66C439.567 467.753 439.727 467.817 439.927 467.85C440.127 467.883 440.377 467.9 440.677 467.9C440.937 467.9 441.16 467.88 441.347 467.84C441.533 467.8 441.687 467.727 441.807 467.62C441.933 467.513 442.023 467.37 442.077 467.19C442.137 467.003 442.167 466.767 442.167 466.48V465.97Z" fill="#252C44"/>
<path d="M520.67 462.44C520.657 462.273 520.61 462.137 520.53 462.03C520.45 461.917 520.347 461.83 520.22 461.77C520.1 461.703 519.967 461.657 519.82 461.63C519.673 461.603 519.53 461.587 519.39 461.58C519.297 461.58 519.157 461.583 518.97 461.59C518.79 461.597 518.58 461.613 518.34 461.64C518.107 461.667 517.853 461.707 517.58 461.76C517.307 461.807 517.033 461.873 516.76 461.96V460.96C517.04 460.867 517.32 460.797 517.6 460.75C517.88 460.697 518.137 460.66 518.37 460.64C518.61 460.613 518.817 460.6 518.99 460.6C519.17 460.593 519.3 460.59 519.38 460.59C519.707 460.597 520.013 460.633 520.3 460.7C520.593 460.76 520.85 460.86 521.07 461C521.29 461.133 521.467 461.31 521.6 461.53C521.733 461.75 521.807 462.017 521.82 462.33V462.58C521.82 462.793 521.783 463.007 521.71 463.22C521.637 463.433 521.54 463.637 521.42 463.83C521.3 464.023 521.163 464.207 521.01 464.38C520.863 464.547 520.717 464.693 520.57 464.82L518 466.98C517.967 467.007 517.937 467.033 517.91 467.06C517.883 467.087 517.857 467.117 517.83 467.15C517.783 467.203 517.743 467.263 517.71 467.33C517.677 467.39 517.66 467.457 517.66 467.53V467.79C517.66 467.83 517.687 467.85 517.74 467.85H521.95V468.59C521.95 468.643 521.93 468.69 521.89 468.73C521.857 468.777 521.817 468.8 521.77 468.8H516.86C516.767 468.8 516.677 468.76 516.59 468.68C516.51 468.6 516.47 468.503 516.47 468.39V467.52C516.47 467.36 516.5 467.213 516.56 467.08C516.627 466.94 516.7 466.82 516.78 466.72C516.867 466.607 516.973 466.497 517.1 466.39L519.67 464.22C519.797 464.113 519.92 464 520.04 463.88C520.16 463.753 520.267 463.623 520.36 463.49C520.453 463.35 520.527 463.207 520.58 463.06C520.64 462.907 520.67 462.753 520.67 462.6V462.44ZM523.677 468.8L526.917 461.76C526.95 461.68 526.923 461.64 526.837 461.64H522.977V460.68H528.157V461.36C528.157 461.433 528.14 461.523 528.107 461.63C528.073 461.73 528.04 461.817 528.007 461.89L524.927 468.66C524.873 468.753 524.793 468.8 524.687 468.8H523.677Z" fill="#252C44"/>
<path d="M10.67 572.44C10.6567 572.273 10.61 572.137 10.53 572.03C10.45 571.917 10.3467 571.83 10.22 571.77C10.1 571.703 9.96667 571.657 9.82 571.63C9.67333 571.603 9.53 571.587 9.39 571.58C9.29667 571.58 9.15667 571.583 8.97 571.59C8.79 571.597 8.58 571.613 8.34 571.64C8.10667 571.667 7.85333 571.707 7.58 571.76C7.30667 571.807 7.03333 571.873 6.76 571.96V570.96C7.04 570.867 7.32 570.797 7.6 570.75C7.88 570.697 8.13667 570.66 8.37 570.64C8.61 570.613 8.81667 570.6 8.99 570.6C9.17 570.593 9.3 570.59 9.38 570.59C9.70667 570.597 10.0133 570.633 10.3 570.7C10.5933 570.76 10.85 570.86 11.07 571C11.29 571.133 11.4667 571.31 11.6 571.53C11.7333 571.75 11.8067 572.017 11.82 572.33V572.58C11.82 572.793 11.7833 573.007 11.71 573.22C11.6367 573.433 11.54 573.637 11.42 573.83C11.3 574.023 11.1633 574.207 11.01 574.38C10.8633 574.547 10.7167 574.693 10.57 574.82L8 576.98C7.96667 577.007 7.93667 577.033 7.91 577.06C7.88333 577.087 7.85667 577.117 7.83 577.15C7.78333 577.203 7.74333 577.263 7.71 577.33C7.67667 577.39 7.66 577.457 7.66 577.53V577.79C7.66 577.83 7.68667 577.85 7.74 577.85H11.95V578.59C11.95 578.643 11.93 578.69 11.89 578.73C11.8567 578.777 11.8167 578.8 11.77 578.8H6.86C6.76667 578.8 6.67667 578.76 6.59 578.68C6.51 578.6 6.47 578.503 6.47 578.39V577.52C6.47 577.36 6.5 577.213 6.56 577.08C6.62667 576.94 6.7 576.82 6.78 576.72C6.86667 576.607 6.97333 576.497 7.1 576.39L9.67 574.22C9.79667 574.113 9.92 574 10.04 573.88C10.16 573.753 10.2667 573.623 10.36 573.49C10.4533 573.35 10.5267 573.207 10.58 573.06C10.64 572.907 10.67 572.753 10.67 572.6V572.44ZM15.5967 578.96C15.1567 578.96 14.7601 578.92 14.4067 578.84C14.0534 578.767 13.7501 578.643 13.4967 578.47C13.2501 578.297 13.0567 578.067 12.9167 577.78C12.7834 577.487 12.7167 577.127 12.7167 576.7V576.43C12.7167 576.23 12.7367 576.03 12.7767 575.83C12.8167 575.623 12.8801 575.43 12.9667 575.25C13.0534 575.063 13.1601 574.893 13.2867 574.74C13.4134 574.587 13.5667 574.457 13.7467 574.35C13.4467 574.143 13.2367 573.92 13.1167 573.68C13.0034 573.433 12.9467 573.117 12.9467 572.73V572.51C12.9467 572.117 13.0167 571.79 13.1567 571.53C13.3034 571.27 13.4967 571.063 13.7367 570.91C13.9767 570.75 14.2534 570.64 14.5667 570.58C14.8867 570.513 15.2201 570.48 15.5667 570.48C15.9267 570.48 16.2634 570.513 16.5767 570.58C16.8967 570.647 17.1767 570.757 17.4167 570.91C17.6567 571.063 17.8467 571.267 17.9867 571.52C18.1267 571.767 18.1967 572.073 18.1967 572.44V572.76C18.1967 573.107 18.1367 573.42 18.0167 573.7C17.9034 573.98 17.7034 574.207 17.4167 574.38H17.4267C17.5934 574.48 17.7401 574.603 17.8667 574.75C17.9934 574.89 18.1001 575.047 18.1867 575.22C18.2734 575.387 18.3401 575.563 18.3867 575.75C18.4334 575.937 18.4567 576.12 18.4567 576.3V576.71C18.4567 577.157 18.3801 577.527 18.2267 577.82C18.0801 578.107 17.8767 578.333 17.6167 578.5C17.3567 578.673 17.0534 578.793 16.7067 578.86C16.3601 578.927 15.9901 578.96 15.5967 578.96ZM15.5667 574.88C14.9401 574.88 14.5001 575.007 14.2467 575.26C14.0001 575.513 13.8767 575.903 13.8767 576.43V576.67C13.8767 576.943 13.9234 577.163 14.0167 577.33C14.1101 577.497 14.2334 577.63 14.3867 577.73C14.5467 577.823 14.7301 577.887 14.9367 577.92C15.1434 577.953 15.3601 577.97 15.5867 577.97C15.8334 577.97 16.0634 577.95 16.2767 577.91C16.4901 577.87 16.6734 577.803 16.8267 577.71C16.9801 577.61 17.1001 577.48 17.1867 577.32C17.2734 577.153 17.3167 576.947 17.3167 576.7V576.43C17.3167 575.863 17.1734 575.463 16.8867 575.23C16.6067 574.997 16.1667 574.88 15.5667 574.88ZM15.5467 573.99C15.8334 573.99 16.0734 573.97 16.2667 573.93C16.4601 573.89 16.6167 573.823 16.7367 573.73C16.8567 573.63 16.9434 573.503 16.9967 573.35C17.0501 573.197 17.0767 573.007 17.0767 572.78V572.52C17.0767 572.293 17.0334 572.113 16.9467 571.98C16.8601 571.84 16.7434 571.737 16.5967 571.67C16.4567 571.597 16.2967 571.55 16.1167 571.53C15.9367 571.503 15.7567 571.49 15.5767 571.49C15.3701 571.49 15.1767 571.503 14.9967 571.53C14.8167 571.557 14.6567 571.61 14.5167 571.69C14.3834 571.763 14.2767 571.87 14.1967 572.01C14.1234 572.143 14.0867 572.32 14.0867 572.54V572.78C14.0867 573.027 14.1167 573.23 14.1767 573.39C14.2434 573.543 14.3367 573.667 14.4567 573.76C14.5767 573.847 14.7267 573.907 14.9067 573.94C15.0934 573.973 15.3067 573.99 15.5467 573.99Z" fill="#252C44"/>
</svg>
