<svg width="103" height="112" viewBox="0 0 103 112" fill="none" xmlns="http://www.w3.org/2000/svg">
<path d="M17.468 104.736C17.468 105.528 17.2627 106.203 16.852 106.76C16.4413 107.317 15.8913 107.765 15.202 108.102C14.5273 108.439 13.75 108.681 12.87 108.828C12.0047 108.989 11.11 109.07 10.186 109.07C9.27667 109.07 8.382 108.989 7.502 108.828C6.63667 108.681 5.85933 108.439 5.17 108.102C4.49533 107.765 3.94533 107.317 3.52 106.76C3.10933 106.203 2.904 105.528 2.904 104.736C2.904 103.929 3.10933 103.255 3.52 102.712C3.94533 102.155 4.49533 101.707 5.17 101.37C5.85933 101.018 6.63667 100.769 7.502 100.622C8.382 100.461 9.27667 100.38 10.186 100.38C11.11 100.38 12.0047 100.461 12.87 100.622C13.75 100.769 14.5273 101.018 15.202 101.37C15.8913 101.707 16.4413 102.155 16.852 102.712C17.2627 103.255 17.468 103.929 17.468 104.736ZM3.036 89.666V88.236H16.016C16.3973 88.236 16.7127 88.3607 16.962 88.61C17.226 88.8593 17.358 89.1747 17.358 89.556V91.448C17.358 91.7413 17.336 92.0713 17.292 92.438C17.2627 92.79 17.204 93.164 17.116 93.56C17.028 93.956 16.9107 94.3593 16.764 94.77C16.632 95.1807 16.4707 95.5693 16.28 95.936H14.608C14.7107 95.6573 14.8207 95.3273 14.938 94.946C15.07 94.5647 15.1873 94.1687 15.29 93.758C15.3927 93.3473 15.4733 92.9513 15.532 92.57C15.6053 92.174 15.642 91.8293 15.642 91.536V89.886C15.642 89.7393 15.5687 89.666 15.422 89.666H3.036ZM4.752 104.736C4.752 105.279 4.89867 105.733 5.192 106.1C5.5 106.467 5.90333 106.76 6.402 106.98C6.91533 107.215 7.49467 107.376 8.14 107.464C8.8 107.567 9.482 107.618 10.186 107.618C10.89 107.618 11.5647 107.567 12.21 107.464C12.87 107.376 13.4493 107.215 13.948 106.98C14.4613 106.76 14.8647 106.467 15.158 106.1C15.466 105.733 15.62 105.279 15.62 104.736C15.62 104.193 15.466 103.739 15.158 103.372C14.8647 102.991 14.4613 102.69 13.948 102.47C13.4493 102.235 12.87 102.074 12.21 101.986C11.5647 101.883 10.89 101.832 10.186 101.832C9.482 101.832 8.8 101.883 8.14 101.986C7.49467 102.074 6.91533 102.235 6.402 102.47C5.90333 102.69 5.5 102.991 5.192 103.372C4.89867 103.739 4.752 104.193 4.752 104.736ZM20.042 98.444C20.042 98.5613 19.998 98.664 19.91 98.752C19.822 98.84 19.7193 98.884 19.602 98.884H0.374V97.432H8.338V92.68H10.076V97.432H20.042V98.444ZM21.0471 93.472C21.0471 92.68 21.1865 91.9687 21.4651 91.338C21.7585 90.7073 22.1545 90.172 22.6531 89.732C23.1518 89.292 23.7385 88.9547 24.4131 88.72C25.0878 88.4853 25.8138 88.368 26.5911 88.368C27.3538 88.368 28.0651 88.4853 28.7251 88.72C29.3998 88.94 29.9865 89.27 30.4851 89.71C30.9838 90.15 31.3725 90.6853 31.6511 91.316C31.9298 91.9467 32.0691 92.6653 32.0691 93.472C32.0691 94.2493 31.9298 94.9533 31.6511 95.584C31.3725 96.2147 30.9838 96.7573 30.4851 97.212C30.0011 97.652 29.4218 97.9967 28.7471 98.246C28.0871 98.4807 27.3685 98.598 26.5911 98.598C25.8431 98.598 25.1318 98.4807 24.4571 98.246C23.7825 98.0113 23.1885 97.674 22.6751 97.234C22.1765 96.794 21.7805 96.2587 21.4871 95.628C21.1938 94.9827 21.0471 94.264 21.0471 93.472ZM22.8291 93.45C22.8291 94.0073 22.9318 94.506 23.1371 94.946C23.3425 95.386 23.6138 95.76 23.9511 96.068C24.2885 96.376 24.6845 96.618 25.1391 96.794C25.5938 96.9553 26.0778 97.036 26.5911 97.036C27.1191 97.036 27.6105 96.948 28.0651 96.772C28.5198 96.596 28.9085 96.3467 29.2311 96.024C29.5685 95.7013 29.8325 95.32 30.0231 94.88C30.2138 94.44 30.3091 93.9633 30.3091 93.45C30.3091 92.9367 30.2138 92.4673 30.0231 92.042C29.8325 91.602 29.5685 91.228 29.2311 90.92C28.8938 90.5973 28.4978 90.348 28.0431 90.172C27.6031 89.996 27.1191 89.908 26.5911 89.908C26.0631 89.908 25.5645 89.996 25.0951 90.172C24.6405 90.348 24.2445 90.5973 23.9071 90.92C23.5698 91.2427 23.3058 91.624 23.1151 92.064C22.9245 92.4893 22.8291 92.9513 22.8291 93.45ZM35.5231 99.852V87.84H37.2611V90.084H40.4731V91.514H37.2611V94.968H40.4731V96.42H37.2611V99.412C37.2611 99.5293 37.2171 99.632 37.1291 99.72C37.0411 99.808 36.9385 99.852 36.8211 99.852H35.5231ZM37.2171 108.344C37.2171 108.461 37.1731 108.564 37.0851 108.652C36.9971 108.74 36.8945 108.784 36.7771 108.784H35.4791V102.844C35.4791 102.697 35.4058 102.624 35.2591 102.624H23.4891V101.172H35.8751C36.2418 101.172 36.5571 101.297 36.8211 101.546C37.0851 101.795 37.2171 102.111 37.2171 102.492V108.344ZM53.5563 87.906H55.2943V107.838C55.2943 107.97 55.2503 108.073 55.1623 108.146C55.0743 108.234 54.9716 108.278 54.8543 108.278H53.5563V96.486H50.7403C50.6669 97.718 50.3956 98.818 49.9263 99.786C49.4569 100.739 48.8556 101.583 48.1223 102.316C47.4036 103.049 46.5823 103.673 45.6583 104.186C44.7489 104.699 43.8176 105.117 42.8643 105.44L41.8083 104.362C42.8789 103.951 43.8543 103.489 44.7343 102.976C45.6289 102.448 46.3916 101.854 47.0223 101.194C47.6676 100.534 48.1663 99.7933 48.5183 98.972C48.8703 98.136 49.0463 97.1973 49.0463 96.156L49.0243 90.722C49.0243 90.5753 48.9509 90.502 48.8043 90.502H42.1603V89.072H49.4203C49.7869 89.072 50.1023 89.1967 50.3663 89.446C50.6303 89.6953 50.7623 90.0107 50.7623 90.392V95.056H53.5563V87.906ZM58.0003 87.906H59.6943V108.322C59.6943 108.615 59.5476 108.762 59.2543 108.762H58.0003V87.906ZM68.7954 95.782C68.7954 96.3393 68.9934 96.9407 69.3894 97.586C69.8 98.2313 70.306 98.8693 70.9074 99.5C71.5234 100.116 72.1907 100.688 72.9094 101.216C73.628 101.744 74.3027 102.162 74.9334 102.47L73.8774 103.702C73.4227 103.511 72.902 103.211 72.3154 102.8C71.7434 102.389 71.1787 101.935 70.6214 101.436C70.064 100.937 69.5434 100.431 69.0594 99.918C68.59 99.4047 68.238 98.95 68.0034 98.554C67.7394 98.9793 67.38 99.456 66.9254 99.984C66.4854 100.512 66.0014 101.033 65.4734 101.546C64.9454 102.059 64.4027 102.536 63.8454 102.976C63.288 103.416 62.7674 103.761 62.2834 104.01L61.1394 102.91C61.858 102.47 62.5694 101.964 63.2734 101.392C63.9774 100.805 64.6007 100.197 65.1434 99.566C65.7007 98.9207 66.148 98.2753 66.4854 97.63C66.8374 96.97 67.0134 96.354 67.0134 95.782V88.83H68.7954V95.782ZM77.3094 108.762V87.84H79.0254V108.322C79.0254 108.439 78.9814 108.542 78.8934 108.63C78.8054 108.718 78.7027 108.762 78.5854 108.762H77.3094ZM84.6505 90.04H82.4285V88.61H94.4405V90.04H92.2625V97.608C92.2625 97.9013 92.2332 98.136 92.1745 98.312C92.4385 98.2973 92.7172 98.2753 93.0105 98.246C93.3185 98.202 93.6192 98.158 93.9125 98.114C94.2205 98.07 94.5065 98.026 94.7705 97.982C95.0492 97.938 95.2912 97.894 95.4965 97.85C95.4965 98.0993 95.4892 98.3413 95.4745 98.576C95.4745 98.796 95.4745 99.0233 95.4745 99.258C95.1665 99.3753 94.7045 99.4707 94.0885 99.544C93.4872 99.6173 92.8345 99.676 92.1305 99.72C91.4412 99.764 90.7445 99.8007 90.0405 99.83C89.3512 99.8447 88.7645 99.852 88.2805 99.852H82.1645V98.422H84.7825C84.6945 98.1873 84.6505 97.9233 84.6505 97.63V90.04ZM101.833 94.968H98.5105V102.58C98.5105 102.697 98.4665 102.8 98.3785 102.888C98.2905 102.976 98.1878 103.02 98.0705 103.02H96.7945V87.884H98.5105V93.516H101.833V94.968ZM90.3705 98.422C90.5172 98.422 90.5905 98.3487 90.5905 98.202V90.04H86.3225V98.202C86.3225 98.3487 86.3958 98.422 86.5425 98.422H90.3705ZM99.3685 108.278C99.3685 108.557 99.2365 108.696 98.9725 108.696H86.9605C86.5792 108.696 86.2565 108.564 85.9925 108.3C85.7432 108.051 85.6185 107.735 85.6185 107.354V102.228H87.4005V107.002C87.4005 107.149 87.4665 107.222 87.5985 107.222H99.3685V108.278Z" fill="black"/>
<path d="M83.5 14H76.5V45.5H31V52.5C31 54.425 32.575 56 34.5 56H73L87 70V17.5C87 15.575 85.425 14 83.5 14ZM69.5 35V3.5C69.5 1.575 67.925 0 66 0H20.5C18.575 0 17 1.575 17 3.5V52.5L31 38.5H66C67.925 38.5 69.5 36.925 69.5 35Z" fill="#5D3FE8"/>
</svg>
