<svg width="243" height="221" viewBox="0 0 243 221" fill="none" xmlns="http://www.w3.org/2000/svg">
<path d="M90.1028 87.0057C88.0793 87.8954 79.1116 101.953 59.4297 151.066H87.8662C93.6175 139.118 100.647 118.841 108.315 106.334C115.983 93.8274 137.497 83.8789 144.739 79.1761C141.757 73.3293 128.38 54.2128 117.9 61.8391C107.42 69.4653 95.002 81.7944 90.1028 87.0057Z" fill="#E6B1FF"/>
<ellipse cx="78.6078" cy="89.0258" rx="42.6132" ry="40.2458" transform="rotate(15.2422 78.6078 89.0258)" fill="#FFC9CA"/>
<path d="M11.8094 171.54C19.3327 140.649 47.0243 118.923 78.8179 118.967C108.833 119.009 135.364 138.484 144.398 167.107L161.102 220.029L-0.000234272 220.029L11.8094 171.54Z" fill="#E1C0FB"/>
<path d="M128.378 84.675C122.438 80.3576 119.011 76.7247 113.861 73.113L116.679 89.0939L128.378 84.675Z" fill="#FFC9CA"/>
<path d="M14.5681 136.438C9.68438 120.53 12.6571 63.7657 51.1962 45.6881C63.0871 40.6264 91.0733 33.5399 107.89 45.6881C119.675 54.2009 121.48 63.5247 117.764 64.8504C114.473 65.212 105.724 67.1643 97.0612 72.0815C94.407 89.0745 92.8569 127.254 107.89 144.031C81.7729 150.538 26.5441 158.131 14.5681 136.438Z" fill="url(#paint0_linear)"/>
<path d="M121.398 71.6545C119.211 67.2282 120.867 61.8645 125.168 59.4413L218.383 6.93079C225.068 3.16525 233.543 5.78185 236.941 12.6603C240.265 19.3877 237.406 27.5327 230.607 30.7066L133.66 75.9591C129.082 78.096 123.636 76.1841 121.398 71.6545Z" fill="url(#paint1_linear)"/>
<path d="M139.208 51.5037L141.573 50.2225L150.347 68.1183L148.059 69.2588L139.208 51.5037Z" fill="white"/>
<path d="M182.441 27.1585L184.678 25.8805L195.861 46.9682L192.878 48.336L182.441 27.1585Z" fill="white"/>
<path d="M160.395 35.4659C163.696 33.6553 171.258 35.402 175.092 56.8732L169.98 72.2097L157.199 66.139C157.199 66.139 153.046 63.5829 151.129 61.3463C149.212 59.1097 147.295 54.6366 147.295 54.6366C146.656 51.7609 148.317 50.3551 149.85 52.4C152.087 56.6601 156.688 64.0302 157.199 59.4292C157.71 54.8283 151.235 48.9918 147.934 46.6488C146.869 44.8382 147.87 40.0668 160.395 35.4659Z" fill="#FFC9CA"/>
<path fill-rule="evenodd" clip-rule="evenodd" d="M141.864 56.8731C142.158 57.2922 142.823 57.1927 142.823 55.5951C142.823 54.6366 141.225 51.974 139.947 51.1219C139.713 50.966 139.651 50.9524 139.394 50.8965C139.294 50.875 139.166 50.8471 138.989 50.8025C138.308 50.8025 138.251 50.8025 138.194 50.8025C138.165 50.8025 138.137 50.8025 138.03 50.8025C137.436 50.8026 137.052 50.9285 136.783 51.1254L136.752 51.1219C135.674 51.5839 134.691 52.0566 133.797 52.5309C133.714 52.5659 133.637 52.6072 133.567 52.6541C128.685 55.289 126.512 57.9518 125.889 59.1098L127.441 58.2431C128.421 57.8789 128.823 57.8192 129.822 57.9803C133.329 58.5458 135.718 61.8311 137.391 64.2219C137.685 64.6409 138.35 64.5414 138.35 62.9439C138.35 61.9853 136.752 59.3227 135.474 58.4707C135.193 58.2833 134.942 58.1025 134.704 57.9318C133.593 57.1322 132.788 56.5536 130.682 56.5536C130.606 56.5536 130.532 56.5552 130.46 56.5584L130.903 56.311C135.229 56.0492 138.049 59.9124 139.947 62.6245C140.241 63.0435 140.906 62.944 140.906 61.3464C140.906 60.3879 139.308 57.7253 138.03 56.8733C137.749 56.6859 137.498 56.505 137.26 56.3343C136.165 55.5465 135.368 54.9733 133.33 54.9566L134.796 54.1381C134.943 54.1713 135.112 54.2295 135.313 54.3171C137.937 55.4589 139.83 58.0746 141.226 60.0683C141.519 60.4873 142.184 60.3878 142.184 58.7902C142.184 57.8317 140.587 55.1691 139.309 54.3171C139.027 54.1297 138.776 53.9489 138.539 53.7781C138.038 53.4181 137.6 53.1029 137.077 52.8652L137.992 52.3544C138.092 52.4528 138.21 52.5629 138.35 52.6853C139.787 53.9451 140.936 55.5468 141.864 56.8731Z" fill="#FFC9CA"/>
<path d="M168.402 126.258C166.481 131.54 154.697 138.841 99.3679 147.615L95.7532 172.955C121.178 168.751 182.731 162.198 194.741 145.915C206.751 129.631 188.331 82.1148 180.362 59.5856C174.067 60.2959 152.834 61.3998 147.196 65.3226C152.541 73.5309 173.683 96.8215 168.402 126.258Z" fill="#E1C0FB"/>
<defs>
<linearGradient id="paint0_linear" x1="66.1388" y1="38.9805" x2="66.1388" y2="150.81" gradientUnits="userSpaceOnUse">
<stop stop-color="#5D3FE8"/>
<stop offset="1" stop-color="#252C44"/>
</linearGradient>
<linearGradient id="paint1_linear" x1="227.759" y1="13.9704" x2="109.592" y2="75.7244" gradientUnits="userSpaceOnUse">
<stop stop-color="#428CFC"/>
<stop offset="1" stop-color="#00388B"/>
</linearGradient>
</defs>
</svg>
