<svg width="258" height="44" viewBox="0 0 258 44" fill="none" xmlns="http://www.w3.org/2000/svg">
    <rect x="0.5" y="0.5" width="257" height="43" rx="21.5" fill="white" stroke="#252C44"/>
    <path d="M74.732 17.166C74.032 17.2407 73.514 17.4973 73.178 17.936C72.842 18.3653 72.674 18.9067 72.674 19.56V23.186C72.674 23.6433 72.7347 24.0353 72.856 24.362C72.9773 24.6793 73.1407 24.9407 73.346 25.146C73.5607 25.3513 73.8033 25.5053 74.074 25.608C74.3447 25.7013 74.6293 25.7527 74.928 25.762H76.524C77.0093 25.762 77.3407 25.6453 77.518 25.412C77.6953 25.1693 77.784 24.8847 77.784 24.558V22.458C77.784 22.3833 77.7327 22.346 77.63 22.346H75.138V21.002H78.54C78.8107 21.002 79.0253 21.0813 79.184 21.24C79.352 21.3987 79.436 21.604 79.436 21.856V24.642C79.436 24.9593 79.3847 25.272 79.282 25.58C79.1887 25.8787 79.0347 26.1447 78.82 26.378C78.6053 26.6113 78.3253 26.798 77.98 26.938C77.6347 27.0873 77.2147 27.162 76.72 27.162H74.774C74.186 27.162 73.654 27.064 73.178 26.868C72.7113 26.672 72.3147 26.4013 71.988 26.056C71.6613 25.7107 71.4093 25.3093 71.232 24.852C71.064 24.3947 70.98 23.9047 70.98 23.382V19.56C70.98 18.972 71.064 18.454 71.232 18.006C71.4093 17.558 71.652 17.18 71.96 16.872C72.2773 16.564 72.6553 16.3213 73.094 16.144C73.542 15.9667 74.0413 15.8547 74.592 15.808C75.0773 15.7613 75.572 15.7473 76.076 15.766C76.5893 15.7753 77.07 15.7893 77.518 15.808C77.77 15.8267 78.0173 15.8453 78.26 15.864C78.512 15.8827 78.7593 15.9013 79.002 15.92V17.278C78.7593 17.2593 78.512 17.2407 78.26 17.222C78.008 17.2033 77.756 17.1847 77.504 17.166C77.0747 17.1473 76.6127 17.1333 76.118 17.124C75.6233 17.1053 75.1613 17.1193 74.732 17.166Z" fill="#3D7AFC"/>
    <path d="M83.9786 27.12C83.5212 27.1013 83.1059 27.0127 82.7326 26.854C82.3686 26.6953 82.0512 26.476 81.7806 26.196C81.5192 25.916 81.3139 25.5847 81.1646 25.202C81.0246 24.8193 80.9546 24.3947 80.9546 23.928V22.29C80.9546 21.8047 81.0199 21.366 81.1506 20.974C81.2906 20.5727 81.4866 20.232 81.7386 19.952C81.9999 19.6627 82.3172 19.4387 82.6906 19.28C83.0732 19.1213 83.5026 19.042 83.9786 19.042H85.2386C85.7519 19.042 86.1952 19.126 86.5686 19.294C86.9419 19.4527 87.2499 19.6813 87.4926 19.98C87.7446 20.2693 87.9312 20.6147 88.0526 21.016C88.1739 21.408 88.2346 21.8327 88.2346 22.29V23.928C88.2346 24.4413 88.1552 24.8987 87.9966 25.3C87.8472 25.692 87.6372 26.0233 87.3666 26.294C87.0959 26.5647 86.7786 26.77 86.4146 26.91C86.0506 27.05 85.6586 27.12 85.2386 27.12H83.9786ZM84.9446 25.818C85.5046 25.7713 85.9292 25.58 86.2186 25.244C86.5079 24.908 86.6526 24.446 86.6526 23.858V22.304C86.6526 22.0707 86.6246 21.8373 86.5686 21.604C86.5126 21.3707 86.4146 21.1653 86.2746 20.988C86.1439 20.8013 85.9666 20.652 85.7426 20.54C85.5279 20.4187 85.2619 20.358 84.9446 20.358H84.2166C83.6192 20.358 83.1852 20.5353 82.9146 20.89C82.6532 21.2447 82.5226 21.702 82.5226 22.262V23.886C82.5226 24.474 82.6766 24.9453 82.9846 25.3C83.2926 25.6453 83.7126 25.818 84.2446 25.818H84.9446Z" fill="#FC270B"/>
    <path d="M92.7012 27.12C92.2439 27.1013 91.8286 27.0127 91.4552 26.854C91.0912 26.6953 90.7739 26.476 90.5032 26.196C90.2419 25.916 90.0366 25.5847 89.8872 25.202C89.7472 24.8193 89.6772 24.3947 89.6772 23.928V22.29C89.6772 21.8047 89.7426 21.366 89.8732 20.974C90.0132 20.5727 90.2092 20.232 90.4612 19.952C90.7226 19.6627 91.0399 19.4387 91.4132 19.28C91.7959 19.1213 92.2252 19.042 92.7012 19.042H93.9612C94.4746 19.042 94.9179 19.126 95.2912 19.294C95.6646 19.4527 95.9726 19.6813 96.2152 19.98C96.4672 20.2693 96.6539 20.6147 96.7752 21.016C96.8966 21.408 96.9572 21.8327 96.9572 22.29V23.928C96.9572 24.4413 96.8779 24.8987 96.7192 25.3C96.5699 25.692 96.3599 26.0233 96.0892 26.294C95.8186 26.5647 95.5012 26.77 95.1372 26.91C94.7732 27.05 94.3812 27.12 93.9612 27.12H92.7012ZM93.6672 25.818C94.2272 25.7713 94.6519 25.58 94.9412 25.244C95.2306 24.908 95.3752 24.446 95.3752 23.858V22.304C95.3752 22.0707 95.3472 21.8373 95.2912 21.604C95.2352 21.3707 95.1372 21.1653 94.9972 20.988C94.8666 20.8013 94.6892 20.652 94.4652 20.54C94.2506 20.4187 93.9846 20.358 93.6672 20.358H92.9392C92.3419 20.358 91.9079 20.5353 91.6372 20.89C91.3759 21.2447 91.2452 21.702 91.2452 22.262V23.886C91.2452 24.474 91.3992 24.9453 91.7072 25.3C92.0152 25.6453 92.4352 25.818 92.9672 25.818H93.6672Z" fill="#FC260A"/>
    <path d="M104.7 19.098C104.859 19.098 104.994 19.1493 105.106 19.252C105.227 19.3547 105.288 19.5133 105.288 19.728V27.19C105.288 27.8247 105.185 28.3287 104.98 28.702C104.784 29.0847 104.518 29.374 104.182 29.57C103.846 29.766 103.454 29.892 103.006 29.948C102.558 30.0133 102.091 30.046 101.606 30.046C101.186 30.046 100.771 30.032 100.36 30.004C99.9492 29.976 99.5479 29.9387 99.1559 29.892V28.534C99.5479 28.5807 99.9492 28.618 100.36 28.646C100.78 28.6833 101.2 28.7067 101.62 28.716C101.853 28.716 102.091 28.7067 102.334 28.688C102.577 28.6693 102.796 28.618 102.992 28.534C103.197 28.4593 103.361 28.3473 103.482 28.198C103.613 28.0487 103.678 27.8387 103.678 27.568V27.022C103.351 27.0593 103.029 27.0827 102.712 27.092C102.395 27.1107 102.082 27.12 101.774 27.12C101.214 27.092 100.724 27.0267 100.304 26.924C99.8932 26.8213 99.5525 26.658 99.2819 26.434C99.0205 26.21 98.8245 25.9207 98.6939 25.566C98.5632 25.202 98.4979 24.754 98.4979 24.222V21.856C98.4979 20.96 98.7079 20.2787 99.1279 19.812C99.5479 19.336 100.271 19.0793 101.298 19.042C101.625 19.0327 101.984 19.0327 102.376 19.042C102.768 19.042 103.137 19.0467 103.482 19.056L104.7 19.098ZM101.634 20.414C101.391 20.414 101.172 20.4373 100.976 20.484C100.78 20.5213 100.617 20.5913 100.486 20.694C100.355 20.7967 100.253 20.9413 100.178 21.128C100.113 21.3053 100.08 21.5387 100.08 21.828V24.138C100.08 24.7727 100.211 25.2067 100.472 25.44C100.733 25.664 101.153 25.7713 101.732 25.762C102.077 25.762 102.399 25.762 102.698 25.762C102.997 25.7527 103.319 25.7247 103.664 25.678H103.678V20.582C103.678 20.5073 103.622 20.47 103.51 20.47C103.417 20.4607 103.319 20.456 103.216 20.456C103.113 20.4467 103.011 20.4373 102.908 20.428C102.721 20.4187 102.516 20.414 102.292 20.414C102.068 20.4047 101.849 20.4047 101.634 20.414Z" fill="#FFBE00"/>
    <path d="M107.405 27.12V15.78H109.071V26.756C109.071 26.8587 109.038 26.9427 108.973 27.008C108.917 27.0827 108.852 27.12 108.777 27.12H107.405ZM115.235 27.162C113.854 27.162 112.79 26.9007 112.043 26.378C111.306 25.8647 110.937 25.0387 110.937 23.9V22.066C110.937 21.6087 111.026 21.1933 111.203 20.82C111.381 20.4467 111.619 20.1293 111.917 19.868C112.225 19.6067 112.575 19.406 112.967 19.266C113.359 19.1167 113.77 19.042 114.199 19.042H114.913C115.324 19.042 115.725 19.1027 116.117 19.224C116.519 19.336 116.873 19.5087 117.181 19.742C117.489 19.9753 117.737 20.26 117.923 20.596C118.119 20.932 118.217 21.3193 118.217 21.758V22.92C118.217 23.1533 118.133 23.3587 117.965 23.536C117.807 23.7133 117.611 23.802 117.377 23.802H112.533V24.054C112.533 24.446 112.613 24.7587 112.771 24.992C112.93 25.216 113.14 25.3887 113.401 25.51C113.663 25.622 113.957 25.6967 114.283 25.734C114.619 25.762 114.955 25.7807 115.291 25.79C115.795 25.8087 116.257 25.804 116.677 25.776C117.107 25.7387 117.545 25.692 117.993 25.636V26.686C117.993 26.8633 117.895 26.966 117.699 26.994C117.186 27.0687 116.743 27.1153 116.369 27.134C116.005 27.1527 115.627 27.162 115.235 27.162ZM114.339 20.386C113.779 20.386 113.336 20.5213 113.009 20.792C112.692 21.0533 112.533 21.4687 112.533 22.038V22.458H116.509C116.64 22.458 116.705 22.4113 116.705 22.318V21.87C116.705 21.3473 116.537 20.9693 116.201 20.736C115.875 20.5027 115.455 20.386 114.941 20.386H114.339Z" fill="#00B04C"/>
    <path d="M121.592 23.158C121.35 23.158 121.144 23.0787 120.976 22.92C120.818 22.752 120.738 22.5513 120.738 22.318V18.79H128.214C128.308 18.79 128.354 18.7433 128.354 18.65V17.11H120.738V15.766H129.992V19.266C129.992 19.5273 129.908 19.7327 129.74 19.882C129.582 20.0313 129.381 20.106 129.138 20.106H122.362V21.674C122.362 21.7673 122.409 21.814 122.502 21.814H130.202V23.158H126.24V25.356H131.714V26.378C131.714 26.4527 131.686 26.518 131.63 26.574C131.574 26.63 131.509 26.658 131.434 26.658H119.114V25.356H124.63V23.158H121.592ZM140.691 20.022C140.691 20.3767 140.813 20.7547 141.055 21.156C141.307 21.5573 141.62 21.9493 141.993 22.332C142.376 22.7147 142.791 23.0693 143.239 23.396C143.687 23.7227 144.117 23.9887 144.527 24.194L143.547 25.356C143.258 25.216 142.941 25.0293 142.595 24.796C142.25 24.5533 141.909 24.292 141.573 24.012C141.237 23.732 140.925 23.4473 140.635 23.158C140.346 22.8687 140.113 22.6027 139.935 22.36C139.749 22.6027 139.506 22.8827 139.207 23.2C138.918 23.508 138.605 23.816 138.269 24.124C137.943 24.4227 137.611 24.7027 137.275 24.964C136.949 25.216 136.659 25.4027 136.407 25.524L135.357 24.502C135.843 24.222 136.309 23.9 136.757 23.536C137.205 23.172 137.597 22.794 137.933 22.402C138.279 22.0007 138.554 21.5947 138.759 21.184C138.965 20.764 139.067 20.358 139.067 19.966V15.668H140.691V20.022ZM145.493 28.408V15.08H147.061V28.128C147.061 28.2027 147.033 28.268 146.977 28.324C146.921 28.38 146.856 28.408 146.781 28.408H145.493ZM149.465 15.486H156.381V16.774H153.707V18.174C153.707 18.538 153.819 18.8833 154.043 19.21C154.267 19.5367 154.542 19.8353 154.869 20.106C155.205 20.3767 155.564 20.6193 155.947 20.834C156.339 21.0393 156.698 21.212 157.025 21.352L156.031 22.402C155.76 22.29 155.48 22.1547 155.191 21.996C154.902 21.828 154.622 21.646 154.351 21.45C154.08 21.254 153.824 21.0487 153.581 20.834C153.338 20.6193 153.128 20.4047 152.951 20.19C152.755 20.4327 152.522 20.6847 152.251 20.946C151.99 21.198 151.705 21.4407 151.397 21.674C151.098 21.898 150.795 22.1033 150.487 22.29C150.179 22.4767 149.885 22.626 149.605 22.738L148.597 21.716C149.101 21.5013 149.568 21.254 149.997 20.974C150.426 20.694 150.795 20.4 151.103 20.092C151.411 19.7747 151.649 19.4527 151.817 19.126C151.994 18.7993 152.083 18.482 152.083 18.174V16.774H149.465V15.486ZM161.519 19.308H159.657V22.514C159.657 22.5887 159.629 22.654 159.573 22.71C159.517 22.766 159.452 22.794 159.377 22.794H158.075V15.08H159.657V17.978H161.519V19.308ZM159.671 28.128C159.671 28.2027 159.643 28.268 159.587 28.324C159.531 28.38 159.466 28.408 159.391 28.408H158.075V25.006C158.075 24.9127 158.028 24.866 157.935 24.866H150.683V23.564H158.817C159.05 23.564 159.251 23.6433 159.419 23.802C159.587 23.9607 159.671 24.1613 159.671 24.404V28.128ZM163.755 22.318C163.755 22.654 163.806 22.9573 163.909 23.228C164.021 23.4893 164.17 23.7133 164.357 23.9C164.543 24.0867 164.763 24.2313 165.015 24.334C165.267 24.4273 165.533 24.474 165.813 24.474C166.102 24.474 166.373 24.4227 166.625 24.32C166.886 24.2173 167.105 24.0727 167.283 23.886C167.469 23.6993 167.614 23.4753 167.717 23.214C167.829 22.9433 167.885 22.6447 167.885 22.318C167.885 22.0567 167.833 21.8 167.731 21.548C167.637 21.296 167.502 21.072 167.325 20.876C167.147 20.68 166.928 20.526 166.667 20.414C166.415 20.2927 166.13 20.232 165.813 20.232C165.514 20.232 165.239 20.288 164.987 20.4C164.735 20.512 164.515 20.666 164.329 20.862C164.151 21.0487 164.011 21.268 163.909 21.52C163.806 21.772 163.755 22.038 163.755 22.318ZM162.201 22.318C162.201 21.842 162.289 21.394 162.467 20.974C162.644 20.554 162.891 20.19 163.209 19.882C163.535 19.574 163.918 19.3313 164.357 19.154C164.795 18.9673 165.281 18.874 165.813 18.874C166.326 18.874 166.802 18.9673 167.241 19.154C167.689 19.3407 168.071 19.5927 168.389 19.91C168.715 20.218 168.967 20.582 169.145 21.002C169.331 21.422 169.425 21.8607 169.425 22.318C169.425 22.794 169.336 23.2467 169.159 23.676C168.991 24.096 168.748 24.4693 168.431 24.796C168.123 25.1133 167.745 25.3653 167.297 25.552C166.849 25.7387 166.354 25.832 165.813 25.832C165.271 25.832 164.777 25.7433 164.329 25.566C163.89 25.3793 163.512 25.1273 163.195 24.81C162.877 24.4927 162.63 24.124 162.453 23.704C162.285 23.2747 162.201 22.8127 162.201 22.318ZM161.809 18.286V16.956H165.029V15.066H166.639V16.956H169.901V18.286H161.809ZM174.549 21.758H172.617V28.128C172.617 28.2027 172.589 28.268 172.533 28.324C172.477 28.38 172.411 28.408 172.337 28.408H171.063V15.066H172.617V20.414H174.549V21.758ZM185.072 15.08H186.64V28.128C186.64 28.2027 186.612 28.268 186.556 28.324C186.5 28.38 186.435 28.408 186.36 28.408H185.072V15.08ZM175.482 25.23C176.005 25.1087 176.574 24.9267 177.19 24.684C177.806 24.4413 178.38 24.1427 178.912 23.788C179.444 23.424 179.888 22.9993 180.242 22.514C180.597 22.0287 180.774 21.478 180.774 20.862L180.788 17.236C180.788 17.1427 180.737 17.096 180.634 17.096H175.832V15.752H181.572C181.815 15.752 182.011 15.8407 182.16 16.018C182.319 16.186 182.398 16.382 182.398 16.606V20.638C182.398 21.4687 182.212 22.206 181.838 22.85C181.465 23.4847 180.984 24.04 180.396 24.516C179.808 24.9827 179.155 25.37 178.436 25.678C177.718 25.9767 177.008 26.2053 176.308 26.364L175.482 25.23Z" fill="#202124"/>
</svg>
