<svg width="109" height="27" viewBox="0 0 109 27" fill="none" xmlns="http://www.w3.org/2000/svg">
<path d="M24.0624 8.69971L18.8855 27.0003H15.0872L12.0409 17.9776L8.97521 27.0003H5.20581L0 8.69971H4.8684L7.33634 18.3605L10.402 8.69971H13.699L16.7454 18.3605L19.223 8.69971H24.0624Z" fill="white"/>
<path d="M39.5312 27.0003H25.7812V8.69971H39.5312V12.7054H30.7428V15.7686H38.2521V19.7743H30.7428V23.0044H39.5312V27.0003Z" fill="white"/>
<path d="M69.6551 0.333181C68.4412 -0.372665 66.8164 0.110282 65.9666 1.15048C65.9573 1.15976 58.6643 10.0757 53.8459 15.9639C52.1464 12.5183 50.3068 8.8219 50.3068 8.8219C49.5691 7.33591 47.7669 6.72294 46.2728 7.45665L45.6845 7.74456C44.1904 8.47827 43.5741 10.2707 44.3118 11.7567L50.9885 25.2514C51.0725 25.4186 51.1659 25.5765 51.278 25.725C51.7449 26.3659 52.4546 26.7931 53.2296 26.9417C53.6218 27.016 54.0233 27.016 54.4155 26.9603C54.8638 26.8953 55.2746 26.7374 55.6481 26.4959C55.7882 26.4123 55.919 26.3102 56.0497 26.1987C56.4232 25.8736 56.7127 25.465 56.9928 25.0564C57.301 24.6013 59.2339 21.5086 59.2713 21.4528C59.2713 21.4528 59.2433 21.4621 59.2153 21.4807L70.6823 3.74167C71.4293 2.59932 70.7663 0.974014 69.6551 0.333181Z" fill="white"/>
<path d="M66.5257 17.6632C66.5257 17.4511 66.5257 17.2389 66.5257 17.0075C66.5257 15.8505 66.5555 14.9634 66.6153 14.3367C66.6751 13.71 66.7548 13.2472 66.8743 12.9483C66.9839 12.6494 67.1333 12.3987 67.3026 12.1865C67.5317 11.9262 67.8206 11.7141 68.1792 11.5598C68.5378 11.4055 68.9462 11.3284 69.3944 11.3284C69.8526 11.3284 70.271 11.4055 70.6495 11.5695C71.0281 11.7334 71.307 11.9358 71.5062 12.1865C71.7751 12.5144 71.9744 12.9772 72.0939 13.5846C72.2134 14.1921 72.2732 15.3298 72.2732 17.0075C72.2732 18.6756 72.2134 19.8037 72.0939 20.3919C72.0839 20.4497 72.064 20.4883 72.0441 20.5461C73.4187 21.1632 74.8531 21.6453 76.3273 21.896C76.5764 21.9346 76.8154 21.9539 77.0645 21.9828C77.2139 21.5007 77.3334 20.9993 77.3832 20.4979C77.4629 19.7073 77.5027 18.7624 77.5027 17.6728V17.0172V16.3615C77.5027 15.2623 77.4629 14.3271 77.3832 13.5364C77.3035 12.7458 77.1043 11.9841 76.7955 11.2416C76.4867 10.4992 76.0086 9.8339 75.3611 9.24573C74.5642 8.51294 73.6877 7.96335 72.7414 7.59696C71.7951 7.23056 70.6794 7.04736 69.3944 7.04736C68.1194 7.04736 67.0038 7.23056 66.0674 7.58731C65.1311 7.94407 64.2545 8.49366 63.4477 9.24573C62.5113 10.1039 61.9137 11.0874 61.6647 12.1865C61.4156 13.2857 61.2861 14.6838 61.2861 16.3615V17.0172V17.3643C62.7006 16.9497 64.4737 16.8822 66.5257 17.6632Z" fill="white"/>
<path d="M61.6547 21.8386C61.9038 22.9377 62.5014 23.9116 63.4378 24.7697C63.9657 25.2615 64.5235 25.6761 65.1112 25.9943C65.6989 26.3124 66.3464 26.5631 67.0437 26.727C67.7409 26.891 68.5279 26.9777 69.3945 26.9777C70.6795 26.9777 71.8051 26.7945 72.7514 26.4185C73.6977 26.0425 74.5742 25.4929 75.3612 24.7697C76.0086 24.1816 76.4868 23.5163 76.7956 22.7738C76.9051 22.5135 76.9848 22.2435 77.0645 21.9736C76.8155 21.9446 76.5764 21.9253 76.3274 21.8868C74.8432 21.6361 73.4088 21.154 72.0441 20.5369C71.9246 21.0479 71.7453 21.4722 71.4963 21.7904C70.9982 22.3785 70.3009 22.6774 69.3845 22.6774C68.488 22.6774 67.7908 22.3785 67.2927 21.7904C67.1134 21.5879 66.9739 21.3372 66.8644 21.0383C66.7548 20.7394 66.6652 20.2862 66.6054 19.6595C66.5556 19.1581 66.5357 18.4832 66.5257 17.6539C64.4837 16.8826 62.7007 16.9404 61.2862 17.3454V17.6539C61.2762 19.3509 61.4057 20.7394 61.6547 21.8386Z" fill="white"/>
<path d="M88.1913 18.5029V11.3003H93.4508V7H77.6924V11.2907H82.9518V21.0966C83.938 20.7495 84.8942 20.3156 85.8007 19.7756C86.5677 19.3225 87.3745 18.8982 88.1913 18.5029Z" fill="white"/>
<path d="M88.1912 26.6314V18.5032C87.3744 18.8985 86.5675 19.3227 85.8005 19.7759C84.8841 20.3159 83.9278 20.7498 82.9517 21.0969V26.6314H88.1912Z" fill="white"/>
<path d="M107.655 19.0612V14.7705H99.7361V11.4826H109V7.19189H94.4966V16.4289C99.0488 15.4936 103.73 15.9757 107.655 19.0612Z" fill="white"/>
<path d="M109 26.8226V22.5222H99.7361V19.0608H107.655C103.73 15.9657 99.0488 15.4932 94.4966 16.4285V26.8129H109V26.8226Z" fill="white"/>
</svg>
