<svg width="268" height="251" viewBox="0 0 268 251" fill="none" xmlns="http://www.w3.org/2000/svg">
<path opacity="0.2" d="M8.05611 76.9377C6.26587 69.7433 2.1483 51.8148 0 37.6562V4.84963C6.08684 3.26686 28.1427 0.101318 67.6713 0.101318H72.505L80.5611 13.0513H85.3948L90.7655 0.101318L96.6733 13.0513H105.804L111.174 0.101318H215.367C212.86 6.28852 209.352 22.4616 215.367 37.6562C218.052 52.3328 225.679 86.1753 234.701 104.133H223.423L234.701 118.809L243.295 145.572V154.637L234.701 160.681V164.997H251.351L268 235.359H228.257H207.848C198.538 237.517 178.094 240.539 170.79 235.359C163.485 230.179 133.731 237.517 119.768 241.834L105.804 228.452L111.174 241.834H96.6733L90.7655 228.452L80.5611 246.582L46.1884 250.899C42.2498 250.899 34.3727 249.086 34.3727 241.834C29.002 227.157 18.2605 192.797 18.2605 172.767L26.8537 164.997C23.9893 161.112 16.2196 151.788 8.05611 145.572C-0.107415 139.356 4.65464 127.73 8.05611 122.694L18.2605 118.809V104.133H8.05611V89.8876L18.2605 86.0026L8.05611 76.9377Z" fill="url(#paint0_linear)"/>
<path opacity="0.2" fill-rule="evenodd" clip-rule="evenodd" d="M150.993 50.5078L159.184 58.6994L162.72 55.1639L154.528 46.9722L162.72 38.7805L159.184 35.245L150.993 43.4367L142.801 35.245L139.265 38.7805L147.457 46.9722L139.265 55.1639L142.801 58.6994L150.993 50.5078Z" fill="#3A2B7D"/>
<path opacity="0.2" d="M168.974 135.826C165.361 127.244 160.056 109.167 167.738 105.521C169.862 104.244 173.719 103.789 172.163 112.185C175.03 117.029 181.473 123.71 184.305 111.69C185.364 103.711 189.613 89.0944 198.138 94.4608C208.793 101.169 205.565 94.7532 207.953 102.394C210.341 110.034 202.641 110.348 199.046 116.744C196.17 121.861 203.147 127.588 206.995 129.812C210.75 129.758 219.508 131.147 224.498 137.134C230.736 144.617 229.026 153.615 225.297 156.743C222.314 159.245 220.429 165.869 219.859 168.869C221.346 171.387 225.569 179.409 230.564 191.347C229.823 197.429 226.416 210.385 218.714 213.555C205.999 216.951 177.121 222.155 163.336 215.813C149.551 209.471 149.165 195.658 150.696 189.544C150.317 185.096 153.684 174.066 170.185 165.537C174.649 163.47 180.657 154.634 168.974 135.826Z" fill="#AB99FE"/>
<path opacity="0.2" d="M45.2703 85.2095C82.9351 83.7608 101.556 100.149 108.196 111.466C116.96 126.405 112.27 149.493 108.196 157.642C104.936 164.161 100.953 174.392 86.4662 190.689C69.7162 216.041 98.2365 215.739 108.196 212.419C114.986 210.155 129.201 200.377 131.736 179.372C134.905 153.115 126.757 106.034 155.277 89.7365C169.763 81.4585 177.459 63.6307 181.081 57.5946C193.304 30.4325 181.836 17.3041 174.291 11.8717C147.581 0.554102 135.056 13.9842 131.736 20.0203C126.304 29.4365 134.604 43.4099 139.432 45.8244" stroke="#50619B" stroke-width="4" stroke-dasharray="5.1 5.1"/>
<path opacity="0.2" d="M141.022 61.3477C138.622 56.782 137.14 44.7201 150.415 32.9979C153.442 31.5114 159.495 30.1948 159.495 36.8204C160.956 39.0501 163.878 45.0386 163.878 51.1545C161.06 56.5697 154.861 66.4443 152.607 62.6219C150.353 58.7994 143.945 60.1798 141.022 61.3477Z" fill="#9D88FF"/>
<path opacity="0.2" d="M37.2465 112.725C45.2283 105.913 67.9729 99.0552 95.0969 126.125C98.9948 132.637 103.598 146.136 90.8265 148.037C87.027 152.026 76.4807 160.443 64.6919 162.197C53.2926 157.29 32.1437 145.912 38.7426 139.647C45.3416 133.383 40.4948 119.089 37.2465 112.725Z" fill="#9D88FF"/>
<path opacity="0.2" d="M28.9714 8.01699L29.5078 7.96493L31.474 11.5578L31.1103 7.80943L31.7652 7.74588L32.3129 13.3894L31.8112 13.4381L29.814 9.74268L30.1878 13.5956L29.519 13.6605L28.9714 8.01699Z" fill="black"/>
<path opacity="0.2" d="M55.2581 29.6696L57.4458 29.4573L57.5026 30.0425L56.1022 30.1784L56.2834 32.0457L57.419 31.9355L57.4731 32.4928L56.3375 32.603L56.5383 34.6723L57.9526 34.5351L58.0074 35.0994L55.8057 35.3131L55.2581 29.6696Z" fill="black"/>
<path opacity="0.2" d="M6.86758 34.7069L7.52251 34.6433L8.52214 38.6395L8.89012 34.5317L9.4475 34.4776L10.6074 38.4582L10.8041 34.3249L11.4451 34.2627L11.087 39.9941L10.5156 40.0495L9.3227 35.9455L8.93408 40.203L8.33489 40.2611L6.86758 34.7069Z" fill="black"/>
<path opacity="0.2" d="M37.0492 61.9565C36.5754 62.0025 36.1989 61.8913 35.9197 61.623C35.6451 61.3543 35.4691 60.9658 35.3917 60.4576L36.0701 60.2018C36.1285 60.5619 36.2266 60.8478 36.3643 61.0594C36.5067 61.2707 36.715 61.363 36.989 61.3364C37.1934 61.3166 37.3412 61.246 37.4326 61.1246C37.5282 60.9981 37.5656 60.828 37.5449 60.6143C37.5223 60.3821 37.4548 60.1941 37.3424 60.0502C37.23 59.9064 37.058 59.752 36.8263 59.5869L35.7976 58.8428C35.5909 58.6941 35.4342 58.5288 35.3275 58.3469C35.225 58.1599 35.1602 57.9271 35.1331 57.6484C35.093 57.235 35.1804 56.903 35.3952 56.6524C35.61 56.4019 35.9217 56.2567 36.3305 56.2171C36.7764 56.1738 37.1246 56.2596 37.3752 56.4744C37.6258 56.6892 37.7984 57.0428 37.8931 57.5353L37.2418 57.7814C37.1866 57.4538 37.097 57.207 36.973 57.0409C36.8533 56.8696 36.6587 56.7971 36.3893 56.8232C36.1896 56.8426 36.0415 56.9109 35.945 57.0281C35.8481 57.1406 35.8096 57.2991 35.8294 57.5035C35.8456 57.6707 35.8872 57.8097 35.9542 57.9204C36.0208 58.0264 36.127 58.131 36.273 58.234L37.3087 58.9775C37.576 59.1719 37.7941 59.3899 37.9629 59.6314C38.1363 59.8724 38.2388 60.1555 38.2703 60.4806C38.3105 60.894 38.2168 61.2337 37.9894 61.4995C37.762 61.7654 37.4486 61.9177 37.0492 61.9565Z" fill="black"/>
<ellipse opacity="0.2" cx="33.0199" cy="34.2608" rx="19.9911" ry="0.768889" transform="rotate(-6.79205 33.0199 34.2608)" fill="#5D3FE8"/>
<ellipse opacity="0.2" cx="33.1381" cy="34.2658" rx="19.9911" ry="0.768888" transform="rotate(83.2079 33.1381 34.2658)" fill="#5D3FE8"/>
<circle opacity="0.2" cx="33.0863" cy="34.3355" r="10.3176" transform="rotate(7.77086 33.0863 34.3355)" stroke="#252C44" stroke-width="2"/>
<defs>
<linearGradient id="paint0_linear" x1="134" y1="0.101318" x2="134" y2="250.899" gradientUnits="userSpaceOnUse">
<stop stop-color="#D2C9FF"/>
<stop offset="1" stop-color="#8599DE"/>
</linearGradient>
</defs>
</svg>
