<svg width="226" height="266" viewBox="0 0 226 266" fill="none" xmlns="http://www.w3.org/2000/svg">
<g opacity="0.15">
<circle r="24.8397" transform="matrix(0.965926 0.258819 0.258819 -0.965926 145.968 37.1584)" stroke="#5D3FE8" stroke-width="11"/>
<path d="M201.013 186.407C177.947 226.032 148.578 256.922 95.0942 242.591C43.8863 228.87 18.7744 185.144 22.9233 138.688C31.302 175.014 39.3615 200.239 101.949 217.009C160.553 232.712 171.685 207.466 201.013 186.407Z" fill="#4360C0"/>
<path d="M133.747 52.4555C134.986 48.6929 138.947 46.5526 142.774 47.5779C146.6 48.6032 148.961 52.4375 148.153 56.3157L110.103 238.993C107.993 249.123 97.8016 255.397 87.8065 252.719C77.8113 250.041 72.1223 239.512 75.3601 229.684L133.747 52.4555Z" fill="url(#paint0_linear)"/>
<path d="M210.313 176.682L199.381 215.759C198.854 217.644 196.214 217.728 195.568 215.881L189.697 199.099L172.483 194.65C170.588 194.161 170.452 191.522 172.285 190.84L210.313 176.682Z" fill="#4360C0"/>
<path d="M21.1481 125.467L43.6214 159.254C44.7052 160.883 43.0457 162.939 41.2244 162.223L24.6776 155.719L10.0726 165.858C8.46513 166.974 6.377 165.355 7.05657 163.52L21.1481 125.467Z" fill="#4360C0"/>
<rect x="67.8013" y="73.3958" width="133.028" height="21.0044" rx="10" transform="rotate(15 67.8013 73.3958)" fill="#7D00D9"/>
</g>
<defs>
<linearGradient id="paint0_linear" x1="142.774" y1="47.5779" x2="87.8065" y2="252.719" gradientUnits="userSpaceOnUse">
<stop stop-color="#252C44"/>
<stop offset="1" stop-color="#4F2BF5"/>
</linearGradient>
</defs>
</svg>
