<svg width="188" height="178" viewBox="0 0 188 178" fill="none" xmlns="http://www.w3.org/2000/svg">
    <ellipse rx="19.563" ry="18.4694" transform="matrix(-0.96529 0.261182 0.261389 0.965234 78.2379 86.7937)" fill="#FBB8BA"/>
    <path d="M111.092 126.607C108.089 112.355 95.5166 102.152 80.9517 102.148C67.0969 102.144 54.9432 111.388 51.2477 124.741L42.66 155.771L117.267 155.911L111.092 126.607Z" fill="#C9AEDD"/>
    <path d="M55.3924 84.7588C58.1225 82.782 59.6985 81.1176 62.0657 79.4641L60.7597 86.7956L55.3924 84.7588Z" fill="#FBB8BA"/>
    <path d="M21.7506 49.3686C20.806 51.0108 18.8859 54.1806 18.9054 59.4034L11.6339 61.3709C9.77825 59.8325 5.72258 56.2201 4.34545 54.078C2.96831 51.9358 3.42707 50.6867 4.35534 50.4355C4.48371 49.908 5.1576 48.9419 6.1018 48.6864C6.27454 48.0769 6.8135 47.206 7.73082 46.9578C7.47996 45.3161 7.99155 41.5932 8.80888 38.7249C9.15528 37.5093 11.27 37.8339 11.3004 39.2914C11.0901 42.1594 9.73661 47.1402 14.3172 49.5024C15.1059 49.7578 17.0383 50.3624 18.9204 48.7281C20.3541 47.7887 23.2457 46.2988 21.7506 49.3686Z" fill="#FBB8BA"/>
    <path d="M107.08 76.461C104.917 72.3565 96.9732 63.506 82.4963 60.9402C69.8399 59.525 60.4442 65.8264 57.3951 77.1861C63.7521 77.7921 76.7558 80.0737 77.9144 84.3523C77.9818 87.3729 77.2748 93.965 82.0455 99.6073C88.0815 103.602 90.6782 101.548 92.7095 109.049C94.2564 114.762 99.7647 125.539 110.234 124.282C124.637 124.662 121.996 134.538 128.47 138.819C136.261 142.226 150.172 142.451 166.182 122.988C174.399 112.998 176.137 105.28 175.691 95.3162C174.225 86.9934 169.936 83.8771 160.373 87.8151C158.18 89.8342 151.207 92.6363 140.86 87.6924C139.275 85.7201 132.649 81.9006 118.822 82.4004C116.518 82.7613 110.943 82.0786 107.08 76.461Z" fill="url(#paint0_linear)"/>
    <path d="M22.1274 57.9688C25.5349 67.3639 39.889 90.7096 70.0456 108.932L56.0682 130.497C40.4928 116.778 8.64034 83.3401 5.83382 59.3385L22.1274 57.9688Z" fill="#C9AEDD"/>
    <defs>
        <linearGradient id="paint0_linear" x1="74.4673" y1="38.3225" x2="156.96" y2="126.745" gradientUnits="userSpaceOnUse">
            <stop stop-color="#2C16C7"/>
            <stop offset="1" stop-color="#252C44"/>
        </linearGradient>
    </defs>
</svg>
