<svg width="130" height="44" viewBox="0 0 130 44" fill="none" xmlns="http://www.w3.org/2000/svg">
    <rect width="130" height="44" rx="22" fill="#5D3FE8"/>
    <path d="M45.182 25.202H50.544V23.326H47.604C47.3613 23.326 47.156 23.242 46.988 23.074C46.8293 22.906 46.75 22.71 46.75 22.486V18.636H54.03C54.1233 18.636 54.17 18.5893 54.17 18.496V17.306H46.75V15.668H56.158V19.406C56.158 19.6767 56.0787 19.8867 55.92 20.036C55.7613 20.176 55.556 20.246 55.304 20.246H48.738V21.548C48.738 21.6413 48.7847 21.688 48.878 21.688H56.368V23.326H52.504V25.202H57.824V26.49C57.824 26.5647 57.796 26.63 57.74 26.686C57.684 26.742 57.6187 26.77 57.544 26.77H45.182V25.202ZM58.2116 26.602V24.978H66.4436C66.593 24.6887 66.719 24.3293 66.8216 23.9C66.9336 23.4613 67.027 23.0133 67.1016 22.556C67.1763 22.0987 67.2323 21.6553 67.2696 21.226C67.307 20.7967 67.3256 20.442 67.3256 20.162V17.39C67.3256 17.3993 67.3116 17.3993 67.2836 17.39C67.265 17.3713 67.2556 17.3573 67.2556 17.348H59.7796V15.738H68.2496C68.5016 15.738 68.721 15.8267 68.9076 16.004C69.1036 16.172 69.2016 16.3867 69.2016 16.648V20.358C69.2016 20.5073 69.1876 20.7593 69.1596 21.114C69.141 21.4593 69.099 21.8513 69.0336 22.29C68.9776 22.7287 68.8983 23.186 68.7956 23.662C68.693 24.138 68.567 24.5767 68.4176 24.978H70.8676V26.322C70.8676 26.3967 70.8396 26.462 70.7836 26.518C70.7276 26.574 70.6623 26.602 70.5876 26.602H58.2116ZM71.7313 18.818C71.7313 18.258 71.8246 17.754 72.0113 17.306C72.2073 16.858 72.4686 16.4753 72.7953 16.158C73.1219 15.8407 73.5093 15.598 73.9573 15.43C74.4053 15.262 74.8813 15.178 75.3853 15.178C75.8986 15.178 76.3746 15.262 76.8133 15.43C77.2519 15.598 77.6299 15.8407 77.9473 16.158C78.2739 16.4753 78.5306 16.858 78.7173 17.306C78.9039 17.754 78.9973 18.258 78.9973 18.818C79.0066 19.3593 78.9179 19.854 78.7313 20.302C78.5539 20.75 78.3019 21.1373 77.9753 21.464C77.6486 21.7907 77.2613 22.0473 76.8133 22.234C76.3746 22.4113 75.8986 22.5 75.3853 22.5C74.8906 22.5 74.4239 22.4207 73.9853 22.262C73.5466 22.094 73.1593 21.8513 72.8233 21.534C72.4873 21.2167 72.2213 20.8293 72.0253 20.372C71.8293 19.9147 71.7313 19.3967 71.7313 18.818ZM80.6773 24.698V15.08H82.5393V24.404C82.5393 24.4787 82.5066 24.5487 82.4413 24.614C82.3853 24.67 82.3153 24.698 82.2313 24.698H80.6773ZM82.7633 28.156C82.7633 28.2307 82.7353 28.296 82.6793 28.352C82.6233 28.4173 82.5579 28.45 82.4833 28.45H74.3493C74.1346 28.45 73.9386 28.366 73.7613 28.198C73.5839 28.0393 73.4953 27.834 73.4953 27.582V23.928H75.3853V26.742C75.3853 26.798 75.3993 26.8353 75.4273 26.854C75.4553 26.8727 75.4786 26.882 75.4973 26.882H82.7633V28.156ZM73.5373 18.86C73.5373 19.504 73.7053 20.008 74.0413 20.372C74.3866 20.736 74.8253 20.918 75.3573 20.918C75.9079 20.918 76.3513 20.736 76.6873 20.372C77.0233 20.008 77.1913 19.504 77.1913 18.86C77.1913 18.524 77.1399 18.23 77.0373 17.978C76.9439 17.7167 76.8133 17.4973 76.6453 17.32C76.4773 17.1427 76.2813 17.0073 76.0573 16.914C75.8333 16.8207 75.5999 16.774 75.3573 16.774C74.8253 16.774 74.3866 16.9607 74.0413 17.334C73.7053 17.7073 73.5373 18.216 73.5373 18.86Z" fill="white"/>
</svg>
