<svg width="380" height="490" viewBox="0 0 380 490" fill="none" xmlns="http://www.w3.org/2000/svg">
<rect x="0.25" y="0.25" width="379.5" height="489.5" rx="19.75" fill="white" stroke="#9E9E9E" stroke-width="0.5"/>
<circle cx="171.5" cy="339.5" r="6.5" fill="#5D3FE8"/>
<path d="M25.406 27.992C25.382 27.692 25.298 27.446 25.154 27.254C25.01 27.05 24.824 26.894 24.596 26.786C24.38 26.666 24.14 26.582 23.876 26.534C23.612 26.486 23.354 26.456 23.102 26.444C22.934 26.444 22.682 26.45 22.346 26.462C22.022 26.474 21.644 26.504 21.212 26.552C20.792 26.6 20.336 26.672 19.844 26.768C19.352 26.852 18.86 26.972 18.368 27.128V25.328C18.872 25.16 19.376 25.034 19.88 24.95C20.384 24.854 20.846 24.788 21.266 24.752C21.698 24.704 22.07 24.68 22.382 24.68C22.706 24.668 22.94 24.662 23.084 24.662C23.672 24.674 24.224 24.74 24.74 24.86C25.268 24.968 25.73 25.148 26.126 25.4C26.522 25.64 26.84 25.958 27.08 26.354C27.32 26.75 27.452 27.23 27.476 27.794V28.244C27.476 28.628 27.41 29.012 27.278 29.396C27.146 29.78 26.972 30.146 26.756 30.494C26.54 30.842 26.294 31.172 26.018 31.484C25.754 31.784 25.49 32.048 25.226 32.276L20.6 36.164C20.54 36.212 20.486 36.26 20.438 36.308C20.39 36.356 20.342 36.41 20.294 36.47C20.21 36.566 20.138 36.674 20.078 36.794C20.018 36.902 19.988 37.022 19.988 37.154V37.622C19.988 37.694 20.036 37.73 20.132 37.73H27.71V39.062C27.71 39.158 27.674 39.242 27.602 39.314C27.542 39.398 27.47 39.44 27.386 39.44H18.548C18.38 39.44 18.218 39.368 18.062 39.224C17.918 39.08 17.846 38.906 17.846 38.702V37.136C17.846 36.848 17.9 36.584 18.008 36.344C18.128 36.092 18.26 35.876 18.404 35.696C18.56 35.492 18.752 35.294 18.98 35.102L23.606 31.196C23.834 31.004 24.056 30.8 24.272 30.584C24.488 30.356 24.68 30.122 24.848 29.882C25.016 29.63 25.148 29.372 25.244 29.108C25.352 28.832 25.406 28.556 25.406 28.28V27.992ZM34.1661 24.734C35.0661 24.734 35.8461 24.89 36.5061 25.202C37.1661 25.502 37.7061 25.934 38.1261 26.498C38.5581 27.05 38.8761 27.722 39.0801 28.514C39.2961 29.294 39.4041 30.164 39.4041 31.124V33.77C39.3921 34.694 39.2901 35.534 39.0981 36.29C38.9061 37.034 38.6001 37.67 38.1801 38.198C37.7721 38.726 37.2441 39.134 36.5961 39.422C35.9481 39.71 35.1621 39.854 34.2381 39.854C33.3861 39.854 32.6361 39.716 31.9881 39.44C31.3521 39.164 30.8181 38.768 30.3861 38.252C29.9541 37.736 29.6301 37.112 29.4141 36.38C29.1981 35.636 29.0901 34.802 29.0901 33.878V30.62C29.0901 29.828 29.1801 29.078 29.3601 28.37C29.5401 27.65 29.8281 27.026 30.2241 26.498C30.6321 25.958 31.1541 25.532 31.7901 25.22C32.4381 24.896 33.2301 24.734 34.1661 24.734ZM34.3641 38.108C34.9161 38.108 35.3781 38.006 35.7501 37.802C36.1221 37.598 36.4221 37.31 36.6501 36.938C36.8781 36.554 37.0401 36.092 37.1361 35.552C37.2441 35.012 37.3101 34.4 37.3341 33.716V30.926C37.3341 30.23 37.2801 29.606 37.1721 29.054C37.0641 28.502 36.8841 28.04 36.6321 27.668C36.3921 27.284 36.0681 26.996 35.6601 26.804C35.2641 26.6 34.7721 26.498 34.1841 26.498C33.6441 26.498 33.1821 26.6 32.7981 26.804C32.4261 27.008 32.1201 27.302 31.8801 27.686C31.6401 28.07 31.4661 28.538 31.3581 29.09C31.2501 29.63 31.1961 30.242 31.1961 30.926V33.716C31.1961 34.4 31.2561 35.012 31.3761 35.552C31.4961 36.092 31.6821 36.554 31.9341 36.938C32.1861 37.31 32.5101 37.598 32.9061 37.802C33.3141 38.006 33.8001 38.108 34.3641 38.108ZM48.3982 27.992C48.3742 27.692 48.2902 27.446 48.1462 27.254C48.0022 27.05 47.8162 26.894 47.5882 26.786C47.3722 26.666 47.1322 26.582 46.8682 26.534C46.6042 26.486 46.3462 26.456 46.0942 26.444C45.9262 26.444 45.6742 26.45 45.3382 26.462C45.0142 26.474 44.6362 26.504 44.2042 26.552C43.7842 26.6 43.3282 26.672 42.8362 26.768C42.3442 26.852 41.8522 26.972 41.3602 27.128V25.328C41.8642 25.16 42.3682 25.034 42.8722 24.95C43.3762 24.854 43.8382 24.788 44.2582 24.752C44.6902 24.704 45.0622 24.68 45.3742 24.68C45.6982 24.668 45.9322 24.662 46.0762 24.662C46.6642 24.674 47.2162 24.74 47.7322 24.86C48.2602 24.968 48.7222 25.148 49.1182 25.4C49.5142 25.64 49.8322 25.958 50.0722 26.354C50.3122 26.75 50.4442 27.23 50.4682 27.794V28.244C50.4682 28.628 50.4022 29.012 50.2702 29.396C50.1382 29.78 49.9642 30.146 49.7482 30.494C49.5322 30.842 49.2862 31.172 49.0102 31.484C48.7462 31.784 48.4822 32.048 48.2182 32.276L43.5922 36.164C43.5322 36.212 43.4782 36.26 43.4302 36.308C43.3822 36.356 43.3342 36.41 43.2862 36.47C43.2022 36.566 43.1302 36.674 43.0702 36.794C43.0102 36.902 42.9802 37.022 42.9802 37.154V37.622C42.9802 37.694 43.0282 37.73 43.1242 37.73H50.7022V39.062C50.7022 39.158 50.6662 39.242 50.5942 39.314C50.5342 39.398 50.4622 39.44 50.3782 39.44H41.5402C41.3722 39.44 41.2102 39.368 41.0542 39.224C40.9102 39.08 40.8382 38.906 40.8382 38.702V37.136C40.8382 36.848 40.8922 36.584 41.0002 36.344C41.1202 36.092 41.2522 35.876 41.3962 35.696C41.5522 35.492 41.7442 35.294 41.9722 35.102L46.5982 31.196C46.8262 31.004 47.0482 30.8 47.2642 30.584C47.4802 30.356 47.6722 30.122 47.8402 29.882C48.0082 29.63 48.1402 29.372 48.2362 29.108C48.3442 28.832 48.3982 28.556 48.3982 28.28V27.992ZM56.9063 39.476V26.822C56.9063 26.678 56.8163 26.606 56.6363 26.606H54.5663V24.86H57.8783C58.2023 24.86 58.4543 24.944 58.6343 25.112C58.8263 25.268 58.9223 25.502 58.9223 25.814V39.044C58.9223 39.152 58.8923 39.248 58.8323 39.332C58.7723 39.428 58.6583 39.476 58.4903 39.476H56.9063ZM64.0644 39.512V37.514H66.1164V39.512H64.0644ZM72.961 24.734C73.861 24.734 74.641 24.89 75.301 25.202C75.961 25.502 76.501 25.934 76.921 26.498C77.353 27.05 77.671 27.722 77.875 28.514C78.091 29.294 78.199 30.164 78.199 31.124V33.77C78.187 34.694 78.085 35.534 77.893 36.29C77.701 37.034 77.395 37.67 76.975 38.198C76.567 38.726 76.039 39.134 75.391 39.422C74.743 39.71 73.957 39.854 73.033 39.854C72.181 39.854 71.431 39.716 70.783 39.44C70.147 39.164 69.613 38.768 69.181 38.252C68.749 37.736 68.425 37.112 68.209 36.38C67.993 35.636 67.885 34.802 67.885 33.878V30.62C67.885 29.828 67.975 29.078 68.155 28.37C68.335 27.65 68.623 27.026 69.019 26.498C69.427 25.958 69.949 25.532 70.585 25.22C71.233 24.896 72.025 24.734 72.961 24.734ZM73.159 38.108C73.711 38.108 74.173 38.006 74.545 37.802C74.917 37.598 75.217 37.31 75.445 36.938C75.673 36.554 75.835 36.092 75.931 35.552C76.039 35.012 76.105 34.4 76.129 33.716V30.926C76.129 30.23 76.075 29.606 75.967 29.054C75.859 28.502 75.679 28.04 75.427 27.668C75.187 27.284 74.863 26.996 74.455 26.804C74.059 26.6 73.567 26.498 72.979 26.498C72.439 26.498 71.977 26.6 71.593 26.804C71.221 27.008 70.915 27.302 70.675 27.686C70.435 28.07 70.261 28.538 70.153 29.09C70.045 29.63 69.991 30.242 69.991 30.926V33.716C69.991 34.4 70.051 35.012 70.171 35.552C70.291 36.092 70.477 36.554 70.729 36.938C70.981 37.31 71.305 37.598 71.701 37.802C72.109 38.006 72.595 38.108 73.159 38.108ZM87.1931 27.992C87.1691 27.692 87.0851 27.446 86.9411 27.254C86.7971 27.05 86.6111 26.894 86.3831 26.786C86.1671 26.666 85.9271 26.582 85.6631 26.534C85.3991 26.486 85.1411 26.456 84.8891 26.444C84.7211 26.444 84.4691 26.45 84.1331 26.462C83.8091 26.474 83.4311 26.504 82.9991 26.552C82.5791 26.6 82.1231 26.672 81.6311 26.768C81.1391 26.852 80.6471 26.972 80.1551 27.128V25.328C80.6591 25.16 81.1631 25.034 81.6671 24.95C82.1711 24.854 82.6331 24.788 83.0531 24.752C83.4851 24.704 83.8571 24.68 84.1691 24.68C84.4931 24.668 84.7271 24.662 84.8711 24.662C85.4591 24.674 86.0111 24.74 86.5271 24.86C87.0551 24.968 87.5171 25.148 87.9131 25.4C88.3091 25.64 88.6271 25.958 88.8671 26.354C89.1071 26.75 89.2391 27.23 89.2631 27.794V28.244C89.2631 28.628 89.1971 29.012 89.0651 29.396C88.9331 29.78 88.7591 30.146 88.5431 30.494C88.3271 30.842 88.0811 31.172 87.8051 31.484C87.5411 31.784 87.2771 32.048 87.0131 32.276L82.3871 36.164C82.3271 36.212 82.2731 36.26 82.2251 36.308C82.1771 36.356 82.1291 36.41 82.0811 36.47C81.9971 36.566 81.9251 36.674 81.8651 36.794C81.8051 36.902 81.7751 37.022 81.7751 37.154V37.622C81.7751 37.694 81.8231 37.73 81.9191 37.73H89.4971V39.062C89.4971 39.158 89.4611 39.242 89.3891 39.314C89.3291 39.398 89.2571 39.44 89.1731 39.44H80.3351C80.1671 39.44 80.0051 39.368 79.8491 39.224C79.7051 39.08 79.6331 38.906 79.6331 38.702V37.136C79.6331 36.848 79.6871 36.584 79.7951 36.344C79.9151 36.092 80.0471 35.876 80.1911 35.696C80.3471 35.492 80.5391 35.294 80.7671 35.102L85.3931 31.196C85.6211 31.004 85.8431 30.8 86.0591 30.584C86.2751 30.356 86.4671 30.122 86.6351 29.882C86.8031 29.63 86.9351 29.372 87.0311 29.108C87.1391 28.832 87.1931 28.556 87.1931 28.28V27.992Z" fill="#252C44"/>
<line x1="271.5" y1="76" x2="271.5" y2="490" stroke="#F2F2F2"/>
<line x1="325.5" y1="76" x2="325.5" y2="490" stroke="#F2F2F2"/>
<line x1="217.5" y1="76" x2="217.5" y2="490" stroke="#F2F2F2"/>
<line x1="163.5" y1="76" x2="163.5" y2="490" stroke="#F2F2F2"/>
<line x1="109.5" y1="76" x2="109.5" y2="490" stroke="#F2F2F2"/>
<line x1="55.5" y1="76" x2="55.5" y2="490" stroke="#F2F2F2"/>
<path d="M24.9916 73.56C24.9916 73.7733 25.0282 73.97 25.1016 74.15C25.1749 74.3233 25.2716 74.4733 25.3916 74.6C25.5182 74.72 25.6649 74.8133 25.8316 74.88C26.0049 74.9467 26.1916 74.98 26.3916 74.98C26.6116 74.98 26.8082 74.94 26.9816 74.86C27.1549 74.78 27.2982 74.6767 27.4116 74.55C27.5316 74.4167 27.6216 74.2667 27.6816 74.1C27.7416 73.9267 27.7716 73.7467 27.7716 73.56C27.7716 73.38 27.7382 73.21 27.6716 73.05C27.6049 72.8833 27.5116 72.74 27.3916 72.62C27.2716 72.5 27.1249 72.4033 26.9516 72.33C26.7849 72.2567 26.5982 72.22 26.3916 72.22C26.1716 72.22 25.9749 72.26 25.8016 72.34C25.6282 72.4133 25.4816 72.5133 25.3616 72.64C25.2416 72.7667 25.1482 72.91 25.0816 73.07C25.0216 73.23 24.9916 73.3933 24.9916 73.56ZM23.8616 73.57C23.8616 73.2167 23.9249 72.9 24.0516 72.62C24.1849 72.3333 24.3649 72.09 24.5916 71.89C24.8249 71.69 25.0949 71.5367 25.4016 71.43C25.7082 71.3233 26.0382 71.27 26.3916 71.27C26.7449 71.27 27.0716 71.3233 27.3716 71.43C27.6782 71.5367 27.9416 71.69 28.1616 71.89C28.3882 72.09 28.5649 72.3333 28.6916 72.62C28.8249 72.9 28.8949 73.2167 28.9016 73.57C28.9082 73.9033 28.8482 74.2167 28.7216 74.51C28.5949 74.7967 28.4149 75.0467 28.1816 75.26C27.9549 75.4667 27.6882 75.63 27.3816 75.75C27.0749 75.87 26.7449 75.93 26.3916 75.93C26.0516 75.93 25.7282 75.8767 25.4216 75.77C25.1149 75.6567 24.8449 75.4967 24.6116 75.29C24.3849 75.0833 24.2016 74.8367 24.0616 74.55C23.9282 74.2567 23.8616 73.93 23.8616 73.57ZM30.4016 76.09V71.2H31.5216V75.89C31.5216 75.9433 31.5016 75.99 31.4616 76.03C31.4216 76.07 31.3749 76.09 31.3216 76.09H30.4016ZM31.6416 80.6C31.6416 80.6533 31.6216 80.7 31.5816 80.74C31.5416 80.78 31.4949 80.8 31.4416 80.8H25.7216C25.3149 80.8 25.1116 80.6 25.1116 80.2V78.23H30.2016C30.2682 78.23 30.3016 78.1967 30.3016 78.13V77.5H25.1116V76.58H31.4316V78.52C31.4316 78.7067 31.3716 78.8533 31.2516 78.96C31.1382 79.0667 30.9949 79.12 30.8216 79.12H26.2716V79.78C26.2716 79.8467 26.3049 79.88 26.3716 79.88H31.6416V80.6Z" fill="#FF2C2C"/>
<path d="M83.2816 72.72C83.2816 73 83.2116 73.24 83.0716 73.44C82.9382 73.6333 82.7549 73.7967 82.5216 73.93C82.2949 74.0567 82.0282 74.15 81.7216 74.21C81.4149 74.27 81.0916 74.3 80.7516 74.3C80.4116 74.3 80.0882 74.27 79.7816 74.21C79.4749 74.15 79.2049 74.0567 78.9716 73.93C78.7449 73.7967 78.5616 73.6333 78.4216 73.44C78.2882 73.24 78.2216 73 78.2216 72.72C78.2216 72.4467 78.2882 72.21 78.4216 72.01C78.5616 71.81 78.7449 71.6467 78.9716 71.52C79.2049 71.3933 79.4749 71.3 79.7816 71.24C80.0882 71.18 80.4116 71.15 80.7516 71.15C81.0916 71.15 81.4149 71.18 81.7216 71.24C82.0282 71.3 82.2949 71.3933 82.5216 71.52C82.7549 71.6467 82.9382 71.81 83.0716 72.01C83.2116 72.21 83.2816 72.4467 83.2816 72.72ZM79.3016 72.72C79.3016 72.96 79.4249 73.1433 79.6716 73.27C79.9182 73.3967 80.2816 73.46 80.7616 73.46C81.2216 73.46 81.5749 73.3967 81.8216 73.27C82.0749 73.1433 82.2016 72.96 82.2016 72.72C82.2016 72.4867 82.0749 72.3067 81.8216 72.18C81.5749 72.0533 81.2216 71.99 80.7616 71.99C80.2816 71.99 79.9182 72.0533 79.6716 72.18C79.4249 72.3067 79.3016 72.4867 79.3016 72.72ZM84.6416 71.2H85.7716V76.74C85.7716 76.7933 85.7516 76.84 85.7116 76.88C85.6716 76.92 85.6249 76.94 85.5716 76.94H84.6416V76.6H81.8816V75.76H84.6416V71.2ZM77.8016 74.63H81.0116C81.6382 74.63 82.2249 74.6 82.7716 74.54C83.3249 74.4733 83.8016 74.3933 84.2016 74.3V75C84.2016 75.0867 84.1549 75.1467 84.0616 75.18C83.8816 75.2467 83.6649 75.3 83.4116 75.34C83.1582 75.38 82.8882 75.4133 82.6016 75.44C82.3149 75.46 82.0249 75.4733 81.7316 75.48C81.4382 75.4867 81.1582 75.49 80.8916 75.49V76.69C80.8916 76.7433 80.8716 76.79 80.8316 76.83C80.7916 76.87 80.7449 76.89 80.6916 76.89H79.7516V75.49H77.8016V74.63ZM86.0016 80.6C86.0016 80.6533 85.9816 80.7 85.9416 80.74C85.9016 80.78 85.8549 80.8 85.8016 80.8H79.9916C79.5849 80.8 79.3816 80.6 79.3816 80.2V78.62H84.5516C84.6182 78.62 84.6516 78.5867 84.6516 78.52V78.14H79.3916V77.27H85.7716V78.86C85.7716 79.0467 85.7116 79.1933 85.5916 79.3C85.4782 79.4067 85.3349 79.46 85.1616 79.46H80.5216V79.83C80.5216 79.8967 80.5549 79.93 80.6216 79.93H86.0016V80.6Z" fill="#353535"/>
<path d="M131.332 78.1H133.882V77.09C133.608 77.0433 133.355 76.9667 133.122 76.86C132.888 76.7533 132.685 76.62 132.512 76.46C132.345 76.3 132.215 76.1167 132.122 75.91C132.028 75.6967 131.982 75.4633 131.982 75.21C131.982 74.9167 132.045 74.65 132.172 74.41C132.305 74.17 132.482 73.9667 132.702 73.8C132.928 73.6333 133.192 73.5067 133.492 73.42C133.798 73.3267 134.128 73.28 134.482 73.28C134.842 73.28 135.175 73.3267 135.482 73.42C135.788 73.5067 136.052 73.6333 136.272 73.8C136.498 73.9667 136.675 74.17 136.802 74.41C136.928 74.65 136.992 74.9167 136.992 75.21C136.992 75.47 136.942 75.7067 136.842 75.92C136.748 76.1333 136.615 76.32 136.442 76.48C136.268 76.64 136.058 76.7733 135.812 76.88C135.572 76.9867 135.308 77.06 135.022 77.1V78.09C135.355 78.0767 135.655 78.06 135.922 78.04C136.188 78.0133 136.432 77.9867 136.652 77.96C136.872 77.9333 137.072 77.9033 137.252 77.87C137.432 77.8367 137.602 77.8033 137.762 77.77V78.56C137.762 78.6133 137.742 78.6567 137.702 78.69C137.662 78.7233 137.615 78.7467 137.562 78.76C137.348 78.8267 137.082 78.88 136.762 78.92C136.448 78.9533 136.108 78.98 135.742 79C135.382 79.02 135.008 79.03 134.622 79.03C134.235 79.0367 133.862 79.04 133.502 79.04H131.332V78.1ZM140.602 75.77H139.322V80.52C139.322 80.5733 139.302 80.62 139.262 80.66C139.222 80.7 139.175 80.72 139.122 80.72H138.172V71.2H139.322V74.82H140.602V75.77ZM137.352 73.1H131.552V72.13H133.882V71.08H135.032V72.13H137.352V73.1ZM133.072 75.21C133.072 75.53 133.202 75.78 133.462 75.96C133.722 76.14 134.062 76.23 134.482 76.23C134.922 76.23 135.272 76.14 135.532 75.96C135.792 75.78 135.922 75.53 135.922 75.21C135.922 74.89 135.792 74.64 135.532 74.46C135.272 74.28 134.922 74.19 134.482 74.19C134.062 74.19 133.722 74.28 133.462 74.46C133.202 74.64 133.072 74.89 133.072 75.21Z" fill="#353535"/>
<path d="M190.592 72.35C190.592 72.53 190.652 72.7133 190.772 72.9C190.898 73.08 191.058 73.2567 191.252 73.43C191.452 73.6033 191.675 73.77 191.922 73.93C192.175 74.0833 192.428 74.2233 192.682 74.35C192.942 74.4767 193.192 74.5867 193.432 74.68C193.672 74.7733 193.878 74.8433 194.052 74.89L193.342 75.66C193.088 75.5933 192.805 75.4933 192.492 75.36C192.178 75.22 191.868 75.06 191.562 74.88C191.255 74.7 190.965 74.51 190.692 74.31C190.418 74.1033 190.192 73.8967 190.012 73.69C189.825 73.89 189.598 74.09 189.332 74.29C189.065 74.4833 188.778 74.67 188.472 74.85C188.172 75.0233 187.865 75.1833 187.552 75.33C187.245 75.47 186.958 75.5833 186.692 75.67L185.942 74.89C186.142 74.83 186.368 74.75 186.622 74.65C186.875 74.55 187.132 74.4367 187.392 74.31C187.652 74.1833 187.905 74.0433 188.152 73.89C188.398 73.7367 188.618 73.5767 188.812 73.41C189.005 73.2433 189.158 73.07 189.272 72.89C189.392 72.71 189.452 72.53 189.452 72.35V71.35H190.592V72.35ZM194.502 76.43V77.19C194.502 77.2433 194.482 77.29 194.442 77.33C194.402 77.37 194.355 77.39 194.302 77.39H190.592V80.52C190.592 80.5733 190.572 80.62 190.532 80.66C190.492 80.7 190.445 80.72 190.392 80.72H189.442V77.39H185.502V76.43H194.502Z" fill="#353535"/>
<path d="M247.282 74.25C247.282 74.4233 247.218 74.57 247.092 74.69C246.972 74.8033 246.828 74.86 246.662 74.86H244.592V75.76H248.502V76.5C248.502 76.5533 248.482 76.6 248.442 76.64C248.402 76.68 248.355 76.7 248.302 76.7H239.492V75.76H243.452V74.86H241.402C241.242 74.86 241.098 74.8033 240.972 74.69C240.852 74.57 240.792 74.4233 240.792 74.25V71.28H247.282V74.25ZM247.282 80.52C247.282 80.5733 247.262 80.62 247.222 80.66C247.182 80.7 247.135 80.72 247.082 80.72H246.152V78.38C246.152 78.3133 246.118 78.28 246.052 78.28H240.702V77.35H246.672C246.838 77.35 246.982 77.4067 247.102 77.52C247.222 77.6333 247.282 77.7767 247.282 77.95V80.52ZM246.052 73.97C246.118 73.97 246.152 73.9367 246.152 73.87V72.18H241.902V73.87C241.902 73.9367 241.935 73.97 242.002 73.97H246.052Z" fill="#353535"/>
<path d="M294.772 76.97H301.272V80.15C301.272 80.3233 301.212 80.4667 301.092 80.58C300.978 80.6933 300.835 80.75 300.662 80.75H295.382C295.228 80.75 295.088 80.6967 294.962 80.59C294.835 80.4833 294.772 80.3367 294.772 80.15V76.97ZM293.492 76.04V75.11H299.782C299.828 74.9767 299.875 74.8267 299.922 74.66C299.968 74.4933 300.008 74.32 300.042 74.14C300.075 73.96 300.102 73.78 300.122 73.6C300.148 73.4133 300.162 73.24 300.162 73.08V72.4C300.162 72.3333 300.128 72.3 300.062 72.3H294.692V71.38H300.682C300.848 71.38 300.992 71.4367 301.112 71.55C301.232 71.6633 301.292 71.8067 301.292 71.98V73.03C301.292 73.35 301.255 73.7033 301.182 74.09C301.108 74.47 301.005 74.81 300.872 75.11H302.502V75.84C302.502 75.8933 302.482 75.94 302.442 75.98C302.402 76.02 302.355 76.04 302.302 76.04H293.492ZM300.062 79.82C300.128 79.82 300.162 79.7867 300.162 79.72V77.89H295.872V79.72C295.872 79.7867 295.905 79.82 295.972 79.82H300.062Z" fill="#353535"/>
<path d="M348.642 72.28C348.642 72.1067 348.698 71.9633 348.812 71.85C348.932 71.7367 349.078 71.68 349.252 71.68H355.292V72.64H349.922C349.855 72.64 349.822 72.6733 349.822 72.74V73.79H355.142V74.72H349.822V75.83C349.822 75.8967 349.855 75.93 349.922 75.93H355.382V76.9H352.622V78.55H356.502V79.31C356.495 79.3967 356.465 79.45 356.412 79.47C356.365 79.4967 356.328 79.51 356.302 79.51H347.502V78.55H351.472V76.9H349.252C349.078 76.9 348.932 76.8433 348.812 76.73C348.698 76.61 348.642 76.4667 348.642 76.3V72.28Z" fill="#5D3FE8"/>
<rect x="55" y="107" width="270" height="12" fill="#5D3FE8"/>
<rect x="55" y="187" width="163" height="12" fill="#ACA8D7"/>
<rect x="109" y="121" width="163" height="12" fill="#9B46A6"/>
<rect x="109" y="267" width="271" height="12" fill="#373369"/>
<rect y="347" width="218" height="12" fill="#373369"/>
<path d="M0 90H380" stroke="#BBB8C8"/>
<path d="M0 170H380" stroke="#BBB8C8"/>
<path d="M0 250H380" stroke="#BBB8C8"/>
<line y1="329.5" x2="380" y2="329.5" stroke="#BBB8C8"/>
<line y1="409.5" x2="380" y2="409.5" stroke="#BBB8C8"/>
</svg>
