<svg width="290" height="269" viewBox="0 0 290 269" fill="none" xmlns="http://www.w3.org/2000/svg">
<g opacity="0.1" filter="url(#filter0_d)">
<path d="M139.112 128.058C133.472 105.112 126.147 47.9114 141.965 2.67268C77.0592 22.6979 43.7235 104.44 43.229 126.186C61.4888 131.727 114.759 129.743 139.112 128.058Z" fill="url(#paint0_linear)"/>
<path d="M151.498 127.694C157.272 104.777 164.931 47.6131 149.377 2.29586C214.165 22.6458 229.192 113.606 229.56 135.354C189.759 115.567 175.841 129.5 151.498 127.694Z" fill="url(#paint1_linear)"/>
<path d="M139.983 161.237C141.638 129.399 144.586 53.022 143.142 2.21312C143.142 0.572005 145.805 -1.2821 148.106 1.22831C150.814 4.18244 149.761 111.183 147.204 161.237H139.983Z" fill="#5D3FE8"/>
<path d="M57.0239 173.371C53.9331 172.387 45.9946 165.303 38.967 144.838C78.9849 147.626 175.028 149.758 239.056 135.983C237.43 145.002 231.541 165.106 220.999 173.371C210.458 181.636 68.7364 179.274 57.0239 173.371Z" fill="#5D3FE8"/>
<path d="M9.35672 196.339C23.0362 191.739 59.512 186.972 92.732 186.722C111.908 186.578 165.164 187.391 191.74 186.722C218.316 186.053 262.739 186.862 278.372 188.813C286.188 189.788 295.307 200.52 261.436 198.011C255.432 197.567 239.073 196.339 239.941 196.339C214.972 196.478 165.034 194.666 183.272 200.102C204.333 200.938 224.96 202.192 226.262 205.537C228.868 210.137 216.221 211.824 165.034 216.408C137.025 218.917 131.163 218.499 107.062 222.68C103.154 224.353 103.154 225.607 109.668 225.607C114.227 224.771 126.994 223.934 152.006 223.934C174.153 224.77 176.759 230.624 174.153 236.06C172.945 238.58 168.03 243.168 148.75 243.168C143.539 243.167 144.19 244.84 146.795 245.258C152.006 245.816 162.298 250.777 164.383 252.784C166.377 254.705 164.382 259.307 156.566 260.31C166.988 255.711 153.2 249.747 135.723 247.767C124.649 246.512 128.557 241.495 137.677 240.659C156.421 238.94 172.199 238.568 156.566 232.297C140.933 226.025 145.493 232.297 123.346 232.297C105.629 232.297 94.6864 236.059 79.0532 238.568H71.8885L67.3289 237.314L65.3745 232.297C67.3286 224.771 70.1946 220.088 123.346 216.408C135.43 215.572 147.186 204.785 127.906 201.774C118.57 201.774 103.936 200.102 73.191 200.102C43.8795 201.774 26.9444 205.537 17.8249 205.537C8.70549 205.537 -3.01874 201.774 9.35672 196.339Z" fill="#7017E1"/>
</g>
<defs>
<filter id="filter0_d" x="-0.00012207" y="0" width="289.679" height="268.31" filterUnits="userSpaceOnUse" color-interpolation-filters="sRGB">
<feFlood flood-opacity="0" result="BackgroundImageFix"/>
<feColorMatrix in="SourceAlpha" type="matrix" values="0 0 0 0 0 0 0 0 0 0 0 0 0 0 0 0 0 0 127 0"/>
<feOffset dy="4"/>
<feGaussianBlur stdDeviation="2"/>
<feColorMatrix type="matrix" values="0 0 0 0 0 0 0 0 0 0 0 0 0 0 0 0 0 0 0.25 0"/>
<feBlend mode="normal" in2="BackgroundImageFix" result="effect1_dropShadow"/>
<feBlend mode="normal" in="SourceGraphic" in2="effect1_dropShadow" result="shape"/>
</filter>
<linearGradient id="paint0_linear" x1="94.0229" y1="1.73661" x2="91.5187" y2="129.991" gradientUnits="userSpaceOnUse">
<stop stop-color="#2C16C7"/>
<stop offset="1" stop-color="#252C44"/>
</linearGradient>
<linearGradient id="paint1_linear" x1="188.334" y1="1.73033" x2="190.282" y2="135.924" gradientUnits="userSpaceOnUse">
<stop stop-color="#2C16C7"/>
<stop offset="1" stop-color="#252C44"/>
</linearGradient>
</defs>
</svg>
