<svg width="80" height="32" viewBox="0 0 80 32" fill="none" xmlns="http://www.w3.org/2000/svg">
<rect width="80" height="32" rx="16" fill="white"/>
<rect width="80" height="32" rx="16" stroke="#5E42EB"/>
<path d="M29.876 10.78H38.318C38.5607 10.78 38.7613 10.8593 38.92 11.018C39.088 11.1767 39.172 11.3773 39.172 11.62V14.84C39.172 15.288 39.144 15.7687 39.088 16.282C39.0413 16.7953 38.9713 17.304 38.878 17.808C38.7847 18.312 38.6727 18.7927 38.542 19.25C38.4113 19.7073 38.2667 20.104 38.108 20.44H40.768V21.084C40.7587 21.1867 40.7213 21.2567 40.656 21.294C40.6 21.3407 40.544 21.364 40.488 21.364H28.238V20.44H36.974C37.1047 20.132 37.226 19.7773 37.338 19.376C37.4593 18.9747 37.5667 18.5687 37.66 18.158C37.7533 17.7473 37.828 17.346 37.884 16.954C37.94 16.5527 37.9773 16.198 37.996 15.89H29.792V14.98H38.052V11.858C38.052 11.7647 38.0053 11.718 37.912 11.718H29.876V10.78ZM48.0856 18.942V23.114C48.0856 23.1887 48.0576 23.254 48.0016 23.31C47.9456 23.366 47.8803 23.394 47.8056 23.394H46.9796V18.942H41.2396V18.018H53.7696V18.662C53.7696 18.7367 53.7416 18.802 53.6856 18.858C53.6296 18.914 53.5643 18.942 53.4896 18.942H48.0856ZM43.7876 16.534C43.545 16.534 43.3396 16.4547 43.1716 16.296C43.013 16.128 42.9336 15.9273 42.9336 15.694V12.936H50.7456C50.839 12.936 50.8856 12.8893 50.8856 12.796V11.312H42.9056V10.402H51.9916V12.992C51.9916 13.2347 51.9076 13.4353 51.7396 13.594C51.581 13.7527 51.3803 13.832 51.1376 13.832H44.0536V15.456C44.0536 15.5493 44.1003 15.596 44.1936 15.596H52.2016V16.534H43.7876ZM55.2913 12.6C55.2913 12.1707 55.3893 11.802 55.5853 11.494C55.7906 11.1767 56.0566 10.92 56.3833 10.724C56.7099 10.5187 57.0833 10.3693 57.5033 10.276C57.9233 10.1733 58.3526 10.122 58.7913 10.122C59.2299 10.122 59.6593 10.1733 60.0793 10.276C60.4993 10.3693 60.8726 10.5187 61.1993 10.724C61.5259 10.9293 61.7873 11.1907 61.9833 11.508C62.1793 11.816 62.2773 12.18 62.2773 12.6C62.2773 13.0293 62.1793 13.4027 61.9833 13.72C61.7873 14.028 61.5259 14.2847 61.1993 14.49C60.8726 14.6953 60.4993 14.8493 60.0793 14.952C59.6593 15.0453 59.2299 15.092 58.7913 15.092C58.3526 15.092 57.9233 15.0453 57.5033 14.952C57.0833 14.8493 56.7099 14.6953 56.3833 14.49C56.0566 14.2847 55.7906 14.028 55.5853 13.72C55.3893 13.4027 55.2913 13.0293 55.2913 12.6ZM56.3693 12.6C56.3693 12.8893 56.4393 13.1367 56.5793 13.342C56.7193 13.5473 56.9013 13.7153 57.1253 13.846C57.3493 13.9767 57.6059 14.0747 57.8953 14.14C58.1846 14.196 58.4833 14.224 58.7913 14.224C59.0899 14.224 59.3839 14.196 59.6733 14.14C59.9626 14.0747 60.2193 13.9767 60.4433 13.846C60.6673 13.706 60.8493 13.5333 60.9893 13.328C61.1293 13.1227 61.1993 12.88 61.1993 12.6C61.1993 12.32 61.1293 12.082 60.9893 11.886C60.8493 11.6807 60.6673 11.5127 60.4433 11.382C60.2193 11.242 59.9626 11.144 59.6733 11.088C59.3839 11.0227 59.0899 10.99 58.7913 10.99C58.4926 10.99 58.1986 11.0227 57.9093 11.088C57.6199 11.1533 57.3586 11.2513 57.1253 11.382C56.9013 11.5127 56.7193 11.6807 56.5793 11.886C56.4393 12.082 56.3693 12.32 56.3693 12.6ZM64.5173 10.108H65.6233V20.3C65.6233 20.3747 65.5953 20.44 65.5393 20.496C65.4833 20.552 65.4179 20.58 65.3433 20.58H64.5173V19.068H60.3873V18.158H64.5173V10.108ZM66.0293 23.114C66.0293 23.282 65.9453 23.366 65.7773 23.366H57.6853C57.4613 23.366 57.2606 23.282 57.0833 23.114C56.9153 22.9553 56.8313 22.7547 56.8313 22.512V19.88H57.9513V22.288C57.9513 22.3813 57.9979 22.428 58.0913 22.428H66.0293V23.114ZM54.6893 15.862H59.3233C60.1166 15.862 60.8819 15.8247 61.6193 15.75C62.3659 15.666 63.0239 15.5727 63.5933 15.47V16.184C63.5933 16.3333 63.5186 16.4267 63.3693 16.464C63.1173 16.5293 62.8139 16.5853 62.4593 16.632C62.1139 16.6693 61.7406 16.702 61.3393 16.73C60.9379 16.758 60.5179 16.7767 60.0793 16.786C59.6406 16.7953 59.2019 16.8 58.7633 16.8V18.984C58.7633 19.0587 58.7353 19.124 58.6793 19.18C58.6233 19.236 58.5579 19.264 58.4833 19.264H57.6713V16.8H54.6893V15.862Z" fill="#5D3FE8"/>
<path d="M18.9997 18.0438C16.4492 18.0438 14.3817 16.0193 14.3817 13.5219C14.3817 11.0245 16.4492 9 18.9997 9C21.5501 9 23.6177 11.0245 23.6177 13.5219C23.6177 16.0193 21.5501 18.0438 18.9997 18.0438Z" stroke="#5D3FE8" stroke-miterlimit="10"/>
<path d="M26 21.9998C25.2903 20.797 24.2698 19.7982 23.0411 19.1038C21.8124 18.4094 20.4187 18.0438 19 18.0438C17.5813 18.0438 16.1876 18.4094 14.9588 19.1039C13.7301 19.7983 12.7097 20.7971 12 22" stroke="#5D3FE8" stroke-linecap="round" stroke-linejoin="round"/>
</svg>
