<svg width="86" height="38" viewBox="0 0 86 38" fill="none" xmlns="http://www.w3.org/2000/svg">
<g filter="url(#filter0_d)">
<rect x="3" y="3" width="80" height="32" rx="16" fill="white"/>
</g>
<path d="M20.9993 12V17.8815" stroke="#252C44" stroke-linecap="round" stroke-linejoin="round"/>
<path d="M24.8183 12.4819C26.0831 13.2827 27.0479 14.4597 27.5692 15.8374C28.0904 17.2151 28.14 18.7198 27.7107 20.1272C27.2814 21.5345 26.3962 22.7693 25.1869 23.6474C23.9776 24.5255 22.509 24.9998 21 24.9998C19.491 24.9998 18.0224 24.5254 16.8131 23.6474C15.6038 22.7693 14.7185 21.5345 14.2892 20.1271C13.86 18.7197 13.9096 17.2151 14.4309 15.8374C14.9521 14.4597 15.917 13.2827 17.1817 12.4819" stroke="#252C44" stroke-linecap="round" stroke-linejoin="round"/>
<path d="M41.188 22.12V22.696C41.188 22.752 41.164 22.804 41.116 22.852C41.068 22.9 41.016 22.924 40.96 22.924H35.524C35.396 22.924 35.284 22.876 35.188 22.78C35.1 22.684 35.056 22.568 35.056 22.432V13.288H36.028V22C36.028 22.08 36.076 22.12 36.172 22.12H41.188ZM46.1786 23.056C45.5626 23.056 45.0186 22.964 44.5466 22.78C44.0746 22.596 43.6786 22.344 43.3586 22.024C43.0386 21.712 42.7946 21.348 42.6266 20.932C42.4666 20.516 42.3866 20.072 42.3866 19.6V16.804C42.3866 16.324 42.4666 15.864 42.6266 15.424C42.7866 14.984 43.0266 14.596 43.3466 14.26C43.6666 13.916 44.0626 13.644 44.5346 13.444C45.0066 13.244 45.5546 13.144 46.1786 13.144C46.7706 13.144 47.2906 13.232 47.7386 13.408C48.1946 13.576 48.5746 13.82 48.8786 14.14C49.1906 14.46 49.4226 14.844 49.5746 15.292C49.7346 15.74 49.8146 16.244 49.8146 16.804V19.588C49.8146 20.156 49.7226 20.656 49.5386 21.088C49.3546 21.512 49.0986 21.872 48.7706 22.168C48.4426 22.464 48.0546 22.684 47.6066 22.828C47.1666 22.98 46.6906 23.056 46.1786 23.056ZM46.1906 14.02C45.7586 14.02 45.3666 14.084 45.0146 14.212C44.6706 14.34 44.3746 14.524 44.1266 14.764C43.8786 15.004 43.6866 15.296 43.5506 15.64C43.4226 15.976 43.3586 16.36 43.3586 16.792V19.54C43.3586 19.988 43.4306 20.376 43.5746 20.704C43.7186 21.024 43.9146 21.292 44.1626 21.508C44.4186 21.716 44.7186 21.872 45.0626 21.976C45.4066 22.08 45.7826 22.132 46.1906 22.132C46.5986 22.132 46.9666 22.076 47.2946 21.964C47.6226 21.852 47.9026 21.688 48.1346 21.472C48.3666 21.248 48.5466 20.976 48.6746 20.656C48.8026 20.336 48.8666 19.964 48.8666 19.54V16.792C48.8666 15.928 48.6346 15.252 48.1706 14.764C47.7146 14.268 47.0546 14.02 46.1906 14.02ZM58.6326 20.848C58.6326 21.224 58.5726 21.544 58.4526 21.808C58.3326 22.064 58.1726 22.276 57.9726 22.444C57.7726 22.612 57.5406 22.732 57.2766 22.804C57.0126 22.884 56.7406 22.924 56.4606 22.924H54.7086C54.2046 22.924 53.7526 22.84 53.3526 22.672C52.9606 22.504 52.6286 22.272 52.3566 21.976C52.0926 21.672 51.8886 21.308 51.7446 20.884C51.6006 20.46 51.5286 19.988 51.5286 19.468V16.504C51.5286 15.992 51.6086 15.544 51.7686 15.16C51.9286 14.776 52.1486 14.452 52.4286 14.188C52.7166 13.924 53.0566 13.72 53.4486 13.576C53.8486 13.424 54.2886 13.332 54.7686 13.3C55.3526 13.26 55.9366 13.252 56.5206 13.276C57.1046 13.3 57.7086 13.344 58.3326 13.408V14.224C57.7326 14.144 57.1326 14.092 56.5326 14.068C55.9326 14.044 55.3326 14.056 54.7326 14.104C53.2446 14.24 52.5006 15.076 52.5006 16.612V19.456C52.5006 19.736 52.5246 20.032 52.5726 20.344C52.6286 20.656 52.7366 20.944 52.8966 21.208C53.0646 21.464 53.3006 21.68 53.6046 21.856C53.9086 22.024 54.3126 22.108 54.8166 22.108H56.4246C57.2806 22.108 57.7086 21.708 57.7086 20.908V18.652C57.7086 18.572 57.6606 18.532 57.5646 18.532H55.1166V17.752H57.9006C58.1086 17.752 58.2806 17.812 58.4166 17.932C58.5606 18.044 58.6326 18.208 58.6326 18.424V20.848ZM60.6183 13.264H61.6143V22.684C61.6143 22.828 61.5503 22.9 61.4223 22.9H60.6183V13.264ZM64.8558 22.792C64.8558 22.88 64.8158 22.924 64.7358 22.924H63.8958V13.288H65.2038L70.1718 21.82L70.1598 13.288H71.1198V22.78C71.1198 22.876 71.0678 22.924 70.9638 22.924H69.8238L64.9638 14.68C64.9478 14.656 64.9238 14.648 64.8918 14.656C64.8678 14.656 64.8558 14.676 64.8558 14.716V22.792Z" fill="#252C44"/>
<defs>
<filter id="filter0_d" x="0" y="0" width="86" height="38" filterUnits="userSpaceOnUse" color-interpolation-filters="sRGB">
<feFlood flood-opacity="0" result="BackgroundImageFix"/>
<feColorMatrix in="SourceAlpha" type="matrix" values="0 0 0 0 0 0 0 0 0 0 0 0 0 0 0 0 0 0 127 0"/>
<feOffset/>
<feGaussianBlur stdDeviation="1.5"/>
<feColorMatrix type="matrix" values="0 0 0 0 0.145098 0 0 0 0 0.172549 0 0 0 0 0.266667 0 0 0 1 0"/>
<feBlend mode="normal" in2="BackgroundImageFix" result="effect1_dropShadow"/>
<feBlend mode="normal" in="SourceGraphic" in2="effect1_dropShadow" result="shape"/>
</filter>
</defs>
</svg>
