<svg width="140" height="60" viewBox="0 0 140 60" fill="none" xmlns="http://www.w3.org/2000/svg">
<path d="M40.0624 21.6997L34.8855 40.0003H31.0872L28.0409 30.9776L24.9752 40.0003H21.2058L16 21.6997H20.8684L23.3363 31.3605L26.402 21.6997H29.699L32.7454 31.3605L35.223 21.6997H40.0624Z" fill="white"/>
<path d="M55.5312 40.0003H41.7812V21.6997H55.5312V25.7054H46.7428V28.7686H54.2521V32.7743H46.7428V36.0044H55.5312V40.0003Z" fill="white"/>
<path d="M85.6551 13.3332C84.4412 12.6273 82.8164 13.1103 81.9666 14.1505C81.9573 14.1598 74.6643 23.0757 69.8459 28.9639C68.1464 25.5183 66.3068 21.8219 66.3068 21.8219C65.5691 20.3359 63.7669 19.7229 62.2728 20.4566L61.6845 20.7446C60.1904 21.4783 59.5741 23.2707 60.3118 24.7567L66.9885 38.2514C67.0725 38.4186 67.1659 38.5765 67.278 38.725C67.7449 39.3659 68.4546 39.7931 69.2296 39.9417C69.6218 40.016 70.0233 40.016 70.4155 39.9603C70.8638 39.8953 71.2746 39.7374 71.6481 39.4959C71.7882 39.4123 71.919 39.3102 72.0497 39.1987C72.4232 38.8736 72.7127 38.465 72.9928 38.0564C73.301 37.6013 75.2339 34.5086 75.2713 34.4528C75.2713 34.4528 75.2433 34.4621 75.2153 34.4807L86.6823 16.7417C87.4293 15.5993 86.7663 13.974 85.6551 13.3332Z" fill="#B5A4FF"/>
<path d="M82.5255 30.6632C82.5255 30.4511 82.5255 30.2389 82.5255 30.0075C82.5255 28.8505 82.5554 27.9634 82.6152 27.3367C82.6749 26.71 82.7546 26.2472 82.8742 25.9483C82.9837 25.6494 83.1332 25.3987 83.3025 25.1865C83.5316 24.9262 83.8205 24.7141 84.1791 24.5598C84.5377 24.4055 84.9461 24.3284 85.3943 24.3284C85.8525 24.3284 86.2709 24.4055 86.6494 24.5695C87.0279 24.7334 87.3068 24.9358 87.5061 25.1865C87.775 25.5144 87.9742 25.9772 88.0938 26.5846C88.2133 27.1921 88.2731 28.3298 88.2731 30.0075C88.2731 31.6756 88.2133 32.8037 88.0938 33.3919C88.0838 33.4497 88.0639 33.4883 88.044 33.5461C89.4186 34.1632 90.853 34.6453 92.3272 34.896C92.5762 34.9346 92.8153 34.9539 93.0643 34.9828C93.2138 34.5007 93.3333 33.9993 93.3831 33.4979C93.4628 32.7073 93.5026 31.7624 93.5026 30.6728V30.0172V29.3615C93.5026 28.2623 93.4628 27.3271 93.3831 26.5364C93.3034 25.7458 93.1042 24.9841 92.7954 24.2416C92.4866 23.4992 92.0085 22.8339 91.361 22.2457C90.5641 21.5129 89.6875 20.9634 88.7412 20.597C87.7949 20.2306 86.6793 20.0474 85.3943 20.0474C84.1193 20.0474 83.0037 20.2306 82.0673 20.5873C81.131 20.9441 80.2544 21.4937 79.4476 22.2457C78.5112 23.1039 77.9136 24.0874 77.6645 25.1865C77.4155 26.2857 77.286 27.6838 77.286 29.3615V30.0172V30.3643C78.7005 29.9497 80.4736 29.8822 82.5255 30.6632Z" fill="#5D3FE8"/>
<path d="M77.6547 34.8386C77.9038 35.9377 78.5014 36.9116 79.4378 37.7697C79.9657 38.2615 80.5235 38.6761 81.1112 38.9943C81.6989 39.3124 82.3464 39.5631 83.0437 39.727C83.7409 39.891 84.5279 39.9777 85.3945 39.9777C86.6795 39.9777 87.8051 39.7945 88.7514 39.4185C89.6977 39.0425 90.5742 38.4929 91.3612 37.7697C92.0086 37.1816 92.4868 36.5163 92.7956 35.7738C92.9051 35.5135 92.9848 35.2435 93.0645 34.9736C92.8155 34.9446 92.5764 34.9253 92.3274 34.8868C90.8432 34.6361 89.4088 34.154 88.0441 33.5369C87.9246 34.0479 87.7453 34.4722 87.4963 34.7904C86.9982 35.3785 86.3009 35.6774 85.3845 35.6774C84.488 35.6774 83.7908 35.3785 83.2927 34.7904C83.1134 34.5879 82.9739 34.3372 82.8644 34.0383C82.7548 33.7394 82.6652 33.2862 82.6054 32.6595C82.5556 32.1581 82.5357 31.4832 82.5257 30.6539C80.4837 29.8826 78.7007 29.9404 77.2862 30.3454V30.6539C77.2762 32.3509 77.4057 33.7394 77.6547 34.8386Z" fill="#B5A4FF"/>
<path d="M104.191 31.5029V24.3003H109.451V20H93.6924V24.2907H98.9518V34.0966C99.938 33.7495 100.894 33.3156 101.801 32.7756C102.568 32.3225 103.375 31.8982 104.191 31.5029Z" fill="#5D3FE8"/>
<path d="M104.191 39.6314V31.5032C103.374 31.8985 102.568 32.3227 101.801 32.7759C100.884 33.3159 99.9278 33.7498 98.9517 34.0969V39.6314H104.191Z" fill="#B5A4FF"/>
<path d="M123.655 32.0612V27.7705H115.736V24.4826H125V20.1919H110.497V29.4289C115.049 28.4936 119.73 28.9757 123.655 32.0612Z" fill="#5D3FE8"/>
<path d="M125 39.8226V35.5222H115.736V32.0608H123.655C119.73 28.9657 115.049 28.4932 110.497 29.4285V39.8129H125V39.8226Z" fill="#B5A4FF"/>
</svg>
