<svg width="80" height="32" viewBox="0 0 80 32" fill="none" xmlns="http://www.w3.org/2000/svg">
<rect width="80" height="32" rx="16" fill="white"/>
<path d="M17.112 10V15.8815" stroke="#252C44" stroke-linecap="round" stroke-linejoin="round"/>
<path d="M20.9923 10.4819C22.2773 11.2827 23.2577 12.4597 23.7873 13.8374C24.3169 15.2151 24.3674 16.7198 23.9312 18.1272C23.495 19.5345 22.5955 20.7693 21.3667 21.6474C20.138 22.5255 18.6458 22.9998 17.1125 22.9998C15.5793 22.9998 14.0871 22.5254 12.8583 21.6474C11.6296 20.7693 10.7301 19.5345 10.2939 18.1271C9.85771 16.7197 9.90817 15.2151 10.4378 13.8374C10.9674 12.4597 11.9478 11.2827 13.2329 10.4819" stroke="#252C44" stroke-linecap="round" stroke-linejoin="round"/>
<path d="M36.5448 20.12V20.696C36.5448 20.752 36.5208 20.804 36.4728 20.852C36.4248 20.9 36.3728 20.924 36.3168 20.924H30.8808C30.7528 20.924 30.6408 20.876 30.5448 20.78C30.4568 20.684 30.4128 20.568 30.4128 20.432V11.288H31.3848V20C31.3848 20.08 31.4328 20.12 31.5288 20.12H36.5448ZM41.5354 21.056C40.9194 21.056 40.3754 20.964 39.9034 20.78C39.4314 20.596 39.0354 20.344 38.7154 20.024C38.3954 19.712 38.1514 19.348 37.9834 18.932C37.8234 18.516 37.7434 18.072 37.7434 17.6V14.804C37.7434 14.324 37.8234 13.864 37.9834 13.424C38.1434 12.984 38.3834 12.596 38.7034 12.26C39.0234 11.916 39.4194 11.644 39.8914 11.444C40.3634 11.244 40.9114 11.144 41.5354 11.144C42.1274 11.144 42.6474 11.232 43.0954 11.408C43.5514 11.576 43.9314 11.82 44.2354 12.14C44.5474 12.46 44.7794 12.844 44.9314 13.292C45.0914 13.74 45.1714 14.244 45.1714 14.804V17.588C45.1714 18.156 45.0794 18.656 44.8954 19.088C44.7114 19.512 44.4554 19.872 44.1274 20.168C43.7994 20.464 43.4114 20.684 42.9634 20.828C42.5234 20.98 42.0474 21.056 41.5354 21.056ZM41.5474 12.02C41.1154 12.02 40.7234 12.084 40.3714 12.212C40.0274 12.34 39.7314 12.524 39.4834 12.764C39.2354 13.004 39.0434 13.296 38.9074 13.64C38.7794 13.976 38.7154 14.36 38.7154 14.792V17.54C38.7154 17.988 38.7874 18.376 38.9314 18.704C39.0754 19.024 39.2714 19.292 39.5194 19.508C39.7754 19.716 40.0754 19.872 40.4194 19.976C40.7634 20.08 41.1394 20.132 41.5474 20.132C41.9554 20.132 42.3234 20.076 42.6514 19.964C42.9794 19.852 43.2594 19.688 43.4914 19.472C43.7234 19.248 43.9034 18.976 44.0314 18.656C44.1594 18.336 44.2234 17.964 44.2234 17.54V14.792C44.2234 13.928 43.9914 13.252 43.5274 12.764C43.0714 12.268 42.4114 12.02 41.5474 12.02ZM53.9894 18.848C53.9894 19.224 53.9294 19.544 53.8094 19.808C53.6894 20.064 53.5294 20.276 53.3294 20.444C53.1294 20.612 52.8974 20.732 52.6334 20.804C52.3694 20.884 52.0974 20.924 51.8174 20.924H50.0654C49.5614 20.924 49.1094 20.84 48.7094 20.672C48.3174 20.504 47.9854 20.272 47.7134 19.976C47.4494 19.672 47.2454 19.308 47.1014 18.884C46.9574 18.46 46.8854 17.988 46.8854 17.468V14.504C46.8854 13.992 46.9654 13.544 47.1254 13.16C47.2854 12.776 47.5054 12.452 47.7854 12.188C48.0734 11.924 48.4134 11.72 48.8054 11.576C49.2054 11.424 49.6454 11.332 50.1254 11.3C50.7094 11.26 51.2934 11.252 51.8774 11.276C52.4614 11.3 53.0654 11.344 53.6894 11.408V12.224C53.0894 12.144 52.4894 12.092 51.8894 12.068C51.2894 12.044 50.6894 12.056 50.0894 12.104C48.6014 12.24 47.8574 13.076 47.8574 14.612V17.456C47.8574 17.736 47.8814 18.032 47.9294 18.344C47.9854 18.656 48.0934 18.944 48.2534 19.208C48.4214 19.464 48.6574 19.68 48.9614 19.856C49.2654 20.024 49.6694 20.108 50.1734 20.108H51.7814C52.6374 20.108 53.0654 19.708 53.0654 18.908V16.652C53.0654 16.572 53.0174 16.532 52.9214 16.532H50.4734V15.752H53.2574C53.4654 15.752 53.6374 15.812 53.7734 15.932C53.9174 16.044 53.9894 16.208 53.9894 16.424V18.848ZM55.9751 11.264H56.9711V20.684C56.9711 20.828 56.9071 20.9 56.7791 20.9H55.9751V11.264ZM60.2127 20.792C60.2127 20.88 60.1727 20.924 60.0927 20.924H59.2527V11.288H60.5607L65.5287 19.82L65.5167 11.288H66.4767V20.78C66.4767 20.876 66.4247 20.924 66.3207 20.924H65.1807L60.3207 12.68C60.3047 12.656 60.2807 12.648 60.2487 12.656C60.2247 12.656 60.2127 12.676 60.2127 12.716V20.792Z" fill="#252C44"/>
</svg>
