<svg width="130" height="44" viewBox="0 0 130 44" fill="none" xmlns="http://www.w3.org/2000/svg">
    <rect width="130" height="44" rx="22" fill="#5D3FE8"/>
    <path d="M51.824 21.226H50.102V28.142C50.102 28.2167 50.074 28.282 50.018 28.338C49.962 28.394 49.8967 28.422 49.822 28.422H48.226V15.052H50.102V19.658H51.824V21.226ZM39.252 25.076C39.784 24.936 40.3533 24.7493 40.96 24.516C41.5667 24.2733 42.1267 23.9793 42.64 23.634C43.1533 23.2887 43.578 22.8873 43.914 22.43C44.2593 21.9727 44.4367 21.4593 44.446 20.89L44.474 17.432C44.474 17.3853 44.4647 17.3527 44.446 17.334C44.4273 17.306 44.3807 17.292 44.306 17.292H39.756V15.696H45.566C45.818 15.696 46.014 15.7847 46.154 15.962C46.3033 16.1393 46.378 16.3353 46.378 16.55V20.624C46.378 21.4733 46.182 22.2247 45.79 22.878C45.4073 23.5313 44.9127 24.096 44.306 24.572C43.7087 25.048 43.046 25.44 42.318 25.748C41.59 26.0467 40.8853 26.266 40.204 26.406L39.252 25.076ZM52.7156 18.412C52.7156 17.9173 52.8043 17.4693 52.9816 17.068C53.1683 16.6667 53.4203 16.326 53.7376 16.046C54.0643 15.766 54.4423 15.5513 54.8716 15.402C55.301 15.2527 55.763 15.178 56.2576 15.178C56.7616 15.178 57.2283 15.2527 57.6576 15.402C58.087 15.5513 58.4603 15.766 58.7776 16.046C59.095 16.326 59.3423 16.6667 59.5196 17.068C59.7063 17.4693 59.8043 17.9173 59.8136 18.412C59.823 18.888 59.7343 19.3313 59.5476 19.742C59.3703 20.1433 59.1183 20.498 58.7916 20.806C58.4743 21.1047 58.0963 21.338 57.6576 21.506C57.2283 21.674 56.7616 21.758 56.2576 21.758C55.7816 21.758 55.329 21.6787 54.8996 21.52C54.4703 21.3613 54.0923 21.1373 53.7656 20.848C53.4483 20.5587 53.1916 20.2087 52.9956 19.798C52.809 19.378 52.7156 18.916 52.7156 18.412ZM61.6336 22.276V15.08H63.4816V21.996C63.4816 22.0707 63.4536 22.136 63.3976 22.192C63.3416 22.248 63.2763 22.276 63.2016 22.276H61.6336ZM56.3136 25.454V26.812C56.3136 26.9053 56.3603 26.952 56.4536 26.952H61.4656C61.559 26.952 61.6056 26.9053 61.6056 26.812V25.454H56.3136ZM54.4516 22.724H56.3136V23.928H61.6056V22.724H63.4676V27.638C63.4676 27.89 63.3836 28.0907 63.2156 28.24C63.057 28.3987 62.8563 28.478 62.6136 28.478H55.3056C55.0536 28.478 54.8483 28.3987 54.6896 28.24C54.531 28.0813 54.4516 27.8807 54.4516 27.638V22.724ZM54.4656 18.426C54.4656 18.7153 54.517 18.972 54.6196 19.196C54.7223 19.42 54.8576 19.6067 55.0256 19.756C55.203 19.9053 55.399 20.0173 55.6136 20.092C55.8376 20.1667 56.0663 20.204 56.2996 20.204C56.8316 20.204 57.2516 20.036 57.5596 19.7C57.877 19.364 58.0356 18.9393 58.0356 18.426C58.0356 17.922 57.8676 17.5113 57.5316 17.194C57.205 16.8767 56.7943 16.718 56.2996 16.718C56.029 16.718 55.7816 16.7647 55.5576 16.858C55.3336 16.942 55.1376 17.0633 54.9696 17.222C54.811 17.3713 54.685 17.5533 54.5916 17.768C54.5076 17.9733 54.4656 18.1927 54.4656 18.426ZM72.8013 22.304C72.8013 22.7893 72.7126 23.2513 72.5353 23.69C72.3673 24.1193 72.1246 24.4973 71.8073 24.824C71.4899 25.1507 71.1026 25.412 70.6453 25.608C70.1973 25.7947 69.6933 25.888 69.1333 25.888C68.5826 25.888 68.0786 25.7993 67.6213 25.622C67.1733 25.4353 66.7859 25.1833 66.4593 24.866C66.1419 24.5393 65.8946 24.1567 65.7173 23.718C65.5399 23.2793 65.4513 22.808 65.4513 22.304C65.4513 21.828 65.5399 21.38 65.7173 20.96C65.9039 20.54 66.1606 20.176 66.4873 19.868C66.8139 19.5507 67.2013 19.3033 67.6493 19.126C68.0973 18.9393 68.5919 18.846 69.1333 18.846C69.6559 18.846 70.1413 18.9393 70.5893 19.126C71.0373 19.3127 71.4246 19.5647 71.7513 19.882C72.0779 20.1993 72.3346 20.568 72.5213 20.988C72.7079 21.408 72.8013 21.8467 72.8013 22.304ZM65.0873 18.412V16.844H68.2093V15.052H70.0993V16.844H73.2632V18.412H65.0873ZM67.2853 22.318C67.2853 22.6447 67.3319 22.934 67.4253 23.186C67.5279 23.4287 67.6633 23.634 67.8313 23.802C67.9993 23.97 68.1953 24.096 68.4193 24.18C68.6433 24.264 68.8813 24.306 69.1333 24.306C69.3946 24.306 69.6373 24.264 69.8613 24.18C70.0853 24.0867 70.2813 23.956 70.4493 23.788C70.6173 23.6107 70.7479 23.4007 70.8413 23.158C70.9439 22.906 70.9953 22.626 70.9953 22.318C70.9953 22.0847 70.9533 21.856 70.8693 21.632C70.7853 21.3987 70.6593 21.1933 70.4913 21.016C70.3326 20.8387 70.1366 20.6987 69.9033 20.596C69.6793 20.484 69.4226 20.428 69.1333 20.428C68.8626 20.428 68.6153 20.4793 68.3913 20.582C68.1673 20.6847 67.9713 20.8247 67.8033 21.002C67.6446 21.17 67.5186 21.3707 67.4253 21.604C67.3319 21.828 67.2853 22.066 67.2853 22.318ZM77.8833 21.87H76.0493V28.128C76.0493 28.2027 76.0213 28.268 75.9653 28.324C75.9093 28.38 75.8439 28.408 75.7693 28.408H74.2153V15.066H76.0493V20.274H77.8833V21.87ZM90.0589 15.08V28.142C90.0589 28.2167 90.0309 28.282 89.9749 28.338C89.9189 28.394 89.8535 28.422 89.7789 28.422H88.2109V15.08H90.0589ZM85.0749 15.71C85.3269 15.71 85.5229 15.7987 85.6629 15.976C85.8122 16.1533 85.8869 16.3493 85.8869 16.564V20.568C85.8869 21.4267 85.6909 22.1873 85.2989 22.85C84.9069 23.5127 84.4029 24.0867 83.7869 24.572C83.1802 25.048 82.5035 25.4447 81.7569 25.762C81.0195 26.07 80.3009 26.2987 79.6009 26.448L78.6349 25.104C79.1949 24.964 79.7829 24.7867 80.3989 24.572C81.0242 24.3573 81.5982 24.0773 82.1209 23.732C82.6529 23.3867 83.0915 22.9713 83.4369 22.486C83.7915 21.9913 83.9689 21.408 83.9689 20.736L83.9829 17.446C83.9829 17.3527 83.9315 17.306 83.8289 17.306H78.9989V15.71H85.0749Z" fill="white"/>
</svg>
