<svg width="258" height="44" viewBox="0 0 258 44" fill="none" xmlns="http://www.w3.org/2000/svg">
    <rect width="258" height="44" rx="22" fill="#FEEF03"/>
    <path d="M62.378 25.23C62.91 25.0807 63.484 24.8893 64.1 24.656C64.7253 24.4133 65.2993 24.124 65.822 23.788C66.354 23.4427 66.788 23.0367 67.124 22.57C67.4693 22.094 67.628 21.5433 67.6 20.918H62.658V19.588H67.684V17.236C67.684 17.1427 67.6327 17.096 67.53 17.096H62.728V15.752H68.468C68.7107 15.752 68.9067 15.8407 69.056 16.018C69.2147 16.186 69.294 16.382 69.294 16.606V20.638C69.294 21.4687 69.1073 22.206 68.734 22.85C68.3607 23.4847 67.88 24.04 67.292 24.516C66.704 24.9827 66.0507 25.37 65.332 25.678C64.6133 25.9767 63.904 26.2053 63.204 26.364L62.378 25.23ZM74.754 20.904H72.948V28.128C72.948 28.212 72.9153 28.2773 72.85 28.324C72.794 28.38 72.7287 28.408 72.654 28.408H71.338V15.08H72.948V19.574H74.754V20.904ZM75.3936 25.23C75.9256 25.0807 76.4996 24.8893 77.1156 24.656C77.741 24.4133 78.315 24.124 78.8376 23.788C79.3696 23.4427 79.8036 23.0367 80.1396 22.57C80.485 22.094 80.6436 21.5433 80.6156 20.918H75.6736V19.588H80.6996V17.236C80.6996 17.1427 80.6483 17.096 80.5456 17.096H75.7436V15.752H81.4836C81.7263 15.752 81.9223 15.8407 82.0716 16.018C82.2303 16.186 82.3096 16.382 82.3096 16.606V20.638C82.3096 21.4687 82.123 22.206 81.7496 22.85C81.3763 23.4847 80.8956 24.04 80.3076 24.516C79.7196 24.9827 79.0663 25.37 78.3476 25.678C77.629 25.9767 76.9196 26.2053 76.2196 26.364L75.3936 25.23ZM87.7696 20.904H85.9636V28.128C85.9636 28.212 85.931 28.2773 85.8656 28.324C85.8096 28.38 85.7443 28.408 85.6696 28.408H84.3536V15.08H85.9636V19.574H87.7696V20.904ZM100.841 26.406C100.841 26.4807 100.813 26.546 100.757 26.602C100.701 26.658 100.636 26.686 100.561 26.686H88.2413V25.342H93.7573V22.528C93.1506 22.472 92.5953 22.3553 92.0913 22.178C91.5873 22.0007 91.1533 21.7627 90.7893 21.464C90.4253 21.1653 90.1406 20.8107 89.9353 20.4C89.7299 19.9893 89.6273 19.5227 89.6273 19C89.6273 18.4307 89.7533 17.9313 90.0053 17.502C90.2573 17.0633 90.6026 16.6947 91.0413 16.396C91.4893 16.0973 92.0166 15.8733 92.6233 15.724C93.2299 15.5653 93.8833 15.486 94.5833 15.486C95.2926 15.486 95.9506 15.5653 96.5573 15.724C97.1639 15.8733 97.6866 16.0973 98.1253 16.396C98.5733 16.6947 98.9233 17.0633 99.1753 17.502C99.4273 17.9313 99.5533 18.4307 99.5533 19C99.5533 19.5227 99.4459 19.994 99.2313 20.414C99.0259 20.8247 98.7366 21.1793 98.3633 21.478C97.9993 21.7673 97.5606 22.0007 97.0473 22.178C96.5339 22.3553 95.9739 22.472 95.3673 22.528V25.342H100.841V26.406ZM97.9713 19.028C97.9713 18.664 97.8873 18.3467 97.7193 18.076C97.5513 17.796 97.3179 17.5627 97.0193 17.376C96.7206 17.1893 96.3613 17.0493 95.9412 16.956C95.5306 16.8533 95.0826 16.802 94.5973 16.802C94.1026 16.802 93.6453 16.8533 93.2253 16.956C92.8146 17.0493 92.4599 17.1893 92.1613 17.376C91.8626 17.5627 91.6293 17.796 91.4613 18.076C91.2933 18.3467 91.2093 18.664 91.2093 19.028C91.2093 19.3827 91.2933 19.7 91.4613 19.98C91.6293 20.2507 91.8626 20.4793 92.1613 20.666C92.4599 20.8527 92.8146 20.9973 93.2253 21.1C93.6453 21.1933 94.1026 21.24 94.5973 21.24C95.0826 21.24 95.5306 21.1933 95.9412 21.1C96.3613 20.9973 96.7206 20.8527 97.0193 20.666C97.3179 20.4793 97.5513 20.2507 97.7193 19.98C97.8873 19.7 97.9713 19.3827 97.9713 19.028ZM103.861 20.918C103.618 20.918 103.413 20.8387 103.245 20.68C103.086 20.512 103.007 20.3113 103.007 20.078V16.004C103.007 15.7613 103.086 15.5607 103.245 15.402C103.413 15.2433 103.618 15.164 103.861 15.164H112.079V16.452H104.785C104.692 16.452 104.645 16.4987 104.645 16.592V17.418H111.897V18.664H104.645V19.476C104.645 19.5693 104.692 19.616 104.785 19.616H112.247V20.918H108.383V21.94H113.857V22.976C113.848 23.0973 113.806 23.1767 113.731 23.214C113.666 23.242 113.614 23.256 113.577 23.256H101.243V21.94H106.787V20.918H103.861ZM112.149 28.128C112.149 28.2027 112.121 28.268 112.065 28.324C112.009 28.38 111.944 28.408 111.869 28.408H110.567V25.496C110.567 25.4027 110.52 25.356 110.427 25.356H102.937V24.054H111.295C111.528 24.054 111.729 24.1333 111.897 24.292C112.065 24.4507 112.149 24.6513 112.149 24.894V28.128ZM123.975 19.154C123.975 18.7807 123.886 18.4493 123.709 18.16C123.541 17.8613 123.303 17.6093 122.995 17.404C122.696 17.1987 122.341 17.0447 121.931 16.942C121.529 16.83 121.095 16.774 120.629 16.774C120.153 16.774 119.709 16.83 119.299 16.942C118.888 17.0447 118.529 17.1987 118.221 17.404C117.922 17.6093 117.684 17.8613 117.507 18.16C117.339 18.4493 117.255 18.7807 117.255 19.154C117.255 19.5367 117.339 19.8773 117.507 20.176C117.684 20.4653 117.922 20.7127 118.221 20.918C118.529 21.1233 118.888 21.282 119.299 21.394C119.709 21.4967 120.153 21.548 120.629 21.548C121.095 21.548 121.529 21.4967 121.931 21.394C122.341 21.282 122.696 21.1233 122.995 20.918C123.303 20.7127 123.541 20.4653 123.709 20.176C123.886 19.8773 123.975 19.5367 123.975 19.154ZM115.659 19.154C115.659 18.566 115.785 18.0433 116.037 17.586C116.298 17.1193 116.648 16.732 117.087 16.424C117.535 16.1067 118.057 15.864 118.655 15.696C119.261 15.528 119.915 15.444 120.615 15.444C121.315 15.444 121.963 15.528 122.561 15.696C123.167 15.864 123.69 16.1067 124.129 16.424C124.577 16.732 124.927 17.1193 125.179 17.586C125.44 18.0433 125.571 18.566 125.571 19.154C125.571 19.742 125.44 20.2693 125.179 20.736C124.927 21.1933 124.577 21.5807 124.129 21.898C123.69 22.2153 123.167 22.458 122.561 22.626C121.963 22.794 121.315 22.878 120.615 22.878C119.915 22.878 119.261 22.794 118.655 22.626C118.057 22.458 117.535 22.2153 117.087 21.898C116.648 21.5807 116.298 21.1933 116.037 20.736C115.785 20.2693 115.659 19.742 115.659 19.154ZM126.873 25.188V26.252C126.873 26.3267 126.845 26.392 126.789 26.448C126.733 26.504 126.667 26.532 126.593 26.532H114.273V25.188H126.873ZM129.766 23.158C129.523 23.158 129.318 23.0787 129.15 22.92C128.991 22.752 128.912 22.5513 128.912 22.318V18.79H136.388C136.481 18.79 136.528 18.7433 136.528 18.65V17.11H128.912V15.766H138.166V19.266C138.166 19.5273 138.082 19.7327 137.914 19.882C137.755 20.0313 137.555 20.106 137.312 20.106H130.536V21.674C130.536 21.7673 130.583 21.814 130.676 21.814H138.376V23.158H134.414V25.356H139.888V26.378C139.888 26.4527 139.86 26.518 139.804 26.574C139.748 26.63 139.683 26.658 139.608 26.658H127.288V25.356H132.804V23.158H129.766ZM148.865 20.022C148.865 20.3767 148.987 20.7547 149.229 21.156C149.481 21.5573 149.794 21.9493 150.167 22.332C150.55 22.7147 150.965 23.0693 151.413 23.396C151.861 23.7227 152.291 23.9887 152.701 24.194L151.721 25.356C151.432 25.216 151.115 25.0293 150.769 24.796C150.424 24.5533 150.083 24.292 149.747 24.012C149.411 23.732 149.099 23.4473 148.809 23.158C148.52 22.8687 148.287 22.6027 148.109 22.36C147.923 22.6027 147.68 22.8827 147.381 23.2C147.092 23.508 146.779 23.816 146.443 24.124C146.117 24.4227 145.785 24.7027 145.449 24.964C145.123 25.216 144.833 25.4027 144.581 25.524L143.531 24.502C144.017 24.222 144.483 23.9 144.931 23.536C145.379 23.172 145.771 22.794 146.107 22.402C146.453 22.0007 146.728 21.5947 146.933 21.184C147.139 20.764 147.241 20.358 147.241 19.966V15.668H148.865V20.022ZM153.667 28.408V15.08H155.235V28.128C155.235 28.2027 155.207 28.268 155.151 28.324C155.095 28.38 155.03 28.408 154.955 28.408H153.667ZM157.639 15.486H164.555V16.774H161.881V18.174C161.881 18.538 161.993 18.8833 162.217 19.21C162.441 19.5367 162.716 19.8353 163.043 20.106C163.379 20.3767 163.738 20.6193 164.121 20.834C164.513 21.0393 164.872 21.212 165.199 21.352L164.205 22.402C163.934 22.29 163.654 22.1547 163.365 21.996C163.075 21.828 162.795 21.646 162.525 21.45C162.254 21.254 161.997 21.0487 161.755 20.834C161.512 20.6193 161.302 20.4047 161.125 20.19C160.929 20.4327 160.695 20.6847 160.425 20.946C160.163 21.198 159.879 21.4407 159.571 21.674C159.272 21.898 158.969 22.1033 158.661 22.29C158.353 22.4767 158.059 22.626 157.779 22.738L156.771 21.716C157.275 21.5013 157.741 21.254 158.171 20.974C158.6 20.694 158.969 20.4 159.277 20.092C159.585 19.7747 159.823 19.4527 159.991 19.126C160.168 18.7993 160.257 18.482 160.257 18.174V16.774H157.639V15.486ZM169.693 19.308H167.831V22.514C167.831 22.5887 167.803 22.654 167.747 22.71C167.691 22.766 167.625 22.794 167.551 22.794H166.249V15.08H167.831V17.978H169.693V19.308ZM167.845 28.128C167.845 28.2027 167.817 28.268 167.761 28.324C167.705 28.38 167.639 28.408 167.565 28.408H166.249V25.006C166.249 24.9127 166.202 24.866 166.109 24.866H158.857V23.564H166.991C167.224 23.564 167.425 23.6433 167.593 23.802C167.761 23.9607 167.845 24.1613 167.845 24.404V28.128ZM171.928 22.318C171.928 22.654 171.98 22.9573 172.082 23.228C172.194 23.4893 172.344 23.7133 172.53 23.9C172.717 24.0867 172.936 24.2313 173.188 24.334C173.44 24.4273 173.706 24.474 173.986 24.474C174.276 24.474 174.546 24.4227 174.798 24.32C175.06 24.2173 175.279 24.0727 175.456 23.886C175.643 23.6993 175.788 23.4753 175.89 23.214C176.002 22.9433 176.058 22.6447 176.058 22.318C176.058 22.0567 176.007 21.8 175.904 21.548C175.811 21.296 175.676 21.072 175.498 20.876C175.321 20.68 175.102 20.526 174.84 20.414C174.588 20.2927 174.304 20.232 173.986 20.232C173.688 20.232 173.412 20.288 173.16 20.4C172.908 20.512 172.689 20.666 172.502 20.862C172.325 21.0487 172.185 21.268 172.082 21.52C171.98 21.772 171.928 22.038 171.928 22.318ZM170.374 22.318C170.374 21.842 170.463 21.394 170.64 20.974C170.818 20.554 171.065 20.19 171.382 19.882C171.709 19.574 172.092 19.3313 172.53 19.154C172.969 18.9673 173.454 18.874 173.986 18.874C174.5 18.874 174.976 18.9673 175.414 19.154C175.862 19.3407 176.245 19.5927 176.562 19.91C176.889 20.218 177.141 20.582 177.318 21.002C177.505 21.422 177.598 21.8607 177.598 22.318C177.598 22.794 177.51 23.2467 177.332 23.676C177.164 24.096 176.922 24.4693 176.604 24.796C176.296 25.1133 175.918 25.3653 175.47 25.552C175.022 25.7387 174.528 25.832 173.986 25.832C173.445 25.832 172.95 25.7433 172.502 25.566C172.064 25.3793 171.686 25.1273 171.368 24.81C171.051 24.4927 170.804 24.124 170.626 23.704C170.458 23.2747 170.374 22.8127 170.374 22.318ZM169.982 18.286V16.956H173.202V15.066H174.812V16.956H178.074V18.286H169.982ZM182.722 21.758H180.79V28.128C180.79 28.2027 180.762 28.268 180.706 28.324C180.65 28.38 180.585 28.408 180.51 28.408H179.236V15.066H180.79V20.414H182.722V21.758ZM193.246 15.08H194.814V28.128C194.814 28.2027 194.786 28.268 194.73 28.324C194.674 28.38 194.609 28.408 194.534 28.408H193.246V15.08ZM183.656 25.23C184.179 25.1087 184.748 24.9267 185.364 24.684C185.98 24.4413 186.554 24.1427 187.086 23.788C187.618 23.424 188.061 22.9993 188.416 22.514C188.771 22.0287 188.948 21.478 188.948 20.862L188.962 17.236C188.962 17.1427 188.911 17.096 188.808 17.096H184.006V15.752H189.746C189.989 15.752 190.185 15.8407 190.334 16.018C190.493 16.186 190.572 16.382 190.572 16.606V20.638C190.572 21.4687 190.385 22.206 190.012 22.85C189.639 23.4847 189.158 24.04 188.57 24.516C187.982 24.9827 187.329 25.37 186.61 25.678C185.891 25.9767 185.182 26.2053 184.482 26.364L183.656 25.23Z" fill="#441A1B"/>
</svg>
